<?xml version="1.0" standalone="no"?>
<!DOCTYPE svg PUBLIC "-//W3C//DTD SVG 20010904//EN"
 "http://www.w3.org/TR/2001/REC-SVG-20010904/DTD/svg10.dtd">
<svg version="1.0" xmlns="http://www.w3.org/2000/svg"
 width="262" height="348" viewBox="0 0 262 348"
 preserveAspectRatio="xMidYMid meet">
<metadata>
Created by potrace 1.16, written by Peter Selinger 2001-2019
</metadata>
<g transform="translate(0,348) scale(0.012500,-0.012500)"
fill="#000000" stroke="none">
<path d="M2754 27805 c-25 -54 -75 -90 -163 -120 -140 -46 -324 -183 -418
-312 -28 -37 -74 -110 -103 -160 -54 -96 -102 -148 -145 -159 l-25 -6 0
-13158 0 -13158 23 -6 c45 -11 113 -82 137 -143 41 -102 69 -152 118 -206 26
-28 63 -74 82 -100 39 -55 95 -91 155 -102 68 -12 132 -53 155 -100 11 -23 20
-49 20 -58 0 -16 500 -17 7898 -17 l7899 0 14 42 c20 62 67 104 144 127 36 11
75 26 88 32 27 14 222 215 236 244 5 11 25 54 44 96 30 67 39 78 79 97 24 12
50 22 56 22 9 0 12 3044 12 13229 l0 13229 -29 7 c-62 13 -107 59 -155 158
-54 109 -90 155 -192 238 -99 80 -168 121 -279 164 -97 38 -150 78 -167 128
l-10 27 -7729 0 -7728 0 -17 -35z m15176 -941 c69 -20 102 -44 142 -102 17
-26 53 -72 80 -103 26 -31 55 -73 63 -92 13 -32 15 -1511 15 -12687 0 -9529
-3 -12656 -11 -12673 -26 -49 -121 -177 -151 -202 -17 -15 -81 -52 -142 -83
l-111 -57 -100 2 c-55 1 -3345 3 -7311 5 l-7211 3 -107 53 c-58 29 -122 67
-142 84 -39 34 -82 112 -113 206 l-21 61 0 12568 c0 8263 3 12589 10 12629 28
173 101 309 190 354 33 17 168 45 255 52 17 2 3310 2 7320 1 6645 -3 7294 -4
7345 -19z"/>
<path d="M5065 26523 c-11 -2 -30 -6 -42 -8 -32 -7 -84 -55 -99 -92 -8 -18
-21 -92 -29 -164 -18 -147 -35 -203 -94 -293 -23 -34 -54 -101 -70 -148 -36
-106 -44 -121 -96 -183 -23 -27 -63 -82 -88 -121 -27 -42 -69 -91 -104 -119
-32 -26 -79 -73 -106 -106 -31 -38 -69 -70 -111 -94 -34 -19 -89 -58 -120 -85
-67 -59 -105 -79 -201 -108 -38 -12 -101 -42 -140 -67 -79 -52 -135 -70 -250
-85 -207 -26 -257 -45 -296 -114 l-24 -41 -2 -10755 c-1 -9268 1 -10763 13
-10814 26 -109 63 -139 201 -167 70 -14 117 -31 178 -64 68 -37 97 -47 166
-56 106 -13 155 -35 222 -98 36 -34 85 -65 149 -95 79 -36 112 -60 194 -136
133 -123 168 -162 225 -249 27 -40 71 -103 97 -140 66 -89 207 -363 225 -437
9 -32 20 -93 27 -134 26 -168 57 -221 147 -252 31 -10 1025 -13 5243 -15 2863
-1 5314 1 5446 5 l242 8 48 29 c62 39 81 73 104 189 11 52 37 137 60 189 22
52 40 101 40 108 0 8 9 46 21 85 17 56 34 88 84 148 34 43 79 108 99 145 66
119 349 392 477 460 39 21 93 56 119 79 66 57 111 78 216 101 49 10 148 42
220 69 71 28 145 53 165 57 20 4 60 19 89 33 43 22 59 37 79 75 21 43 24 60
23 150 -3 239 -7 15869 -4 18545 2 2579 1 2936 -12 2961 -36 68 -83 88 -311
130 -95 18 -130 31 -260 95 -82 40 -165 79 -184 87 -19 7 -62 35 -95 62 -34
27 -98 71 -143 98 -63 38 -111 80 -208 182 -107 112 -133 146 -175 229 -28 53
-75 127 -106 165 -68 83 -71 90 -84 206 -9 79 -17 106 -60 192 -27 55 -56 127
-64 160 -7 33 -18 71 -24 85 -14 34 -59 75 -107 97 -38 17 -261 18 -5465 19
-2984 1 -5434 0 -5445 -3z m10677 -268 c40 -9 113 -69 132 -108 20 -43 21 -99
1 -136 -13 -25 -30 -36 -88 -55 -10 -3 -2378 -6 -5262 -6 -4814 0 -5247 1
-5278 16 -41 20 -65 58 -73 117 -11 82 33 156 104 174 36 9 10421 7 10464 -2z
m-12042 -1697 c29 -15 51 -35 63 -58 16 -33 17 -180 17 -2775 -1 -1782 -4
-2753 -11 -2777 -20 -74 -87 -128 -163 -131 -57 -2 -93 23 -122 87 l-23 52 -1
2769 c-1 2693 -1 2769 18 2794 45 62 143 79 222 39z m13765 -2 c14 -9 32 -27
40 -40 14 -21 16 -307 15 -2797 0 -1941 -4 -2785 -11 -2814 -23 -87 -77 -135
-134 -121 -40 10 -101 72 -124 126 l-21 49 0 2761 c-1 1702 3 2767 9 2778 38
70 159 102 226 58z m-6918 -2328 c22 -13 177 -164 344 -337 326 -336 655 -667
1031 -1037 258 -255 281 -271 416 -299 107 -21 168 -43 267 -93 100 -51 182
-78 276 -92 108 -16 165 -37 246 -90 94 -62 177 -85 278 -77 66 5 93 14 203
65 139 66 258 96 427 107 154 11 230 23 347 59 198 59 508 109 823 132 110 7
225 19 255 25 113 23 203 -9 242 -85 l21 -41 -3 -870 c-2 -478 -4 -901 -4
-940 0 -63 5 -82 53 -193 47 -108 61 -129 112 -176 32 -30 79 -87 105 -127 26
-41 67 -96 91 -124 25 -27 65 -88 88 -136 24 -48 69 -115 100 -150 31 -35 76
-98 101 -139 24 -41 64 -97 90 -125 51 -56 73 -95 99 -175 25 -78 36 -98 104
-181 45 -55 69 -95 91 -157 36 -101 49 -126 106 -209 30 -44 55 -98 80 -178
19 -62 51 -140 71 -172 74 -120 82 -139 103 -252 17 -93 31 -134 74 -220 76
-152 104 -237 126 -385 25 -168 36 -215 72 -305 16 -41 36 -99 44 -130 19 -74
51 -339 64 -531 14 -206 13 -1255 0 -1390 -24 -233 -51 -409 -73 -485 -13 -44
-36 -118 -50 -165 -14 -47 -33 -132 -42 -190 -28 -174 -72 -326 -131 -450 -40
-85 -59 -142 -73 -215 -24 -125 -33 -148 -92 -260 -26 -49 -66 -142 -89 -205
-22 -63 -65 -156 -95 -206 -30 -49 -72 -133 -93 -186 -22 -53 -66 -139 -100
-190 -33 -52 -73 -125 -89 -163 -20 -50 -47 -90 -100 -147 -46 -50 -77 -95
-88 -125 -34 -95 -73 -169 -110 -213 -21 -25 -58 -76 -83 -115 -25 -38 -73
-97 -107 -130 -41 -40 -75 -85 -98 -130 -19 -39 -58 -96 -86 -128 -58 -66 -94
-125 -123 -200 -20 -51 -21 -66 -17 -942 4 -1048 4 -1006 -14 -1042 -40 -77
-101 -103 -239 -103 -81 0 -121 6 -188 26 -76 23 -111 27 -325 34 -379 13
-696 55 -995 130 -63 16 -203 40 -311 54 -108 14 -235 37 -283 51 -109 32
-176 32 -263 1 -37 -14 -120 -39 -183 -56 -66 -17 -164 -53 -230 -85 -94 -44
-139 -59 -245 -80 -141 -27 -216 -49 -255 -74 -93 -60 -204 -155 -320 -275
-74 -77 -157 -160 -184 -185 -27 -25 -72 -70 -100 -100 -28 -29 -87 -91 -131
-137 -44 -45 -125 -130 -180 -189 -55 -58 -146 -152 -202 -209 -57 -57 -103
-108 -103 -114 0 -6 -29 -33 -65 -61 -35 -28 -82 -75 -104 -104 -22 -30 -62
-71 -90 -91 -28 -21 -70 -65 -93 -99 -93 -135 -250 -144 -328 -20 -31 48 -181
214 -255 282 -22 20 -60 58 -85 85 -25 27 -79 83 -120 125 -42 42 -92 97 -113
123 -21 26 -70 80 -110 120 -40 40 -155 161 -257 268 -387 409 -424 441 -555
481 -64 20 -132 50 -188 85 -56 33 -110 57 -145 65 -206 43 -327 81 -425 133
-80 43 -132 62 -244 90 -78 20 -163 36 -188 36 -25 0 -139 -15 -253 -34 -114
-19 -245 -39 -291 -46 -46 -6 -172 -33 -280 -60 -264 -65 -425 -87 -880 -120
-79 -6 -253 -28 -388 -50 -267 -44 -280 -43 -330 11 -49 53 -47 33 -53 927 -3
464 -2 878 2 920 31 351 25 388 -83 484 -43 38 -86 88 -109 128 -21 36 -61 91
-89 124 -29 32 -69 93 -90 135 -21 42 -66 108 -99 148 -33 39 -77 103 -97 142
-20 39 -59 95 -86 126 -60 68 -64 76 -99 181 -28 84 -52 123 -122 200 -39 43
-61 86 -98 197 -14 43 -41 93 -72 133 -61 80 -72 105 -92 216 -21 109 -32 137
-95 222 -52 70 -57 83 -87 216 -9 41 -52 173 -96 293 -82 227 -90 258 -108
420 -7 71 -21 126 -51 205 -76 200 -94 342 -114 902 -15 409 -14 449 15 1061
12 254 23 314 106 589 19 63 46 184 59 267 29 178 42 220 101 328 33 61 51
115 79 229 38 161 55 207 115 306 22 36 57 114 80 174 23 63 60 138 88 180 63
91 76 118 113 223 17 48 52 118 79 157 26 39 66 109 89 155 23 46 62 104 85
130 60 65 78 95 116 189 26 66 47 99 98 154 41 45 76 96 97 142 18 39 56 100
84 135 28 35 70 100 93 144 24 44 66 106 94 136 96 105 87 -16 89 1191 1 1167
-2 1110 60 1158 41 33 82 36 170 13 94 -23 202 -37 373 -46 68 -4 171 -17 230
-30 291 -62 362 -79 451 -106 57 -18 149 -36 226 -45 119 -13 205 -29 385 -70
35 -8 94 -32 130 -53 110 -65 147 -75 305 -75 124 0 149 3 217 26 43 14 114
49 158 78 63 40 100 56 166 71 46 10 123 28 172 39 57 13 125 39 197 75 87 44
134 61 225 80 185 38 227 57 321 142 35 32 86 74 112 93 26 18 70 63 97 98 27
35 163 184 302 331 139 147 291 311 337 364 47 54 128 139 180 190 117 112
303 313 361 391 71 93 140 117 217 74z m-6851 -12909 c31 -16 54 -36 66 -59
17 -34 18 -147 18 -2960 0 -1832 -4 -2948 -10 -2985 -12 -73 -41 -107 -93
-107 -76 0 -164 43 -197 97 l-21 34 1 2948 c0 2772 1 2949 18 2983 9 19 33 45
52 58 43 29 96 26 166 -9z m13775 -5 c52 -47 49 150 49 -3029 1 -2920 0 -2956
-19 -2998 -11 -23 -26 -49 -33 -57 -75 -89 -195 -55 -229 64 -5 18 -9 1260 -9
2974 0 3141 -3 2981 46 3023 60 52 151 63 195 23z m-1720 -7457 c49 -24 64
-57 64 -138 0 -76 -16 -106 -75 -146 l-33 -23 -5204 0 c-4386 0 -5209 2 -5236
14 -58 24 -81 59 -85 129 -6 107 41 164 145 177 32 4 2382 6 5223 6 4948 -1
5167 -2 5201 -19z"/>
<path d="M10195 21459 c-51 -14 -100 -65 -140 -141 -46 -89 -178 -221 -302
-303 -91 -60 -132 -108 -162 -191 -24 -63 -16 -100 23 -110 14 -3 78 4 144 15
65 12 194 25 286 30 180 10 208 18 250 74 19 25 22 48 29 220 12 302 12 328
-6 363 -10 19 -29 36 -48 43 -36 12 -33 12 -74 0z"/>
<path d="M10716 21409 c-62 -48 -75 -137 -41 -266 18 -68 18 -75 2 -132 -21
-75 -22 -153 -2 -191 26 -51 59 -60 238 -66 89 -3 223 -14 297 -26 162 -24
211 -17 228 31 17 48 -12 144 -55 183 -10 9 -55 35 -101 57 -93 46 -264 195
-329 285 -99 139 -171 177 -237 125z"/>
<path d="M10100 20369 c-25 -4 -63 -12 -85 -18 -22 -6 -87 -11 -145 -11 -102
-1 -228 -17 -455 -59 -60 -11 -184 -27 -275 -36 -174 -16 -279 -38 -370 -78
-97 -43 -217 -76 -368 -102 -80 -14 -157 -32 -170 -41 -57 -37 -79 -127 -48
-197 8 -18 35 -59 60 -92 39 -51 54 -85 98 -220 47 -148 81 -225 144 -331 13
-23 37 -94 54 -158 29 -116 37 -131 120 -239 20 -27 36 -67 51 -133 23 -99 60
-183 129 -294 23 -36 52 -103 67 -150 31 -102 70 -192 123 -280 44 -74 56
-104 99 -246 23 -76 42 -117 75 -160 59 -79 82 -128 95 -199 19 -101 39 -147
96 -219 54 -67 66 -95 96 -221 18 -76 42 -123 97 -199 30 -41 63 -101 78 -145
15 -42 36 -98 46 -126 10 -27 40 -88 68 -135 59 -100 73 -139 101 -284 11 -61
27 -123 35 -138 8 -16 46 -54 85 -86 56 -46 76 -70 100 -122 50 -106 79 -124
118 -74 26 33 28 102 7 237 -25 161 -30 423 -11 586 10 91 18 250 20 430 2
157 8 399 13 536 6 138 8 295 5 350 -4 70 0 132 11 205 14 84 17 163 15 395
-1 233 1 307 15 379 14 77 16 183 16 805 0 477 -4 729 -11 754 -24 86 -101
131 -199 116z"/>
<path d="M10786 20350 c-91 -29 -136 -165 -106 -326 10 -52 13 -203 11 -599
-1 -356 2 -550 10 -590 6 -36 14 -285 19 -625 6 -465 11 -601 28 -770 20 -187
22 -264 22 -865 0 -562 -2 -673 -16 -745 -26 -142 -29 -187 -10 -215 9 -14 25
-25 36 -25 20 0 56 42 83 96 9 17 47 56 85 87 38 30 76 71 86 91 9 19 27 84
41 144 28 131 39 157 112 285 30 54 70 141 88 195 39 117 53 146 112 226 56
75 75 118 98 221 21 95 32 118 85 180 54 63 73 103 100 213 20 84 28 99 80
161 62 74 77 108 109 244 16 69 29 101 64 150 61 85 73 111 117 250 22 67 53
144 70 170 53 83 89 164 125 276 24 72 56 143 99 215 46 77 70 131 86 189 28
110 47 150 98 216 60 77 77 113 96 205 18 88 45 154 82 203 14 18 42 68 62
110 47 99 56 198 23 251 -33 51 -69 67 -203 86 -96 13 -172 33 -348 92 -248
82 -270 87 -515 110 -93 8 -240 29 -325 46 -100 19 -212 33 -315 39 -88 5
-182 11 -210 13 -27 3 -63 1 -79 -4z"/>
<path d="M14717 20196 c-20 -7 -61 -30 -91 -50 -42 -30 -67 -39 -122 -46 -207
-26 -338 -40 -414 -44 -98 -5 -134 -17 -172 -53 -58 -56 -41 -135 37 -173 49
-23 290 -70 361 -70 58 0 165 30 237 67 27 13 77 50 111 82 34 32 95 75 135
96 83 44 112 84 95 132 -20 57 -105 85 -177 59z"/>
<path d="M6086 20131 c-24 -27 -10 -49 54 -86 40 -23 63 -48 104 -110 55 -83
64 -90 186 -145 25 -11 72 -35 105 -55 35 -20 74 -35 92 -35 36 0 313 109 353
138 58 43 63 101 14 147 -30 28 -138 55 -218 55 -128 0 -411 47 -519 85 -84
31 -147 33 -171 6z"/>
<path d="M15264 19803 c-31 -27 -57 -68 -118 -189 -82 -164 -116 -273 -116
-375 1 -127 27 -173 135 -234 28 -15 58 -34 67 -42 27 -24 82 -32 104 -16 16
11 19 24 16 71 -1 31 -3 154 -3 272 -1 171 2 232 16 294 10 45 15 99 13 128
-9 86 -65 131 -114 91z"/>
<path d="M7645 19771 c-16 -12 -51 -36 -77 -55 -26 -19 -80 -46 -120 -62 -71
-26 -127 -59 -198 -116 -19 -15 -60 -36 -91 -47 -80 -27 -105 -42 -189 -110
-41 -34 -95 -68 -120 -77 -101 -36 -150 -66 -191 -115 -23 -28 -79 -75 -125
-105 -46 -30 -96 -71 -111 -91 -15 -19 -59 -59 -98 -89 -202 -155 -245 -205
-245 -284 0 -61 25 -98 97 -145 37 -24 74 -58 94 -89 19 -27 61 -71 95 -97 34
-27 73 -66 87 -88 15 -23 56 -65 92 -94 36 -30 83 -78 104 -108 22 -30 64 -72
95 -93 30 -22 72 -64 92 -93 20 -30 63 -72 96 -95 32 -23 68 -57 80 -77 32
-52 85 -107 124 -132 19 -11 54 -47 79 -79 25 -32 67 -74 94 -95 28 -20 67
-59 87 -86 20 -28 67 -75 105 -105 37 -30 82 -74 98 -98 17 -24 59 -66 95 -94
35 -28 78 -71 95 -95 17 -25 59 -67 95 -95 35 -28 78 -71 95 -96 17 -25 58
-66 91 -91 33 -25 79 -71 103 -103 25 -31 69 -75 100 -97 30 -22 70 -62 89
-89 18 -27 59 -68 90 -92 31 -25 74 -66 95 -92 47 -58 55 -65 121 -104 29 -17
73 -55 98 -86 25 -31 80 -81 122 -112 83 -61 199 -179 251 -253 17 -26 58 -65
90 -86 42 -29 71 -59 100 -105 23 -37 54 -72 70 -81 44 -22 94 -19 119 8 47
50 37 127 -30 239 -58 98 -97 198 -123 323 -27 132 -37 158 -102 256 -37 58
-53 95 -67 155 -32 146 -67 248 -122 360 -38 76 -64 146 -84 227 -22 91 -40
137 -84 214 -60 107 -84 176 -117 328 -24 112 -33 134 -96 222 -37 52 -49 82
-74 180 -16 65 -41 143 -57 173 -16 30 -49 94 -74 141 -33 65 -51 114 -67 195
-25 119 -55 196 -99 252 -44 55 -59 90 -90 205 -20 75 -45 133 -86 205 -38 67
-72 146 -101 234 -45 140 -78 216 -145 333 -22 39 -49 99 -61 134 -29 86 -62
122 -119 128 -34 3 -52 -1 -75 -16z"/>
<path d="M13223 19735 c-40 -17 -72 -73 -113 -198 -22 -68 -50 -125 -92 -190
-75 -113 -82 -130 -107 -251 -18 -91 -24 -102 -80 -177 -42 -56 -66 -98 -76
-137 -47 -176 -60 -214 -100 -284 -48 -83 -86 -173 -130 -312 -17 -53 -47
-117 -76 -162 -69 -106 -76 -121 -104 -238 -29 -125 -34 -136 -90 -197 -60
-64 -73 -95 -96 -217 -21 -108 -39 -154 -91 -229 -42 -62 -64 -119 -99 -260
-34 -140 -46 -168 -94 -228 -49 -61 -64 -96 -91 -218 -38 -173 -52 -215 -105
-315 -55 -103 -89 -196 -89 -241 0 -17 -5 -54 -11 -83 -10 -44 -22 -63 -72
-114 -67 -69 -82 -98 -103 -197 -18 -89 -18 -127 2 -156 15 -21 23 -23 75 -19
72 5 99 25 215 156 44 50 112 115 150 143 38 29 95 76 126 106 32 30 79 63
105 75 69 29 106 60 142 116 18 29 56 67 92 92 33 23 78 65 101 94 22 28 66
69 98 91 31 22 90 73 131 113 138 136 305 297 403 387 128 120 495 485 626
624 58 61 186 194 285 295 99 101 270 277 380 391 110 113 220 225 245 248 24
23 60 59 80 80 73 80 129 133 171 162 86 60 88 160 5 239 -22 21 -68 65 -101
96 -33 32 -86 76 -117 99 -32 22 -78 63 -104 91 -25 27 -69 64 -97 81 -29 18
-81 60 -117 95 -51 50 -84 71 -156 102 -62 26 -113 57 -159 96 -64 54 -119 87
-195 116 -19 7 -71 37 -115 67 -44 29 -118 68 -165 87 -47 19 -114 48 -150 65
-72 34 -90 37 -137 16z"/>
<path d="M5552 19688 c-58 -62 -74 -188 -66 -508 3 -140 10 -271 15 -291 13
-52 42 -74 98 -74 125 0 187 142 162 375 -28 260 -74 444 -121 492 -34 34 -59
36 -88 6z"/>
<path d="M6080 19627 c-13 -7 -30 -24 -37 -37 -31 -60 -4 -192 51 -256 27 -31
39 -37 84 -42 48 -4 54 -2 82 28 48 52 66 160 35 219 -39 76 -149 121 -215 88z"/>
<path d="M14688 19607 c-33 -28 -48 -58 -48 -97 0 -44 16 -69 56 -86 29 -12
39 -12 67 -1 48 21 69 51 74 104 4 39 1 53 -17 76 -28 36 -92 38 -132 4z"/>
<path d="M5731 18324 c-18 -10 -54 -43 -80 -73 -26 -31 -63 -73 -83 -93 -20
-20 -54 -63 -76 -96 -23 -32 -67 -82 -100 -111 -33 -28 -74 -73 -91 -99 -16
-26 -58 -71 -92 -101 -52 -46 -69 -70 -106 -149 -24 -52 -63 -119 -87 -151
-24 -31 -65 -94 -90 -140 -26 -46 -71 -113 -101 -148 -54 -63 -60 -78 -100
-225 -13 -50 -23 -63 -73 -104 -72 -58 -102 -106 -102 -162 0 -74 35 -120 127
-166 29 -14 73 -39 98 -55 49 -31 132 -63 275 -105 51 -15 131 -52 200 -91 74
-41 134 -68 170 -75 106 -21 181 -51 259 -104 71 -49 90 -56 225 -89 129 -31
160 -43 264 -101 115 -64 138 -72 317 -111 54 -12 89 -28 156 -74 79 -53 98
-61 220 -91 157 -39 186 -51 296 -117 81 -50 94 -55 253 -92 49 -12 131 -44
195 -75 152 -74 245 -108 335 -121 82 -12 136 -35 195 -85 62 -53 126 -80 186
-80 97 0 234 -52 358 -135 80 -53 142 -75 217 -75 69 0 90 26 80 97 -9 68 -34
108 -95 150 -30 21 -82 71 -115 111 -34 40 -79 86 -101 102 -22 15 -55 49 -73
73 -18 25 -61 71 -96 102 -36 31 -79 79 -96 106 -18 27 -54 65 -81 85 -27 20
-70 64 -96 97 -26 34 -76 91 -112 128 -36 36 -113 118 -171 183 -58 65 -141
158 -185 206 -44 48 -117 128 -162 178 -46 49 -104 116 -130 149 -25 32 -74
87 -108 123 -33 36 -82 93 -108 126 -26 34 -66 76 -88 94 -22 17 -64 64 -94
104 -29 39 -73 91 -98 115 -25 24 -64 71 -87 105 -23 33 -67 81 -97 106 -31
24 -72 67 -93 95 -20 27 -62 72 -94 98 -31 27 -76 74 -100 105 -24 32 -67 73
-95 92 -28 19 -69 60 -91 91 -21 31 -59 72 -84 93 -25 20 -66 64 -91 96 -26
33 -67 76 -93 95 -26 19 -67 63 -92 96 -25 34 -57 71 -71 82 -37 27 -106 32
-148 11z"/>
<path d="M15228 18320 c-20 -11 -62 -51 -93 -89 -30 -37 -91 -100 -135 -139
-43 -39 -107 -101 -142 -139 -34 -37 -94 -102 -133 -143 -38 -42 -91 -98 -116
-125 -26 -28 -161 -163 -300 -301 -140 -139 -292 -292 -337 -340 -107 -113
-439 -456 -652 -672 -91 -92 -181 -187 -200 -212 -19 -25 -117 -127 -217 -227
-101 -101 -183 -187 -183 -192 0 -6 -28 -34 -62 -62 -35 -29 -84 -79 -109
-113 -26 -34 -71 -81 -100 -106 -30 -25 -63 -56 -73 -70 -11 -14 -55 -58 -98
-99 -43 -41 -88 -89 -100 -108 -11 -20 -46 -51 -77 -70 -31 -20 -71 -50 -89
-67 -54 -50 -81 -176 -45 -211 31 -32 201 3 269 55 116 89 188 120 328 141
158 22 171 27 259 93 87 65 108 73 256 101 102 20 184 52 265 104 59 38 176
81 220 81 53 0 148 35 231 85 110 66 113 67 304 115 130 33 167 47 235 88 96
58 115 66 227 91 78 18 185 60 309 121 66 33 142 58 229 74 99 19 121 28 211
85 74 48 131 72 200 86 77 15 202 60 332 122 93 43 168 70 230 84 160 35 279
95 327 164 55 81 34 212 -49 310 -63 73 -72 90 -100 185 -31 101 -48 134 -114
209 -44 50 -61 81 -82 145 -37 111 -55 144 -109 196 -26 25 -71 81 -100 125
-28 44 -71 103 -94 130 -23 28 -60 86 -82 130 -27 52 -64 103 -105 146 -36 36
-81 94 -102 129 -20 35 -52 75 -71 87 -43 29 -111 30 -163 3z"/>
<path d="M4355 16186 c-16 -7 -49 -33 -72 -58 -88 -97 -112 -158 -133 -342
-13 -113 -36 -193 -87 -310 -55 -123 -82 -235 -98 -405 -8 -85 -26 -214 -40
-287 -19 -100 -25 -159 -24 -242 2 -104 1 -113 -23 -149 -72 -109 -88 -195
-48 -260 42 -70 -34 -66 1140 -59 580 3 1210 11 1400 17 190 6 444 12 565 14
295 4 891 28 1027 41 31 2 102 14 158 24 131 26 185 25 300 -5 174 -45 320
-22 320 50 0 31 -33 57 -130 102 -54 25 -102 56 -130 84 -82 82 -115 98 -256
123 -90 15 -147 38 -244 96 -36 21 -125 59 -199 84 -86 30 -155 60 -193 86
-90 62 -165 97 -264 123 -102 28 -138 44 -209 97 -74 55 -107 70 -202 86 -99
17 -148 40 -206 93 -58 53 -89 67 -211 96 -116 27 -141 38 -229 97 -40 27
-104 55 -199 85 -102 33 -159 59 -214 94 -107 70 -143 87 -250 115 -108 27
-137 41 -209 94 -71 54 -100 66 -191 83 -93 18 -146 42 -224 103 -63 49 -84
58 -198 85 -97 22 -129 37 -181 84 -75 68 -174 92 -246 61z"/>
<path d="M16478 16161 c-25 -10 -59 -27 -75 -38 -50 -36 -115 -65 -222 -100
-58 -18 -139 -54 -181 -78 -89 -52 -139 -71 -239 -91 -89 -17 -122 -32 -186
-85 -68 -56 -112 -77 -203 -95 -87 -18 -119 -33 -228 -104 -51 -33 -107 -59
-163 -76 -127 -37 -156 -50 -262 -110 -91 -52 -153 -76 -315 -123 -39 -11 -93
-36 -120 -55 -86 -61 -157 -93 -243 -110 -99 -20 -119 -29 -194 -91 -63 -51
-121 -80 -182 -90 -50 -8 -160 -43 -200 -63 -16 -8 -59 -34 -95 -58 -43 -28
-111 -59 -200 -89 -74 -25 -166 -64 -204 -86 -85 -48 -179 -83 -270 -98 -90
-16 -134 -39 -215 -115 -52 -49 -86 -70 -150 -97 -80 -33 -131 -69 -131 -94 0
-29 47 -55 121 -66 65 -9 90 -8 189 10 142 26 217 26 395 1 207 -30 368 -40
800 -50 215 -5 543 -14 730 -20 187 -5 853 -14 1480 -18 922 -7 1146 -6 1172
4 50 20 73 66 73 146 0 57 -5 76 -37 135 -34 63 -37 76 -44 188 -4 66 -12 136
-18 155 -7 19 -18 98 -27 175 -32 308 -72 490 -148 677 -47 118 -58 157 -75
275 -22 149 -36 194 -84 260 -65 91 -144 115 -249 74z"/>
<path d="M10325 14871 c-27 -5 -70 -14 -95 -21 -57 -15 -256 -120 -335 -175
-63 -45 -161 -142 -210 -210 -16 -22 -52 -65 -81 -95 -100 -108 -114 -164
-116 -472 -2 -294 14 -365 111 -497 27 -36 61 -90 75 -119 36 -72 87 -126 144
-152 26 -12 72 -45 102 -73 96 -88 211 -127 441 -147 93 -8 157 -8 244 0 237
22 342 56 430 139 28 27 74 60 101 74 73 38 99 64 145 147 23 41 59 98 80 125
93 123 119 234 119 498 -1 289 -19 366 -108 461 -27 28 -68 80 -92 116 -55 82
-137 164 -219 219 -88 60 -273 147 -351 165 -77 18 -314 28 -385 17z"/>
<path d="M16455 13700 c-187 -4 -324 -12 -365 -21 -50 -10 -196 -13 -625 -15
-308 0 -733 -6 -945 -12 -212 -5 -616 -15 -899 -20 -283 -6 -531 -14 -550 -17
-20 -3 -181 -9 -358 -14 -278 -7 -326 -10 -348 -25 -33 -22 -39 -37 -30 -83 4
-25 21 -52 48 -79 47 -46 110 -70 276 -105 112 -23 155 -41 252 -106 85 -58
90 -60 185 -78 98 -19 130 -34 194 -92 72 -66 105 -81 205 -99 104 -18 145
-35 215 -89 71 -55 80 -60 180 -85 124 -31 183 -54 233 -89 71 -48 177 -98
256 -120 90 -25 145 -51 205 -97 66 -50 131 -80 216 -98 79 -18 107 -32 217
-108 47 -33 88 -52 133 -63 130 -31 170 -47 252 -101 66 -43 110 -63 213 -95
92 -29 156 -56 220 -94 108 -65 162 -88 275 -121 100 -29 137 -47 220 -108
133 -98 279 -100 352 -4 36 47 97 159 109 200 5 18 18 87 29 153 26 150 30
164 97 308 60 128 68 165 93 437 6 69 18 155 25 191 40 189 88 504 89 576 1
92 -13 122 -75 158 -40 24 -133 26 -594 15z"/>
<path d="M3966 13670 c-46 -15 -83 -58 -95 -109 -11 -47 -10 -64 33 -316 9
-49 30 -209 47 -355 38 -327 55 -408 117 -557 66 -157 69 -168 86 -315 17
-147 30 -181 114 -300 75 -105 108 -130 177 -136 71 -6 109 8 256 94 128 75
176 95 327 135 66 17 97 32 155 75 69 51 158 94 196 94 46 0 126 35 187 81 79
61 128 84 223 104 82 17 113 31 196 90 78 55 125 78 205 99 89 25 165 58 266
115 47 27 142 69 211 92 90 31 149 58 205 96 78 51 139 75 228 88 80 11 110
26 173 82 79 70 118 90 209 104 96 15 120 25 226 102 65 46 107 68 153 81 84
22 132 43 196 83 123 77 167 91 412 132 78 13 134 48 161 101 35 68 20 128
-39 153 -16 7 -143 14 -331 18 -168 4 -451 13 -630 19 -179 7 -487 13 -685 14
-198 2 -414 6 -480 10 -116 7 -410 11 -1605 21 -305 2 -625 7 -710 10 -86 2
-168 1 -184 -5z"/>
<path d="M11956 12984 c-9 -8 -16 -31 -16 -51 0 -88 46 -160 131 -204 23 -11
60 -41 83 -66 22 -25 99 -104 170 -177 71 -72 156 -165 189 -206 32 -41 91
-106 131 -145 39 -38 119 -124 176 -189 58 -66 146 -164 195 -219 50 -55 107
-121 128 -146 21 -25 107 -116 191 -202 84 -86 178 -188 209 -227 31 -38 67
-78 80 -88 13 -11 45 -47 71 -82 26 -34 73 -84 103 -110 30 -26 75 -76 98
-110 24 -35 67 -82 95 -103 29 -22 69 -63 89 -91 20 -29 63 -74 96 -100 32
-27 75 -69 95 -95 19 -26 62 -69 95 -95 32 -27 75 -69 95 -95 19 -26 63 -70
98 -98 34 -27 77 -73 96 -101 19 -28 58 -70 87 -93 29 -23 71 -68 95 -100 23
-31 67 -77 97 -102 31 -24 78 -74 106 -110 79 -105 163 -143 265 -120 63 14
99 45 148 126 20 33 68 88 106 122 53 47 77 79 105 135 20 40 59 100 87 133
28 33 74 97 101 142 28 45 54 85 60 88 5 4 31 33 58 65 35 42 58 83 82 150 24
67 49 115 95 176 41 55 73 112 94 166 17 46 36 96 43 113 6 16 32 54 56 85 25
30 54 71 63 90 22 42 23 121 3 159 -20 40 -68 78 -107 86 -89 18 -140 40 -217
90 -82 53 -113 66 -253 100 -37 9 -111 37 -165 62 -175 80 -236 103 -337 129
-112 28 -139 41 -211 95 -65 49 -106 66 -207 85 -111 21 -160 39 -250 91 -85
49 -210 97 -278 108 -93 14 -148 36 -216 86 -83 61 -116 76 -203 90 -111 17
-168 38 -325 119 -133 69 -161 79 -237 90 -92 12 -120 25 -219 102 -43 33 -75
49 -113 57 -28 5 -88 17 -132 26 -44 8 -107 29 -140 47 -165 85 -199 100 -276
118 -171 41 -184 47 -258 115 -52 47 -83 68 -122 79 -70 21 -163 21 -183 0z"/>
<path d="M8815 12975 c-24 -8 -60 -35 -90 -67 -70 -75 -91 -86 -201 -103 -98
-16 -157 -40 -275 -111 -33 -20 -97 -44 -155 -59 -168 -43 -226 -65 -319 -121
-81 -48 -178 -84 -227 -84 -38 0 -117 -35 -195 -86 -98 -64 -100 -65 -256
-104 -131 -33 -211 -65 -265 -107 -44 -33 -118 -61 -211 -79 -90 -17 -144 -40
-213 -92 -74 -55 -104 -69 -203 -92 -112 -26 -224 -70 -321 -125 -79 -45 -186
-85 -228 -85 -48 0 -120 -30 -175 -73 -75 -59 -127 -84 -211 -102 -89 -19
-117 -31 -260 -110 -132 -74 -149 -80 -279 -100 -51 -8 -104 -22 -118 -30 -38
-25 -63 -75 -63 -125 0 -54 21 -98 77 -166 46 -55 63 -86 94 -171 25 -67 46
-100 105 -164 43 -47 77 -107 109 -192 10 -26 43 -76 73 -109 30 -34 70 -87
90 -117 19 -31 65 -87 102 -126 36 -38 84 -95 105 -125 21 -30 98 -120 171
-200 73 -80 151 -170 175 -200 79 -104 139 -131 207 -96 29 16 227 223 387
406 55 63 134 149 175 191 41 43 122 128 180 190 58 63 140 148 183 190 43 43
92 97 110 122 18 24 60 68 93 96 34 28 76 73 93 100 18 27 55 67 84 89 29 21
72 68 96 103 24 36 65 80 93 99 27 19 67 61 89 92 21 31 56 69 77 84 64 48 92
77 137 144 24 36 57 75 74 87 16 13 56 56 87 95 32 40 85 103 118 139 96 104
270 298 328 366 127 148 358 402 417 458 35 33 81 84 103 112 22 31 69 73 111
102 84 57 101 74 122 124 21 51 19 103 -5 127 -16 16 -33 20 -87 20 -38 -1
-86 -7 -108 -15z"/>
<path d="M9412 12504 c-37 -19 -70 -48 -119 -107 -84 -102 -331 -348 -489
-487 -110 -97 -274 -258 -274 -270 0 -3 -55 -54 -121 -115 -149 -135 -743
-728 -894 -891 -60 -65 -220 -229 -355 -364 -136 -135 -314 -319 -396 -410
-82 -90 -209 -225 -283 -300 -74 -74 -166 -171 -204 -215 -39 -44 -95 -102
-123 -128 -60 -54 -79 -98 -71 -164 7 -66 32 -87 154 -133 18 -7 62 -38 98
-70 37 -32 97 -77 135 -99 37 -23 100 -70 139 -106 39 -35 93 -76 122 -90 28
-15 80 -53 115 -86 57 -53 135 -99 167 -99 31 0 137 -63 177 -105 43 -46 127
-95 162 -95 9 0 41 -5 69 -11 45 -10 64 -22 130 -85 43 -41 90 -79 104 -84 68
-26 159 1 199 58 53 79 157 311 195 438 21 73 51 151 66 175 15 24 42 68 60
96 21 35 40 86 55 150 22 98 33 124 108 263 26 48 52 119 72 200 35 135 47
162 121 285 40 66 54 102 78 207 23 96 43 152 86 235 64 127 88 194 116 316
25 113 38 144 89 208 60 76 67 94 90 225 27 155 32 170 101 294 48 87 65 129
93 242 20 81 56 184 86 254 67 151 95 233 115 341 19 100 22 106 75 168 55 63
75 107 94 198 22 106 21 133 -9 162 -31 32 -67 32 -133 -1z"/>
<path d="M11382 12498 c-18 -18 -15 -48 14 -160 29 -116 42 -146 95 -208 47
-56 49 -61 104 -278 32 -125 54 -190 75 -222 60 -92 82 -144 105 -253 20 -91
38 -138 95 -252 60 -119 75 -158 96 -258 29 -140 42 -175 93 -241 55 -73 67
-100 101 -233 22 -88 48 -154 100 -258 56 -112 74 -160 90 -239 24 -119 44
-165 99 -231 42 -50 67 -113 90 -226 7 -31 30 -91 53 -135 22 -43 57 -112 78
-152 21 -40 52 -125 70 -190 32 -116 59 -176 125 -281 22 -34 41 -85 55 -144
26 -112 40 -146 84 -208 46 -63 70 -112 91 -184 33 -118 74 -155 167 -155 53
0 53 0 123 74 80 84 108 101 185 111 80 10 130 35 191 98 38 37 84 69 146 101
51 25 117 66 148 91 30 25 90 62 133 82 58 28 93 54 142 104 36 37 92 84 125
105 33 20 87 63 120 94 34 32 92 78 130 103 74 47 114 85 135 127 17 32 17
128 0 160 -7 14 -165 176 -350 360 -185 184 -358 362 -384 396 -25 33 -70 80
-99 103 -28 24 -73 68 -99 98 -26 31 -67 73 -92 93 -24 20 -62 57 -83 81 -63
73 -274 281 -328 323 -27 22 -75 65 -105 96 -30 31 -78 76 -105 100 -28 25
-110 108 -183 185 -73 77 -150 153 -170 168 -45 34 -252 227 -301 281 -20 21
-70 69 -112 105 -42 36 -190 174 -328 306 -138 132 -278 261 -310 287 -32 26
-82 82 -110 123 -29 41 -67 86 -86 101 -68 52 -185 80 -213 52z"/>
<path d="M10132 12208 c-37 -44 -110 -116 -164 -160 -59 -48 -72 -79 -97 -228
-22 -129 -47 -197 -116 -310 -19 -31 -46 -94 -61 -141 -47 -150 -56 -170 -104
-233 -65 -84 -78 -113 -100 -214 -23 -106 -39 -145 -80 -197 -49 -61 -67 -104
-99 -228 -30 -116 -60 -188 -113 -265 -44 -64 -75 -141 -104 -258 -20 -77 -36
-119 -61 -153 -75 -103 -93 -136 -103 -190 -33 -170 -42 -201 -82 -267 -55
-91 -102 -203 -134 -322 -30 -109 -43 -139 -107 -233 -35 -53 -49 -88 -70
-174 -16 -65 -49 -155 -81 -224 -29 -64 -68 -161 -86 -216 -18 -55 -51 -136
-74 -180 -72 -142 -54 -220 69 -301 87 -58 218 -101 389 -129 144 -23 347 -73
531 -131 94 -30 264 -47 651 -65 252 -12 263 -11 295 7 19 11 43 38 55 61 21
41 21 43 23 1270 1 1030 -1 1254 -14 1388 -8 88 -15 234 -15 323 0 90 -7 218
-15 285 -8 67 -19 259 -24 427 -7 218 -16 345 -32 445 -23 153 -22 208 7 425
18 133 15 169 -16 200 -27 27 -37 25 -68 -12z"/>
<path d="M10778 12163 c-11 -3 -22 -21 -29 -46 -11 -41 -10 -63 10 -222 6 -49
9 -279 7 -590 -4 -437 -7 -519 -21 -575 -14 -52 -18 -128 -21 -385 -3 -208 -9
-353 -19 -415 -11 -76 -15 -304 -20 -1165 -3 -672 -9 -1083 -15 -1105 -15 -54
-12 -157 6 -196 36 -76 93 -92 267 -75 67 7 196 18 287 26 123 10 184 20 238
39 41 14 126 37 190 51 64 15 142 35 173 45 30 11 120 29 200 40 147 22 158
25 421 135 48 20 121 42 163 50 121 23 159 52 172 129 9 56 -14 117 -69 184
-42 52 -54 77 -79 164 -41 138 -80 229 -140 324 -31 49 -59 111 -75 164 -42
140 -53 167 -106 247 -47 72 -88 163 -88 197 0 49 -45 151 -95 213 -53 67 -63
90 -100 234 -9 38 -31 88 -51 115 -18 27 -47 68 -63 92 -16 23 -43 88 -61 145
-37 115 -53 151 -116 252 -24 40 -56 113 -74 170 -48 152 -68 199 -112 257
-58 77 -67 99 -93 217 -29 136 -33 145 -92 216 -65 78 -67 83 -98 206 -19 77
-35 118 -63 158 -20 29 -49 71 -63 92 -17 25 -38 85 -57 165 -41 169 -73 231
-167 334 -85 92 -120 119 -147 113z"/>
<path d="M5561 8937 c-13 -6 -33 -25 -45 -40 -19 -26 -21 -46 -28 -300 -9
-369 9 -525 67 -583 48 -48 97 -19 134 80 33 89 49 204 56 421 6 169 5 210 -9
264 -23 89 -45 130 -80 152 -36 22 -61 24 -95 6z"/>
<path d="M15208 8808 c-156 -118 -163 -176 -54 -462 51 -135 71 -202 81 -275
16 -112 25 -139 53 -165 25 -22 45 -17 68 19 19 29 19 17 6 405 -6 162 -8 332
-5 376 3 45 3 93 -1 107 -7 30 -32 57 -51 57 -8 0 -51 -28 -97 -62z"/>
<path d="M6109 8465 c-37 -20 -54 -62 -80 -195 -35 -181 -19 -202 118 -156 97
32 133 54 169 102 24 31 29 47 29 94 0 47 -5 63 -29 94 -15 21 -42 46 -60 57
-37 23 -109 25 -147 4z"/>
<path d="M14661 8412 c-77 -39 -96 -122 -47 -206 91 -155 244 -150 262 9 9 71
-11 132 -56 177 -32 32 -44 38 -81 38 -24 0 -59 -8 -78 -18z"/>
<path d="M6607 8040 c-62 -11 -87 -27 -167 -109 -57 -59 -75 -70 -155 -100
-100 -38 -155 -82 -155 -125 0 -59 78 -92 200 -83 61 5 89 13 165 51 95 48
144 61 265 71 41 3 105 13 142 21 181 41 146 194 -60 263 -64 22 -146 26 -235
11z"/>
<path d="M14140 8041 c-47 -15 -115 -53 -148 -85 -41 -37 -84 -119 -80 -149 5
-34 41 -44 231 -66 137 -16 193 -27 240 -47 157 -66 158 -66 249 -62 75 3 90
6 112 27 30 29 34 69 9 100 -10 11 -59 41 -109 65 -79 38 -99 54 -140 106 -26
33 -61 69 -78 79 -55 33 -221 51 -286 32z"/>
<path d="M11258 7071 c-14 -5 -68 -35 -120 -67 -151 -93 -180 -104 -280 -104
-99 0 -126 -8 -161 -46 -34 -36 -48 -100 -45 -209 1 -49 -2 -129 -6 -176 -14
-134 19 -197 106 -206 61 -6 96 19 141 103 35 67 61 95 292 321 33 33 75 78
94 102 19 24 58 59 88 78 30 19 58 45 63 59 17 44 12 91 -13 120 -19 22 -33
28 -78 30 -30 2 -66 -1 -81 -5z"/>
<path d="M9586 7019 c-19 -15 -26 -30 -26 -56 0 -29 9 -44 56 -91 31 -32 69
-80 85 -108 33 -57 52 -76 130 -130 72 -50 196 -185 233 -255 39 -73 73 -107
119 -120 113 -30 170 53 146 214 -6 40 -10 125 -10 189 1 100 -2 124 -19 158
-32 63 -58 74 -190 81 -129 7 -188 24 -335 95 -101 50 -148 55 -189 23z"/>
<path d="M3270 26498 c-64 -43 -66 -58 -71 -600 -6 -695 -7 -648 16 -682 24
-37 71 -56 135 -56 59 0 95 13 168 64 31 21 90 47 140 61 193 57 241 80 342
165 30 25 78 60 105 78 28 17 64 50 80 73 46 63 117 159 157 211 27 35 50 89
88 203 28 85 66 187 85 227 57 118 43 211 -37 255 -30 17 -76 18 -603 21
l-571 3 -34 -23z"/>
<path d="M16599 26511 c-100 -31 -132 -117 -89 -239 11 -31 27 -102 36 -157
20 -124 37 -165 101 -235 28 -30 69 -86 93 -125 65 -107 100 -146 248 -270
144 -122 200 -155 297 -175 83 -17 119 -33 175 -80 62 -52 107 -70 172 -70 64
0 115 24 144 67 20 31 21 38 20 590 l-1 558 -25 49 c-49 97 -7 91 -613 93
-293 1 -544 -2 -558 -6z"/>
<path d="M3280 2607 c-40 -20 -68 -72 -75 -140 -3 -34 -5 -282 -3 -552 3 -475
4 -491 24 -536 27 -58 74 -88 140 -91 27 -1 290 0 585 1 503 3 539 4 567 21
48 29 65 72 60 150 -4 69 -2 66 -83 180 -13 19 -36 75 -50 123 -33 113 -84
216 -150 297 -28 36 -71 91 -94 122 -43 59 -116 121 -186 156 -22 11 -69 44
-105 72 -83 67 -141 93 -268 119 -67 13 -125 32 -169 56 -72 38 -145 47 -193
22z"/>
<path d="M17600 2601 c-19 -4 -68 -22 -109 -40 -41 -18 -116 -41 -168 -52
-115 -23 -122 -27 -203 -104 -36 -34 -92 -80 -125 -102 -61 -41 -265 -243
-265 -262 0 -6 -32 -47 -70 -91 -81 -91 -96 -122 -115 -231 -8 -43 -26 -116
-40 -161 -41 -127 -22 -198 62 -239 l48 -24 500 -3 c550 -4 584 -1 635 49 51
52 53 70 51 638 -2 570 -3 576 -58 604 -37 19 -99 27 -143 18z"/>
</g>
</svg>
