<?xml version="1.0" standalone="no"?>
<!DOCTYPE svg PUBLIC "-//W3C//DTD SVG 20010904//EN"
 "http://www.w3.org/TR/2001/REC-SVG-20010904/DTD/svg10.dtd">
<svg version="1.0" xmlns="http://www.w3.org/2000/svg"
 width="262" height="348" viewBox="0 0 262 348"
 preserveAspectRatio="xMidYMid meet">
<metadata>
Created by potrace 1.16, written by Peter Selinger 2001-2019
</metadata>
<g transform="translate(0,348) scale(0.012500,-0.012500)"
fill="#000000" stroke="none">
<path d="M2582 27791 c-33 -54 -71 -78 -182 -116 -104 -36 -156 -64 -219 -119
-33 -28 -82 -64 -108 -81 -42 -26 -54 -42 -98 -132 -57 -116 -76 -139 -131
-158 l-39 -13 -3 -13285 -2 -13285 35 -12 c51 -17 90 -53 126 -118 49 -87 240
-272 326 -315 77 -39 105 -66 128 -120 l15 -37 7969 0 7968 0 17 45 c20 50 32
61 161 145 103 66 212 163 256 226 16 24 54 71 84 106 68 78 88 119 110 228
23 117 48 169 106 226 l49 48 0 12856 -1 12855 -30 30 c-50 49 -95 142 -134
274 -42 144 -49 159 -108 232 -24 30 -62 82 -85 116 -23 34 -56 72 -74 84 -18
13 -67 56 -109 95 -56 53 -88 75 -120 84 -157 43 -177 51 -221 89 -25 22 -51
54 -58 71 l-12 30 -7793 0 -7792 0 -31 -49z m15291 -931 c62 -19 76 -29 167
-117 62 -60 105 -110 115 -135 13 -35 15 -1292 15 -12708 l0 -12669 -21 -58
c-17 -46 -38 -74 -99 -134 -83 -82 -175 -135 -287 -164 -50 -13 -930 -15
-7380 -15 -5495 0 -7329 3 -7345 11 -12 6 -42 26 -67 44 -25 18 -69 44 -98 59
-28 14 -65 43 -82 63 -83 103 -150 202 -160 238 -9 30 -11 3226 -9 12640 3
12033 4 12602 21 12639 9 22 34 59 55 84 20 24 60 74 87 110 52 69 90 97 153
115 68 19 1312 22 8127 19 l6740 -2 68 -20z"/>
<path d="M4955 26520 c-88 -10 -148 -34 -180 -72 -25 -29 -33 -54 -53 -160 -6
-31 -24 -88 -41 -126 -32 -73 -43 -115 -62 -240 -9 -61 -19 -84 -55 -135 -24
-34 -71 -111 -105 -170 -85 -150 -265 -343 -394 -425 -49 -31 -113 -76 -142
-99 -28 -23 -96 -64 -150 -91 -54 -27 -134 -68 -178 -91 -70 -36 -102 -45
-255 -72 -96 -17 -191 -39 -211 -50 -79 -40 -106 -109 -93 -234 5 -45 5 -3752
0 -8490 -9 -9382 -9 -12465 3 -12593 6 -60 4 -118 -6 -187 -28 -208 20 -279
222 -320 43 -9 127 -39 185 -65 70 -32 138 -55 196 -65 102 -20 141 -38 204
-95 25 -22 77 -59 115 -82 39 -23 102 -73 142 -112 39 -39 126 -125 192 -191
77 -76 134 -142 156 -180 19 -33 55 -84 80 -114 63 -73 73 -97 96 -214 10 -56
26 -122 34 -147 8 -25 26 -95 39 -157 14 -62 34 -130 46 -152 27 -53 86 -87
175 -100 48 -7 1826 -10 5560 -8 l5490 2 45 25 c64 36 87 87 101 225 25 257
49 352 117 456 27 41 66 107 87 147 25 49 55 88 87 115 28 23 68 70 91 105 28
45 60 77 108 110 37 26 85 70 106 97 26 33 62 62 102 84 35 18 96 57 137 87
44 31 99 60 132 70 133 39 193 59 289 100 56 23 137 50 180 59 118 26 167 57
201 124 l27 56 3 10750 c2 8198 0 10760 -9 10793 -15 53 -72 105 -132 120 -23
6 -82 16 -132 22 -153 19 -237 46 -409 132 -111 55 -178 96 -214 129 -30 27
-86 68 -125 92 -136 80 -348 310 -432 468 -25 47 -64 108 -87 135 -60 72 -77
118 -99 276 -30 223 -38 259 -69 324 -33 68 -77 105 -150 126 -36 10 -1106 13
-5470 14 -2984 1 -5456 -2 -5495 -6z m10735 -275 c79 -26 120 -83 120 -167 0
-63 -18 -94 -66 -114 -28 -12 -823 -14 -5333 -14 -3778 0 -5315 3 -5351 11
-41 9 -53 17 -66 41 -38 74 48 222 149 254 16 5 2213 8 5264 7 4688 -2 5242
-4 5283 -18z m-6826 -937 c60 -18 128 -90 156 -163 18 -49 21 -75 18 -140 -7
-131 -53 -196 -184 -261 -65 -33 -74 -35 -110 -24 -56 16 -205 119 -227 157
-36 63 -31 217 9 295 22 42 73 97 108 115 64 33 159 42 230 21z m3402 -43 c65
-32 152 -118 177 -175 13 -29 22 -75 25 -127 4 -74 2 -88 -21 -136 -30 -61
-104 -138 -156 -164 -49 -24 -144 -23 -196 2 -55 27 -122 96 -148 153 -18 38
-22 66 -22 142 0 87 3 100 30 149 45 81 177 180 241 181 11 0 42 -11 70 -25z
m-8708 -700 c45 -19 81 -52 94 -85 5 -13 9 -108 9 -210 -1 -102 -2 -4860 -4
-10575 -2 -9839 -3 -10392 -19 -10422 -27 -49 -74 -76 -137 -81 -70 -5 -109
19 -166 102 -37 54 -40 62 -39 124 1 37 5 4790 9 10562 6 9814 8 10497 24
10525 35 64 149 93 229 60z m13804 4 c81 -17 137 -53 159 -104 17 -39 18 -53
9 -132 -15 -131 -14 -20794 1 -20864 16 -73 1 -117 -57 -168 -73 -64 -144 -95
-205 -89 -62 6 -97 31 -126 89 l-23 44 0 10558 c0 9498 1 10560 15 10587 18
36 49 57 107 75 54 17 56 17 120 4z m-2788 -129 c95 -48 139 -91 184 -178 62
-119 63 -139 7 -249 -51 -103 -90 -142 -173 -173 -108 -41 -238 -14 -317 65
-23 23 -57 71 -75 108 -28 58 -32 74 -28 124 6 80 50 175 103 221 53 46 179
112 214 112 14 0 53 -14 85 -30z m-8058 -24 c174 -116 230 -222 189 -361 -13
-48 -28 -70 -78 -120 -86 -84 -140 -109 -242 -109 -93 1 -162 24 -237 79 -93
68 -133 172 -110 282 15 73 52 126 127 181 99 73 149 93 226 90 58 -3 74 -9
125 -42z m3954 -118 c43 -71 68 -272 99 -798 9 -149 24 -198 67 -227 35 -23
98 -22 143 2 19 9 58 39 85 65 29 27 86 65 131 86 54 26 98 57 135 95 31 30
83 75 115 99 33 24 85 65 115 90 66 56 141 103 192 119 77 25 102 -29 51 -106
-70 -103 -134 -184 -204 -258 -41 -44 -95 -109 -119 -145 -24 -36 -80 -103
-123 -149 -142 -150 -169 -222 -107 -274 38 -32 100 -44 270 -51 74 -3 162
-10 195 -15 33 -5 123 -13 200 -16 262 -13 433 -82 397 -160 -14 -31 -48 -48
-158 -79 -111 -32 -247 -46 -534 -55 -204 -6 -229 -9 -267 -29 -104 -54 -94
-148 29 -279 35 -38 83 -103 106 -146 24 -44 73 -110 111 -150 73 -77 169
-220 177 -265 2 -15 1 -33 -4 -40 -14 -20 -73 -17 -118 6 -46 25 -253 195
-284 235 -12 15 -48 46 -79 69 -31 22 -90 75 -131 117 -85 87 -123 108 -207
117 -121 13 -161 -40 -174 -231 -17 -238 -55 -541 -79 -618 -20 -63 -50 -107
-74 -107 -27 0 -63 40 -89 98 -52 116 -98 411 -94 612 1 105 -1 131 -17 163
-24 49 -66 71 -124 64 -56 -6 -87 -29 -137 -103 -22 -32 -59 -72 -83 -89 -24
-16 -76 -60 -115 -96 -40 -36 -108 -89 -152 -119 -44 -29 -100 -70 -125 -91
-57 -46 -103 -70 -140 -71 -83 -3 -80 88 5 183 18 20 57 72 86 115 29 44 76
104 104 134 29 30 71 84 93 120 26 41 66 85 109 120 105 85 136 166 93 238
-35 58 -44 59 -511 60 -444 2 -559 11 -632 49 -60 31 -72 71 -36 117 27 34 79
60 170 86 90 25 466 60 734 69 206 7 226 12 256 67 18 34 16 97 -5 128 -9 14
-47 50 -85 80 -51 41 -78 72 -102 117 -18 33 -56 87 -85 119 -29 33 -71 91
-93 129 -23 38 -63 93 -90 123 -26 29 -58 72 -70 95 -23 46 -28 112 -9 131 35
35 128 -4 233 -100 39 -34 91 -78 115 -97 25 -19 79 -66 120 -105 41 -39 96
-85 122 -103 30 -21 64 -57 92 -101 48 -75 88 -102 151 -102 49 0 91 24 112
63 15 26 18 59 18 192 1 257 37 581 80 731 29 101 104 139 145 72z m-5641
-1854 c68 -20 140 -86 172 -157 19 -42 24 -69 24 -142 0 -110 -18 -149 -102
-225 -121 -108 -199 -133 -285 -89 -96 49 -218 222 -218 309 0 99 103 258 195
301 50 23 143 25 214 3z m11293 -126 c123 -88 148 -126 148 -223 0 -84 -31
-145 -111 -219 -146 -136 -256 -127 -382 29 -85 106 -94 190 -36 312 32 67 84
119 159 159 69 37 100 29 222 -58z m-4119 -2214 c58 -30 214 -182 231 -225 40
-99 7 -210 -91 -308 -70 -69 -117 -92 -198 -99 -99 -7 -137 15 -226 134 -98
130 -102 139 -96 190 8 78 156 257 250 303 51 25 87 26 130 5z m-3095 -116
c40 -10 63 -27 153 -118 115 -115 136 -153 124 -218 -12 -64 -41 -105 -147
-209 -111 -109 -151 -133 -220 -133 -63 1 -107 26 -208 118 -80 74 -92 89
-106 139 -34 117 4 243 98 328 101 91 198 120 306 93z m-2870 -973 c36 -16
221 -193 256 -247 22 -33 23 -115 2 -156 -8 -16 -33 -47 -54 -68 -21 -22 -62
-68 -92 -103 -79 -93 -154 -121 -234 -87 -18 7 -82 64 -142 125 -119 121 -140
161 -128 236 10 60 27 87 87 133 30 23 73 65 97 93 43 51 105 88 148 89 12 0
39 -7 60 -15z m8886 -29 c64 -37 143 -113 174 -165 25 -42 27 -55 27 -147 0
-92 -3 -105 -30 -159 -36 -70 -114 -139 -177 -156 -65 -17 -159 -14 -203 6
-42 20 -185 178 -211 233 -27 58 -15 121 40 202 70 103 155 189 201 206 53 19
126 11 179 -20z m1073 -772 c23 -13 51 -36 63 -51 12 -16 47 -49 78 -76 126
-105 136 -220 29 -313 -25 -21 -68 -67 -96 -100 -28 -34 -66 -69 -85 -78 -75
-35 -168 -10 -222 61 -15 21 -62 70 -103 109 -69 67 -74 74 -79 122 -7 75 21
122 141 239 133 130 175 143 274 87z m-10949 -10 c112 -56 187 -187 187 -329
0 -80 -22 -134 -81 -204 -47 -54 -104 -82 -180 -89 -131 -10 -227 44 -291 165
-41 78 -48 127 -29 202 56 218 235 334 394 255z m6032 -323 c30 -5 113 -17
185 -26 158 -19 154 -18 295 -71 123 -45 180 -61 353 -94 114 -22 188 -53 287
-120 93 -64 123 -109 96 -146 -14 -18 -27 -19 -248 -18 -128 0 -325 2 -438 4
-228 3 -515 -18 -690 -51 -75 -15 -144 -37 -240 -79 -74 -32 -163 -66 -198
-75 -78 -20 -221 -82 -293 -127 -30 -19 -92 -51 -139 -72 -47 -20 -115 -59
-150 -86 -95 -73 -130 -94 -183 -114 -29 -11 -63 -35 -90 -64 -23 -25 -64 -67
-91 -92 -146 -136 -306 -301 -335 -345 -18 -27 -57 -71 -85 -97 -51 -45 -59
-59 -124 -213 -9 -22 -36 -62 -60 -88 -64 -73 -86 -112 -121 -221 -23 -74 -45
-117 -81 -166 -61 -82 -75 -122 -101 -275 -11 -66 -33 -181 -50 -255 -49 -216
-69 -317 -89 -455 -35 -232 -22 -628 25 -781 9 -27 42 -162 74 -299 65 -278
70 -293 129 -384 23 -35 55 -100 73 -145 43 -112 60 -143 114 -205 54 -63 69
-91 101 -183 27 -81 48 -109 117 -161 29 -22 68 -63 87 -91 19 -29 91 -107
160 -174 69 -67 166 -162 215 -211 67 -66 107 -97 155 -119 36 -16 92 -51 125
-76 33 -26 110 -70 171 -100 61 -29 134 -70 162 -90 60 -44 183 -95 302 -126
47 -13 126 -41 175 -63 190 -83 264 -97 650 -118 284 -16 1009 0 1120 25 88
20 200 57 337 112 59 23 129 47 156 53 109 23 242 73 319 120 44 27 127 70
184 95 62 28 128 67 162 95 33 27 89 64 125 82 69 35 199 158 477 450 170 178
264 223 273 131 2 -22 -12 -60 -52 -134 -30 -57 -64 -139 -76 -183 -23 -88
-33 -106 -97 -181 -38 -45 -123 -205 -123 -232 0 -6 -25 -44 -55 -84 -31 -40
-72 -106 -93 -147 -26 -52 -53 -88 -90 -120 -32 -27 -70 -75 -94 -116 -22 -38
-64 -95 -93 -125 -29 -30 -69 -77 -89 -105 -66 -89 -366 -394 -435 -442 -36
-26 -93 -72 -126 -104 -33 -31 -85 -69 -115 -84 -30 -15 -84 -56 -120 -90 -36
-34 -99 -81 -140 -105 -41 -23 -104 -63 -140 -88 -35 -25 -105 -63 -155 -82
-49 -20 -128 -61 -175 -90 -67 -42 -122 -65 -265 -111 -99 -33 -205 -73 -235
-90 -91 -51 -156 -69 -340 -89 -96 -11 -245 -34 -330 -51 -241 -47 -348 -59
-555 -59 -271 0 -505 22 -630 58 -73 22 -149 34 -283 46 -231 22 -299 39 -442
115 -97 50 -131 63 -210 77 -112 19 -138 31 -206 94 -60 56 -112 85 -174 94
-87 13 -138 36 -201 93 -55 49 -165 113 -195 113 -5 0 -37 22 -70 49 -34 26
-103 77 -155 112 -52 34 -128 93 -169 131 -121 109 -288 268 -349 333 -31 32
-93 95 -137 140 -45 44 -95 100 -112 125 -16 25 -54 72 -83 105 -32 37 -69 96
-95 151 -29 63 -61 113 -103 159 -36 40 -75 97 -96 140 -19 41 -59 110 -89
154 -40 58 -63 107 -86 178 -16 54 -49 132 -72 173 -79 144 -97 186 -112 270
-9 47 -21 111 -27 143 -5 32 -28 100 -50 150 -42 94 -83 266 -110 457 -22 151
-19 1071 4 1250 36 282 44 317 102 440 49 104 56 127 70 235 21 155 40 212
108 319 39 61 67 122 91 198 27 84 48 126 85 177 27 36 65 100 86 141 21 41
61 103 90 137 30 35 73 100 97 144 24 45 67 109 97 143 30 33 74 87 97 118 56
76 454 469 524 518 30 20 83 63 118 94 65 58 108 84 177 106 59 19 108 53 150
104 27 33 63 58 138 97 56 29 131 71 167 94 36 23 121 63 190 90 69 26 168 69
220 95 107 53 174 75 278 90 70 10 139 31 347 104 119 42 237 64 411 75 169
12 1133 5 1204 -8z m4215 -8026 c66 -31 169 -143 195 -211 31 -83 25 -198 -14
-277 -56 -115 -178 -187 -318 -187 -78 0 -123 22 -162 79 -17 24 -59 76 -94
115 -84 94 -99 156 -56 236 24 45 238 258 264 263 49 10 145 1 185 -18z
m-9483 -11 c55 -18 137 -97 205 -196 45 -65 48 -74 48 -132 0 -60 -3 -67 -63
-158 -72 -109 -102 -141 -154 -162 -44 -19 -192 -21 -253 -5 -54 15 -130 95
-175 184 -46 90 -48 161 -7 249 89 192 239 275 399 220z m3227 -1688 c64 -23
108 -60 135 -114 52 -104 60 -269 16 -369 -26 -62 -110 -145 -174 -174 -24
-10 -71 -22 -105 -25 -97 -11 -128 7 -258 145 -62 66 -117 131 -123 146 -26
69 -4 142 68 220 26 29 70 79 99 112 30 35 65 64 85 71 44 15 201 8 257 -12z
m3068 -32 c107 -51 215 -217 217 -334 1 -48 -6 -71 -41 -142 -79 -160 -135
-193 -323 -193 -149 0 -143 -5 -317 249 -57 84 -42 140 80 291 79 99 136 144
194 156 57 11 132 1 190 -27z m4053 -1670 c64 -34 112 -97 136 -182 20 -67 14
-114 -25 -190 -58 -115 -135 -162 -261 -162 -128 0 -211 43 -255 133 -71 148
-21 332 109 399 65 33 86 38 166 35 61 -3 86 -9 130 -33z m-5686 -34 c14 -17
30 -48 35 -68 16 -59 32 -222 41 -422 12 -279 46 -447 98 -486 56 -43 207 23
341 150 47 45 118 102 156 127 39 25 95 67 125 93 70 60 158 105 220 113 42 5
49 3 54 -15 16 -49 -29 -142 -120 -249 -37 -43 -86 -107 -110 -143 -24 -36
-77 -95 -118 -133 -116 -104 -173 -234 -130 -295 20 -29 46 -39 132 -52 37 -6
112 -22 167 -35 105 -26 386 -69 519 -80 87 -7 152 -28 166 -56 16 -30 11 -64
-13 -87 -22 -21 -120 -52 -165 -52 -12 0 -78 -11 -145 -25 -67 -13 -217 -35
-333 -48 -137 -16 -223 -31 -248 -42 -104 -49 -82 -175 51 -293 48 -43 81 -83
108 -132 21 -38 62 -98 91 -132 30 -35 72 -101 94 -147 22 -45 54 -103 70
-126 17 -24 30 -55 30 -69 0 -102 -299 95 -599 394 -68 68 -105 96 -178 133
-108 56 -141 59 -176 17 -37 -43 -45 -79 -52 -240 -3 -80 -13 -183 -21 -230
-8 -47 -19 -186 -24 -310 -6 -124 -13 -237 -16 -252 -16 -69 -87 -100 -133
-57 -29 27 -40 57 -56 149 -8 41 -19 97 -25 123 -22 98 -42 308 -49 507 -9
268 -24 300 -134 300 -67 -1 -116 -30 -195 -117 -52 -58 -91 -90 -143 -119
-40 -21 -99 -63 -131 -92 -33 -29 -102 -74 -156 -101 -53 -27 -112 -57 -130
-66 -38 -20 -62 -8 -62 30 0 55 117 237 236 366 47 51 93 103 101 116 9 13 44
46 79 74 103 82 143 174 110 252 -26 64 -70 76 -309 87 -111 5 -231 16 -267
25 -36 8 -135 20 -220 26 -85 6 -171 15 -191 20 -56 14 -89 45 -89 83 0 57 41
80 177 100 54 8 136 22 183 30 90 16 217 30 415 47 227 18 285 50 285 157 0
72 -27 127 -86 172 -24 19 -65 62 -91 95 -25 33 -68 83 -94 110 -26 28 -91
104 -145 170 -152 188 -190 295 -108 303 23 2 43 -6 80 -36 27 -21 76 -56 109
-77 33 -22 94 -71 135 -111 46 -44 102 -85 145 -107 48 -24 92 -58 140 -107
80 -82 134 -122 187 -139 71 -23 126 23 142 119 3 19 11 141 16 270 11 248 37
468 65 538 34 84 111 109 159 52z m-5597 -1 c99 -48 160 -174 151 -315 -4 -58
-11 -82 -31 -114 -30 -44 -104 -91 -184 -117 -48 -15 -55 -15 -96 1 -66 25
-178 106 -202 146 -16 28 -20 52 -20 120 0 76 3 91 30 139 33 60 91 114 150
142 56 26 146 25 202 -2z m1573 -2669 c21 -11 56 -40 77 -65 21 -25 63 -66 94
-90 73 -57 92 -98 87 -180 l-4 -63 -108 -113 c-122 -128 -144 -145 -196 -154
-60 -10 -119 16 -170 77 -25 29 -71 78 -104 108 -71 68 -86 95 -86 160 0 66
21 110 74 153 23 19 68 62 100 95 32 34 73 68 90 76 43 21 99 20 146 -4z
m8166 -9 c25 -12 65 -47 104 -92 116 -135 143 -194 120 -266 -15 -47 -103
-164 -169 -226 -56 -52 -90 -62 -187 -54 -108 8 -212 92 -254 204 -25 67 -26
171 -3 239 22 65 129 174 193 197 62 21 146 21 196 -2z m-2302 -1116 c83 -40
132 -118 143 -228 16 -172 -72 -267 -246 -267 -86 0 -127 10 -183 44 -70 41
-98 92 -105 189 -11 139 39 234 144 273 52 20 196 13 247 -11z m-3489 -12 c46
-24 125 -104 150 -153 37 -72 30 -186 -17 -245 -55 -71 -235 -115 -339 -83
-82 24 -159 123 -175 225 -12 76 77 225 159 267 45 23 167 17 222 -11z m-205
-744 c250 -5 3501 -3 3705 2 94 2 879 3 1745 4 1498 0 1577 -1 1622 -18 81
-32 139 -124 123 -197 -9 -42 -65 -86 -125 -99 -37 -8 -1497 -11 -5290 -11
-5606 0 -5271 -3 -5345 46 -54 35 -69 108 -39 184 19 46 56 77 108 87 34 7
3096 9 3496 2z"/>
<path d="M3168 26503 c-41 -17 -66 -40 -85 -77 -13 -25 -16 -110 -19 -540 -2
-281 -4 -537 -5 -568 -2 -104 54 -158 164 -158 69 0 113 17 181 69 28 22 74
46 101 54 173 51 196 60 261 106 134 94 274 234 362 362 28 41 74 103 102 139
57 74 75 122 89 235 6 44 19 107 31 139 43 125 17 206 -75 238 -45 16 -101 17
-562 16 -407 -1 -519 -5 -545 -15z"/>
<path d="M16510 26498 c-58 -30 -80 -73 -80 -153 0 -83 42 -222 98 -325 25
-47 65 -123 88 -170 32 -66 63 -109 140 -192 55 -59 122 -123 149 -144 28 -20
77 -63 110 -94 72 -69 96 -82 198 -104 60 -14 94 -28 145 -64 95 -65 151 -85
247 -86 97 -1 135 17 167 82 18 39 20 53 12 115 -4 40 -8 198 -9 352 -1 206
-5 306 -17 377 -13 77 -14 113 -6 170 20 144 -15 211 -125 243 -55 16 -245 17
-827 3 -36 -1 -105 2 -155 6 -83 7 -94 6 -135 -16z"/>
<path d="M3114 2594 c-16 -8 -38 -29 -49 -46 -17 -30 -18 -63 -18 -572 0 -298
3 -552 8 -566 4 -14 21 -40 38 -58 56 -58 75 -60 637 -58 476 1 507 2 544 20
90 45 99 130 35 337 -31 104 -58 165 -116 269 -69 123 -86 145 -192 251 -64
63 -142 134 -173 157 -31 23 -70 58 -85 77 -50 63 -92 84 -204 104 -75 14
-128 30 -188 60 -71 34 -95 41 -145 41 -34 0 -75 -7 -92 -16z"/>
<path d="M17595 2584 c-355 -84 -412 -104 -512 -178 -32 -23 -87 -57 -122 -76
-39 -21 -77 -52 -100 -80 -20 -25 -73 -81 -118 -125 -71 -69 -88 -93 -123
-169 -22 -49 -56 -110 -75 -136 -69 -94 -115 -235 -115 -352 0 -79 24 -123 85
-153 38 -19 60 -20 555 -20 469 0 519 2 561 18 100 38 127 103 105 250 -12 79
-12 111 -1 203 7 60 15 248 19 417 6 327 5 338 -41 379 -19 18 -84 30 -118 22z"/>
</g>
</svg>
