<?xml version="1.0" standalone="no"?>
<!DOCTYPE svg PUBLIC "-//W3C//DTD SVG 20010904//EN"
 "http://www.w3.org/TR/2001/REC-SVG-20010904/DTD/svg10.dtd">
<svg version="1.0" xmlns="http://www.w3.org/2000/svg"
 width="262" height="348" viewBox="0 0 262 348"
 preserveAspectRatio="xMidYMid meet">
<metadata>
Created by potrace 1.16, written by Peter Selinger 2001-2019
</metadata>
<g transform="translate(0,348) scale(0.012500,-0.012500)"
fill="#000000" stroke="none">
<path d="M2588 27782 c-31 -67 -69 -93 -163 -112 -83 -17 -106 -31 -162 -97
-26 -32 -61 -69 -78 -83 -66 -55 -94 -95 -125 -175 -34 -91 -63 -125 -125
-145 l-35 -12 0 -13212 0 -13213 40 -12 c60 -18 94 -54 152 -159 60 -109 127
-183 253 -278 103 -78 153 -106 245 -140 60 -22 87 -39 133 -86 l59 -58 7688
0 7688 0 22 35 c29 47 96 91 182 121 39 13 85 32 102 42 68 40 237 185 273
234 21 29 58 75 82 103 24 27 62 88 84 135 44 96 75 135 124 151 l33 11 0
13113 0 13113 -31 12 c-52 22 -88 68 -149 191 -61 121 -174 271 -242 322 -18
13 -84 50 -145 82 -114 57 -143 83 -164 145 l-11 30 -7851 0 -7852 0 -27 -58z
m15316 -889 c44 -26 96 -61 114 -77 32 -28 100 -149 128 -229 12 -33 14 -1983
14 -12613 l0 -12573 -30 -94 c-48 -150 -135 -264 -236 -308 -42 -19 -191 -19
-7421 -19 -4058 0 -7394 4 -7413 9 -19 4 -52 16 -72 25 -47 23 -211 208 -241
273 l-22 48 -3 12604 c-1 8431 1 12616 8 12640 9 31 60 108 146 219 34 43 53
55 175 105 l104 42 7334 -2 7334 -3 81 -47z"/>
<path d="M5012 26541 c-98 -34 -142 -99 -157 -233 -4 -39 -22 -89 -54 -155
-30 -60 -57 -134 -70 -191 -24 -105 -38 -137 -121 -263 -33 -50 -74 -118 -92
-151 -18 -33 -62 -92 -99 -132 -173 -184 -376 -322 -609 -413 -80 -31 -170
-69 -201 -84 -56 -28 -125 -43 -249 -54 -85 -8 -137 -37 -170 -95 l-25 -45 -3
-10774 -2 -10775 21 -43 c38 -79 75 -93 304 -118 168 -18 207 -30 420 -135
121 -58 182 -95 232 -138 37 -32 86 -71 108 -85 65 -44 259 -257 311 -342 26
-42 61 -99 79 -125 18 -27 45 -81 60 -122 15 -40 48 -129 75 -198 26 -69 58
-168 70 -220 56 -243 85 -294 177 -321 41 -12 862 -14 5298 -13 2888 0 5329 3
5425 6 193 7 233 16 267 64 28 39 40 89 53 215 13 133 29 185 81 274 23 39 59
124 80 191 36 109 45 128 98 188 31 37 82 108 112 158 92 154 310 333 580 476
170 90 247 115 407 132 275 29 278 30 326 94 l21 27 0 10782 c0 10444 -1
10783 -18 10830 -29 73 -69 98 -175 109 -178 19 -236 34 -369 96 -70 33 -153
68 -183 77 -167 52 -484 302 -608 480 -31 44 -70 98 -87 121 -17 22 -46 80
-64 130 -18 49 -59 143 -91 209 -73 150 -86 191 -105 318 -9 56 -20 117 -26
135 -15 45 -56 92 -99 111 -32 15 -491 16 -5455 18 -5245 2 -5422 2 -5473 -16z
m10621 -263 c49 -10 99 -44 118 -80 6 -10 19 -70 29 -133 22 -129 52 -214 114
-330 25 -44 63 -122 85 -173 49 -110 203 -323 302 -418 35 -33 87 -85 115
-116 27 -31 68 -65 90 -76 21 -11 73 -45 114 -76 90 -67 179 -114 280 -151 41
-14 131 -53 200 -85 99 -47 142 -62 205 -70 112 -16 158 -40 187 -98 l23 -47
0 -10465 c0 -10100 -1 -10467 -18 -10512 -24 -63 -63 -94 -134 -108 -98 -19
-312 -71 -354 -85 -22 -8 -82 -39 -132 -68 -51 -30 -130 -73 -177 -95 -233
-111 -632 -541 -721 -778 -18 -48 -55 -120 -82 -161 -65 -99 -73 -120 -96
-262 -12 -67 -31 -144 -42 -172 -26 -59 -74 -104 -128 -119 -27 -7 -1603 -10
-5170 -10 -5103 0 -5131 0 -5170 19 -51 27 -75 67 -100 173 -12 50 -41 129
-69 185 -27 54 -57 123 -67 153 -43 136 -91 230 -199 393 -93 139 -132 189
-209 262 -52 50 -127 122 -167 160 -107 102 -135 122 -208 146 -37 12 -107 50
-160 86 -152 103 -141 99 -400 143 -156 27 -190 48 -232 142 l-20 47 0 10458
c0 6487 3 10470 9 10490 13 46 47 91 82 109 17 8 71 19 122 23 103 10 129 18
193 62 56 38 150 81 229 104 77 22 94 31 190 102 44 33 117 79 163 103 67 34
95 57 149 119 37 42 93 103 123 136 31 33 78 101 105 150 26 50 63 108 80 130
58 72 87 127 121 227 18 54 53 131 78 171 57 92 65 113 81 221 15 97 31 129
86 161 34 20 57 20 5089 25 2780 3 5098 4 5150 2 52 -2 117 -8 143 -14z"/>
<path d="M5583 25976 c-62 -20 -95 -48 -150 -128 -63 -91 -97 -158 -112 -223
-32 -134 -41 -154 -102 -222 -38 -44 -76 -100 -103 -158 -33 -69 -70 -122
-155 -223 -62 -72 -137 -153 -168 -179 -31 -27 -88 -76 -126 -111 -44 -38
-102 -77 -153 -101 -52 -25 -104 -60 -145 -99 -77 -71 -100 -84 -246 -133
-113 -38 -257 -115 -300 -161 -12 -13 -29 -40 -38 -61 -14 -33 -15 -1005 -15
-10059 0 -7370 -3 -10063 -11 -10173 -13 -164 -7 -205 33 -265 30 -44 82 -69
165 -81 78 -11 156 -44 216 -92 61 -49 82 -60 187 -100 76 -29 105 -46 140
-83 25 -25 77 -68 117 -95 39 -27 91 -72 115 -100 24 -28 69 -71 101 -96 31
-24 75 -70 96 -101 21 -31 65 -82 98 -112 34 -33 72 -81 92 -120 19 -36 60
-103 91 -150 38 -56 72 -125 100 -200 58 -158 153 -342 195 -379 58 -51 149
-64 251 -37 44 11 795 13 4740 9 2879 -2 4703 -8 4724 -13 50 -14 115 -12 153
4 52 21 83 67 102 147 19 86 30 108 95 194 37 48 56 88 76 153 35 114 44 130
109 203 31 34 72 89 92 123 92 152 355 426 447 466 25 10 83 54 129 97 63 59
100 85 153 107 38 16 106 51 151 78 97 58 163 82 279 102 87 15 128 38 155 88
6 11 9 3980 9 10239 l0 10222 -25 43 c-14 23 -37 51 -53 61 -37 26 -209 105
-362 168 -86 35 -149 68 -200 106 -41 31 -106 74 -144 95 -39 21 -102 69 -142
108 -39 39 -98 96 -130 127 -146 140 -236 242 -300 337 -98 148 -110 168 -145
252 -17 41 -55 118 -84 170 -29 52 -68 133 -85 178 -31 81 -73 142 -111 163
-13 6 -1655 11 -4806 14 -2634 3 -4826 7 -4873 10 -56 3 -99 0 -127 -9z m4982
-6274 c16 -10 59 -56 95 -103 36 -46 94 -114 130 -150 85 -85 185 -201 217
-253 63 -99 78 -118 125 -153 28 -21 67 -67 90 -103 23 -36 65 -90 94 -120 37
-39 66 -86 102 -162 28 -59 71 -134 97 -167 26 -35 64 -105 89 -164 23 -58 57
-129 75 -158 61 -104 80 -155 101 -274 14 -78 33 -146 55 -195 18 -41 43 -120
55 -174 22 -95 25 -102 74 -151 37 -37 69 -57 116 -75 36 -13 126 -54 202 -91
102 -50 154 -70 210 -79 119 -19 187 -40 288 -90 52 -26 142 -62 200 -80 58
-18 131 -45 162 -61 164 -82 250 18 218 254 -18 130 -66 357 -88 412 -24 63
-65 235 -92 389 -22 123 -41 170 -105 260 -19 26 -44 80 -56 120 -38 131 -62
188 -111 263 -27 41 -73 123 -103 182 -40 81 -72 128 -129 190 -85 92 -161
209 -182 276 -16 55 -6 90 31 107 68 31 247 -78 437 -265 74 -72 150 -154 168
-182 19 -27 57 -78 85 -112 33 -41 59 -85 74 -130 36 -104 68 -163 117 -215
55 -59 69 -91 93 -212 12 -59 39 -138 71 -210 64 -146 94 -276 115 -506 20
-229 31 -318 57 -475 20 -125 21 -132 5 -210 -20 -93 -21 -159 -4 -197 15 -35
152 -188 194 -217 18 -13 66 -33 107 -46 77 -24 142 -62 186 -110 14 -15 60
-47 102 -72 51 -29 95 -65 130 -105 41 -48 69 -69 133 -99 85 -41 149 -97 254
-226 61 -74 86 -93 124 -93 38 0 91 53 106 105 6 22 18 101 26 175 9 74 22
185 30 245 10 71 16 211 18 395 2 279 1 290 -31 495 -60 387 -62 394 -143 528
-27 44 -54 99 -60 121 -22 88 -33 109 -95 193 -69 92 -81 137 -47 175 20 22
54 23 163 2 180 -34 209 -59 338 -282 96 -166 108 -194 128 -322 8 -52 37
-160 64 -240 74 -217 81 -273 87 -652 6 -366 -4 -537 -43 -725 -55 -266 -105
-537 -128 -690 -17 -116 -30 -172 -45 -197 -38 -61 -124 -84 -188 -48 -17 9
-81 71 -143 137 -62 66 -174 180 -249 252 -75 73 -172 168 -216 211 -44 44
-105 94 -135 112 -30 18 -81 59 -112 91 -43 44 -80 69 -150 103 -55 26 -119
67 -157 100 -35 30 -96 71 -135 91 -38 20 -93 57 -120 82 -56 50 -95 72 -176
98 -85 27 -121 49 -175 105 -61 63 -103 85 -175 95 -76 10 -131 36 -202 95
-81 67 -95 74 -215 99 -129 28 -178 45 -327 116 -75 35 -152 64 -205 75 -99
22 -199 51 -396 115 -136 44 -178 52 -480 90 -66 8 -164 21 -218 29 -205 30
-397 38 -782 33 -381 -5 -458 -10 -790 -56 -77 -11 -194 -27 -260 -36 -82 -11
-168 -32 -270 -65 -82 -27 -197 -61 -255 -75 -204 -50 -226 -57 -362 -121
-125 -58 -296 -114 -352 -114 -36 -1 -100 -35 -154 -84 -67 -58 -98 -74 -184
-92 -87 -18 -136 -43 -213 -107 -65 -54 -118 -81 -180 -93 -62 -11 -105 -37
-170 -104 -44 -45 -84 -74 -148 -106 -49 -24 -117 -68 -153 -97 -42 -35 -83
-59 -121 -71 -50 -15 -69 -30 -138 -101 -44 -45 -96 -93 -115 -105 -19 -13
-64 -51 -100 -85 -36 -34 -96 -86 -135 -115 -108 -83 -310 -277 -369 -355
-103 -136 -151 -170 -228 -163 -87 9 -119 56 -133 198 -9 88 -40 207 -80 310
-18 47 -38 103 -44 125 -13 48 -46 355 -61 580 -13 197 1 711 24 865 28 185
35 212 85 319 40 85 54 130 71 224 11 65 30 137 42 160 43 86 199 306 234 334
35 26 45 28 143 31 96 3 109 2 134 -18 35 -28 35 -67 1 -140 -14 -30 -41 -89
-58 -130 -18 -41 -53 -106 -78 -143 -61 -89 -83 -149 -103 -287 -9 -63 -34
-186 -56 -273 -67 -267 -90 -507 -70 -732 13 -151 74 -482 95 -523 23 -45 60
-66 116 -65 74 1 128 31 200 112 52 57 82 80 152 117 49 25 115 69 148 98 33
29 88 67 124 84 42 20 87 54 132 99 38 37 100 86 138 108 84 48 173 129 215
193 50 78 61 143 61 353 0 241 21 379 90 594 28 89 62 247 76 355 9 74 28 124
74 195 50 77 65 112 90 210 22 83 44 128 121 242 25 37 61 104 79 148 24 55
51 97 91 140 31 33 77 89 102 124 25 35 70 84 99 110 30 25 80 74 112 108 98
104 307 194 345 149 37 -45 -9 -168 -108 -291 -36 -44 -87 -118 -114 -164 -27
-47 -71 -110 -99 -140 -62 -70 -80 -105 -111 -214 -17 -61 -40 -111 -75 -165
-67 -102 -85 -144 -127 -303 -22 -83 -50 -159 -72 -199 -85 -152 -90 -173
-122 -485 -12 -110 -26 -242 -31 -293 -12 -110 -2 -161 37 -191 46 -37 134
-25 218 27 22 14 77 40 123 58 46 18 114 51 150 72 37 22 87 46 112 55 46 15
245 61 311 72 20 3 73 23 118 45 46 22 124 52 174 66 117 34 152 52 203 106
61 65 62 67 89 173 14 54 39 129 55 165 16 38 36 110 45 163 19 120 34 160 84
239 23 34 49 85 59 113 10 27 31 84 46 125 18 52 45 98 85 148 32 41 71 104
87 140 35 85 66 135 120 195 23 26 58 76 78 110 21 38 60 85 100 120 41 36 77
79 96 116 60 112 450 544 501 554 38 8 101 -2 134 -21z m55 -3023 c36 -5 157
-14 270 -18 186 -8 215 -12 310 -40 119 -35 235 -56 360 -66 151 -11 211 -25
364 -84 86 -33 219 -74 309 -96 139 -33 166 -43 240 -88 121 -74 165 -94 237
-107 90 -16 117 -29 185 -90 75 -65 100 -78 188 -96 94 -20 122 -34 199 -100
35 -31 100 -73 147 -95 46 -22 104 -57 130 -79 25 -21 84 -57 131 -80 56 -28
107 -64 150 -105 36 -34 92 -80 125 -102 34 -23 78 -63 100 -89 48 -61 69 -79
126 -109 26 -13 69 -50 95 -81 27 -32 73 -72 102 -91 66 -42 233 -210 281
-282 21 -32 56 -66 88 -87 32 -20 64 -52 81 -79 15 -24 38 -62 51 -84 13 -22
44 -55 69 -73 25 -18 58 -57 75 -87 17 -30 56 -82 87 -115 32 -34 82 -97 112
-141 30 -44 69 -100 86 -125 34 -47 49 -102 39 -142 -4 -13 -28 -51 -55 -85
-27 -34 -64 -86 -81 -117 -18 -31 -54 -80 -80 -108 -27 -29 -67 -84 -91 -123
-23 -38 -66 -97 -95 -130 -28 -33 -73 -89 -99 -125 -62 -84 -479 -495 -576
-567 -41 -31 -102 -82 -135 -113 -33 -32 -85 -70 -115 -85 -30 -15 -82 -53
-115 -85 -33 -32 -88 -72 -123 -89 -35 -18 -97 -63 -138 -101 -52 -48 -99 -81
-157 -108 -45 -22 -107 -58 -137 -81 -30 -24 -97 -62 -148 -86 -52 -25 -120
-62 -151 -84 -77 -52 -123 -74 -207 -99 -39 -12 -132 -53 -207 -92 -129 -66
-200 -91 -349 -120 -32 -6 -111 -38 -177 -71 -135 -67 -192 -84 -341 -99 -118
-12 -140 -17 -295 -66 -68 -22 -157 -40 -235 -50 -69 -8 -152 -19 -185 -25
-61 -11 -280 -23 -625 -35 -152 -5 -225 -2 -330 10 -74 9 -200 23 -280 31
-183 18 -215 24 -380 74 -74 23 -191 50 -260 62 -206 33 -260 48 -375 104 -78
38 -142 61 -223 79 -90 20 -135 38 -225 85 -62 33 -166 78 -231 101 -88 30
-144 56 -208 99 -48 32 -123 73 -167 90 -49 21 -100 51 -137 83 -34 28 -102
70 -159 97 -74 35 -119 65 -172 114 -40 37 -98 80 -130 96 -32 16 -80 53 -108
81 -27 28 -81 70 -120 93 -38 22 -95 64 -125 92 -30 28 -80 69 -110 92 -210
157 -699 683 -777 836 -14 29 -56 84 -93 122 -37 39 -80 92 -96 120 -15 27
-52 76 -81 108 -84 94 -92 170 -27 250 19 23 55 71 82 107 26 36 79 98 119
139 40 41 86 101 103 133 18 33 51 81 75 108 24 27 68 82 98 122 57 77 355
381 497 509 47 41 117 96 155 121 39 26 85 65 103 87 20 25 58 54 95 73 37 18
93 60 137 104 42 40 108 91 150 115 41 23 93 56 115 74 56 44 84 60 130 75 71
23 118 52 180 110 68 65 95 81 180 105 76 22 115 43 190 99 59 45 126 72 235
96 63 14 95 29 205 93 59 34 111 54 195 76 63 16 156 44 205 61 250 88 301
102 450 121 174 22 266 40 385 76 72 22 108 26 235 29 83 2 204 10 270 17 146
18 317 20 405 6z m-4839 -3787 c27 -18 67 -61 104 -112 68 -95 270 -312 360
-387 33 -28 76 -67 95 -88 19 -20 78 -70 130 -110 52 -40 113 -92 135 -115 22
-23 67 -60 100 -83 33 -23 92 -73 130 -112 52 -53 82 -75 115 -85 65 -20 96
-36 175 -95 38 -29 106 -71 150 -93 44 -22 107 -62 141 -89 63 -50 81 -59 218
-113 44 -17 107 -50 140 -74 80 -57 101 -67 231 -111 61 -20 180 -70 265 -110
143 -68 166 -75 297 -99 151 -27 196 -42 321 -105 102 -51 135 -59 289 -71 70
-6 223 -26 338 -46 354 -61 521 -76 890 -81 167 -3 337 0 400 6 61 6 180 16
265 21 89 5 208 20 280 35 173 35 348 63 455 70 126 10 166 20 277 70 110 51
235 89 358 110 65 12 116 30 220 80 74 35 190 85 257 109 141 52 186 74 254
122 26 20 101 58 166 86 71 30 146 71 188 103 39 29 104 69 146 89 41 21 108
64 147 96 40 32 97 68 127 79 95 36 128 57 177 114 26 31 74 70 105 88 32 18
92 65 133 104 41 40 96 86 121 103 25 17 79 61 120 99 41 38 94 84 119 103 25
18 72 59 105 90 33 31 80 73 105 93 25 21 70 72 101 115 75 104 123 137 199
137 107 0 129 -43 171 -333 16 -114 46 -268 65 -342 20 -74 42 -160 50 -190
25 -97 47 -566 39 -848 -8 -336 -16 -394 -70 -549 -27 -76 -56 -184 -71 -266
-30 -170 -48 -217 -114 -310 -28 -39 -69 -100 -90 -134 -30 -48 -61 -78 -135
-134 -131 -96 -172 -119 -221 -119 -30 0 -48 7 -69 26 -25 23 -27 30 -23 82 3
48 12 70 52 132 61 93 101 172 126 246 11 32 39 86 61 121 52 79 75 154 84
268 4 50 15 142 25 205 49 307 29 1203 -30 1337 -50 114 -165 100 -252 -31
-59 -88 -74 -103 -163 -161 -45 -28 -104 -72 -132 -98 -29 -25 -84 -64 -123
-88 -40 -24 -90 -64 -116 -94 -30 -36 -68 -65 -117 -91 -43 -22 -94 -61 -127
-94 -30 -32 -75 -71 -100 -88 -58 -39 -106 -89 -121 -127 -6 -16 -17 -91 -24
-165 -14 -149 -43 -372 -81 -610 -13 -85 -33 -217 -44 -293 -28 -193 -36 -221
-95 -306 -63 -93 -70 -112 -90 -229 -17 -101 -27 -126 -90 -218 -23 -34 -58
-101 -79 -150 -40 -93 -59 -123 -121 -189 -20 -22 -56 -67 -79 -101 -22 -33
-69 -84 -103 -112 -34 -29 -76 -72 -92 -96 -17 -24 -50 -59 -73 -77 -24 -19
-80 -69 -126 -111 -165 -156 -312 -185 -312 -63 0 45 24 83 91 143 46 42 68
73 99 137 22 46 60 107 86 136 26 30 68 99 95 154 26 55 72 135 103 178 54 78
79 137 130 309 18 58 42 110 73 155 63 92 69 111 99 280 26 153 64 304 108
431 38 110 76 291 76 361 0 119 -43 171 -142 171 -70 0 -98 -13 -158 -75 -59
-61 -81 -72 -193 -94 -98 -20 -189 -52 -297 -106 -101 -51 -188 -73 -365 -94
-90 -11 -177 -27 -192 -35 -38 -20 -87 -73 -111 -121 -47 -96 -112 -289 -131
-391 -26 -139 -44 -191 -110 -322 -29 -57 -64 -136 -78 -175 -28 -79 -39 -98
-96 -172 -22 -27 -61 -94 -89 -148 -34 -69 -66 -115 -103 -152 -29 -29 -69
-77 -88 -107 -19 -29 -60 -78 -92 -108 -31 -30 -73 -80 -92 -110 -37 -57 -81
-107 -338 -381 -155 -166 -198 -199 -260 -199 -54 0 -81 19 -190 132 -307 319
-436 475 -503 608 -36 74 -61 108 -110 155 -44 41 -75 82 -99 130 -19 39 -54
97 -78 130 -53 76 -72 112 -101 199 -14 39 -51 118 -83 176 -64 116 -77 149
-120 327 -16 67 -50 166 -74 220 -25 54 -50 116 -57 138 -29 93 -71 154 -124
182 -16 8 -92 23 -170 33 -149 20 -191 32 -321 98 -54 28 -133 54 -245 83
-182 46 -212 58 -289 119 -124 98 -276 117 -316 40 -19 -37 -19 -136 -1 -249
8 -47 19 -149 25 -226 12 -167 32 -251 99 -410 34 -80 61 -168 82 -264 31
-145 52 -197 115 -284 21 -30 47 -87 66 -150 36 -118 54 -156 105 -223 20 -26
59 -92 85 -146 37 -74 66 -116 128 -181 156 -166 210 -262 176 -313 -18 -28
-66 -31 -155 -10 -78 19 -113 39 -194 113 -148 136 -190 180 -254 263 -37 47
-84 105 -105 130 -22 25 -60 88 -86 140 -26 52 -70 125 -98 162 -28 37 -54 82
-58 100 -23 108 -61 210 -105 284 -62 105 -81 162 -115 338 -16 84 -42 178
-64 235 -47 117 -55 151 -87 366 -18 116 -28 238 -33 385 -8 253 -14 271 -110
346 -32 25 -73 65 -90 90 -35 48 -89 83 -167 108 -30 10 -74 37 -110 67 -32
28 -102 79 -154 114 -52 34 -115 84 -140 110 -25 25 -67 63 -93 82 -28 20 -69
67 -95 106 -57 86 -111 119 -197 121 -44 0 -59 -4 -80 -24 -39 -37 -42 -43
-75 -211 -46 -238 -52 -327 -48 -724 l5 -360 45 -155 c25 -86 53 -201 62 -255
33 -196 54 -253 124 -342 50 -63 72 -106 106 -210 35 -105 36 -141 6 -165 -46
-37 -124 -17 -237 60 -73 50 -126 105 -198 207 -76 106 -81 118 -114 245 -16
60 -49 153 -74 207 -82 180 -92 284 -91 948 1 286 6 558 12 605 32 267 56 421
74 470 82 225 89 251 98 354 5 58 16 119 25 135 34 66 129 81 206 33z"/>
<path d="M10395 16004 c-110 -17 -358 -72 -450 -99 -60 -18 -146 -41 -190 -50
-117 -25 -173 -49 -235 -100 -30 -25 -94 -66 -141 -91 -47 -24 -117 -70 -155
-102 -38 -32 -91 -73 -119 -92 -66 -44 -109 -84 -155 -146 -21 -28 -63 -79
-93 -113 -29 -34 -75 -100 -100 -146 -26 -46 -72 -114 -103 -152 -68 -82 -83
-114 -119 -263 -15 -63 -36 -137 -46 -165 -30 -83 -96 -325 -110 -405 -7 -41
-13 -133 -13 -205 1 -112 6 -154 38 -300 21 -93 46 -195 57 -225 11 -30 37
-118 58 -195 40 -149 64 -205 109 -257 52 -61 73 -97 98 -170 13 -39 31 -82
40 -95 14 -23 199 -210 295 -299 24 -22 63 -62 87 -88 25 -28 64 -57 96 -71
29 -13 80 -47 112 -75 68 -59 162 -107 284 -144 47 -14 126 -49 175 -78 112
-64 158 -78 255 -78 42 0 148 -7 236 -16 165 -17 199 -16 525 10 187 15 199
19 364 99 39 18 135 56 214 82 131 45 149 54 200 101 31 28 87 70 125 94 125
76 431 382 494 493 17 30 53 80 80 111 62 70 77 102 114 235 16 58 52 155 80
216 94 202 117 394 100 810 -12 268 -25 335 -102 507 -22 47 -51 128 -65 179
-32 113 -54 156 -117 234 -27 33 -67 98 -89 145 -31 64 -58 103 -113 160 -40
41 -87 95 -104 119 -32 45 -62 69 -120 98 -18 9 -56 42 -83 73 -50 58 -86 79
-214 125 -32 12 -72 39 -110 76 -64 61 -131 98 -178 99 -47 0 -177 30 -289 65
-190 61 -508 106 -623 89z m356 -1354 c129 -25 170 -48 307 -176 78 -74 117
-119 140 -163 50 -93 132 -338 132 -394 0 -65 -26 -173 -67 -281 -55 -144 -88
-199 -153 -250 -32 -25 -77 -66 -101 -92 -63 -65 -110 -89 -224 -112 -55 -12
-133 -28 -173 -37 -72 -15 -79 -15 -224 10 -83 14 -170 34 -194 45 -60 26
-252 187 -294 247 -18 26 -51 67 -73 91 -78 86 -82 106 -82 372 0 166 4 248
13 281 31 106 276 362 418 438 79 42 405 54 575 21z"/>
<path d="M3275 26535 c-22 -8 -54 -30 -72 -49 -40 -43 -49 -100 -37 -216 5
-48 7 -283 3 -535 -5 -358 -3 -455 7 -476 19 -39 71 -59 149 -59 62 0 75 4
159 49 58 32 127 59 189 75 117 31 120 32 194 97 32 28 87 72 123 97 96 67
165 137 222 227 29 44 78 110 110 148 70 82 86 118 99 222 7 63 18 97 51 160
62 120 57 198 -15 240 -43 26 -227 34 -737 34 -317 -1 -414 -4 -445 -14z"/>
<path d="M16438 26528 c-64 -40 -77 -170 -24 -246 14 -20 37 -53 51 -73 14
-20 37 -77 50 -127 32 -120 71 -203 132 -282 27 -36 68 -92 90 -125 49 -73
106 -126 170 -159 26 -13 82 -50 123 -82 94 -71 151 -98 266 -124 67 -15 112
-34 170 -68 69 -41 86 -47 134 -46 63 0 111 22 137 61 16 25 19 75 24 583 6
595 5 605 -44 659 -49 53 -43 52 -669 49 -538 -2 -582 -4 -610 -20z"/>
<path d="M17500 2704 c-108 -17 -195 -51 -313 -123 -34 -21 -83 -46 -109 -56
-62 -23 -99 -51 -147 -111 -22 -27 -66 -69 -98 -93 -33 -24 -72 -63 -89 -85
-16 -22 -61 -74 -100 -116 -72 -77 -89 -110 -114 -223 -5 -26 -28 -87 -49
-135 -97 -215 -94 -336 9 -396 41 -25 102 -26 605 -9 259 8 322 7 380 -5 80
-16 166 -13 210 9 42 20 73 71 81 137 4 31 3 219 -1 417 -4 198 -7 428 -5 511
2 176 -12 227 -72 264 -32 19 -111 25 -188 14z"/>
<path d="M3265 2689 c-38 -12 -57 -26 -80 -62 -18 -27 -18 -60 -17 -608 1
-544 2 -582 19 -612 43 -74 166 -97 299 -56 73 23 95 23 306 0 53 -6 124 -6
184 0 67 6 118 5 162 -2 35 -6 99 -9 143 -7 63 4 86 10 118 31 81 53 85 95 37
321 -35 163 -54 210 -122 307 -30 43 -68 111 -85 151 -32 78 -70 125 -134 166
-22 14 -69 55 -105 92 -49 50 -79 72 -125 90 -33 12 -127 56 -210 96 -198 98
-298 121 -390 93z"/>
</g>
</svg>
