<?xml version="1.0" standalone="no"?>
<!DOCTYPE svg PUBLIC "-//W3C//DTD SVG 20010904//EN"
 "http://www.w3.org/TR/2001/REC-SVG-20010904/DTD/svg10.dtd">
<svg version="1.0" xmlns="http://www.w3.org/2000/svg"
 width="262" height="348" viewBox="0 0 262 348"
 preserveAspectRatio="xMidYMid meet">
<metadata>
Created by potrace 1.16, written by Peter Selinger 2001-2019
</metadata>
<g transform="translate(0,348) scale(0.012500,-0.012500)"
fill="#000000" stroke="none">
<path d="M2591 27798 c-24 -55 -40 -69 -137 -117 -43 -21 -98 -53 -121 -70
-113 -82 -293 -282 -341 -377 -12 -23 -30 -74 -41 -113 -28 -100 -56 -146
-108 -173 l-43 -23 0 -12988 0 -12987 40 -16 c58 -23 96 -72 110 -141 30 -145
37 -161 118 -250 123 -135 316 -323 356 -345 10 -6 52 -19 92 -29 41 -10 87
-25 104 -34 43 -22 99 -73 116 -106 l15 -29 7778 0 7779 0 12 30 c20 49 83 95
178 129 114 41 160 69 282 170 116 96 133 117 188 227 45 89 82 127 142 145
l40 12 0 13237 0 13237 -45 18 c-52 19 -79 52 -124 147 -23 49 -48 82 -94 123
-34 31 -75 72 -90 93 -38 51 -98 88 -160 102 -77 16 -131 52 -156 103 -12 24
-21 49 -21 55 0 9 -1826 12 -7925 12 l-7926 0 -18 -42z m15369 -866 c47 -27
111 -61 143 -76 51 -25 64 -38 118 -118 34 -49 67 -105 75 -123 11 -28 14
-1964 15 -12667 1 -11344 -1 -12638 -15 -12671 -8 -20 -42 -68 -75 -107 -33
-38 -68 -81 -76 -94 -24 -37 -90 -76 -146 -86 -33 -6 -2752 -10 -7495 -10
-6593 0 -7448 2 -7480 15 -46 19 -191 155 -224 209 l-25 41 0 12700 c0 12140
1 12703 18 12757 10 32 31 74 48 93 39 45 271 161 355 178 47 9 1623 11 7369
9 l7310 -2 85 -48z"/>
<path d="M4987 26556 c-69 -15 -118 -57 -137 -119 -7 -23 -16 -105 -20 -182
-9 -172 -28 -250 -93 -374 -28 -53 -65 -127 -84 -164 -20 -42 -60 -97 -101
-140 -38 -40 -80 -93 -95 -118 -43 -73 -215 -232 -291 -268 -35 -17 -94 -58
-130 -90 -83 -76 -86 -77 -192 -96 -64 -11 -108 -26 -163 -56 -120 -65 -166
-79 -318 -99 -159 -20 -198 -36 -225 -90 -23 -45 -23 -143 0 -235 16 -66 17
-260 11 -3290 -8 -4236 -8 -13955 0 -16030 4 -1250 3 -1663 -6 -1735 -24 -187
-13 -301 34 -352 29 -32 105 -66 174 -77 35 -6 120 -18 189 -27 151 -19 209
-38 298 -98 68 -45 152 -86 176 -86 40 0 296 -180 372 -261 86 -92 214 -275
239 -344 36 -93 51 -123 95 -175 70 -85 81 -118 105 -345 17 -160 42 -244 86
-298 66 -80 161 -100 344 -73 100 14 581 16 5317 16 4571 0 5217 -2 5279 -15
86 -18 152 -18 202 -1 78 28 102 72 117 212 14 127 31 185 91 314 27 57 59
140 70 184 24 95 38 122 93 190 23 29 58 79 78 112 20 32 61 79 91 104 30 25
74 73 98 108 31 46 59 73 103 100 34 20 88 63 121 97 46 46 77 68 130 89 39
16 117 51 175 77 126 58 216 82 370 98 151 16 196 29 236 63 46 41 55 79 55
225 -1 71 2 4909 7 10753 4 6912 4 10637 -3 10659 -22 79 -83 112 -269 146
-50 10 -181 50 -295 91 -175 64 -222 85 -311 143 -58 38 -125 80 -150 95 -25
14 -108 88 -185 166 -122 122 -149 156 -213 263 -99 166 -137 246 -168 352
-14 50 -41 125 -61 168 -19 43 -43 122 -54 175 -11 53 -24 111 -30 129 -11 36
-68 90 -102 98 -12 3 -2121 8 -4687 10 -2566 3 -5036 7 -5490 9 -617 3 -840 1
-883 -8z m10680 -397 c88 -29 135 -105 198 -319 40 -135 68 -198 125 -275 20
-28 60 -91 89 -142 28 -50 70 -113 94 -139 23 -27 75 -90 115 -139 73 -92 118
-135 206 -195 27 -18 78 -59 113 -91 43 -39 96 -74 160 -104 52 -25 114 -58
137 -74 78 -54 171 -94 261 -112 226 -46 302 -97 325 -217 6 -35 10 -3579 10
-10433 l1 -10381 -25 -53 c-16 -37 -36 -61 -63 -78 -61 -40 -257 -106 -423
-143 -94 -21 -113 -31 -192 -99 -44 -39 -90 -66 -151 -92 -72 -29 -99 -47
-145 -95 -31 -32 -79 -72 -107 -88 -68 -40 -84 -56 -132 -126 -23 -33 -63 -81
-88 -105 -34 -31 -62 -73 -96 -144 -26 -55 -69 -125 -94 -155 -62 -74 -88
-128 -114 -238 -42 -175 -111 -296 -191 -337 l-50 -25 -5104 0 c-4564 0 -5108
2 -5147 15 -67 24 -96 59 -124 148 -14 43 -25 83 -25 90 0 20 -56 132 -89 177
-18 24 -44 86 -62 142 -28 91 -35 104 -93 166 -34 37 -80 92 -102 123 -59 83
-162 194 -229 247 -33 26 -90 77 -127 114 -47 47 -93 81 -155 113 -48 25 -116
63 -150 84 -72 43 -148 73 -333 131 -241 75 -307 115 -330 200 -7 25 -9 3491
-8 10446 l3 10409 21 45 c41 88 115 126 299 154 151 23 192 38 261 97 67 58
110 82 174 99 73 20 115 46 166 104 27 30 77 73 111 96 34 22 78 63 98 91 20
27 62 69 94 94 40 31 71 69 103 122 26 43 69 106 96 140 28 34 56 79 62 100
24 74 61 155 115 251 32 56 69 139 86 197 49 156 73 185 181 209 69 16 10197
11 10245 -5z"/>
<path d="M5653 25784 c-45 -16 -56 -27 -122 -112 -95 -125 -111 -154 -142
-254 -22 -72 -40 -109 -69 -145 -22 -26 -69 -91 -104 -143 -38 -56 -82 -107
-106 -125 -23 -16 -62 -58 -87 -92 -24 -34 -66 -78 -93 -98 -27 -20 -75 -65
-106 -101 -31 -35 -81 -78 -112 -96 -31 -17 -86 -59 -123 -93 -51 -47 -85 -69
-150 -94 -110 -43 -136 -57 -184 -96 -62 -50 -121 -76 -208 -91 -89 -16 -127
-38 -151 -88 -15 -32 -16 -818 -16 -10231 0 -8946 2 -10199 15 -10224 18 -35
69 -80 98 -85 12 -3 63 -12 112 -20 136 -23 182 -40 282 -103 51 -32 119 -73
153 -92 34 -19 75 -54 95 -79 39 -50 79 -83 145 -117 50 -26 192 -167 263
-260 25 -33 62 -76 82 -95 21 -19 58 -66 82 -105 25 -38 67 -95 93 -125 58
-69 63 -77 89 -173 29 -108 41 -127 134 -225 120 -124 172 -141 322 -104 66
16 332 17 4755 11 2577 -4 4712 -10 4746 -14 113 -12 167 32 204 169 25 94 39
122 101 204 26 35 69 105 93 156 33 67 66 115 119 172 40 44 83 96 95 116 13
21 47 56 75 78 29 23 75 69 102 103 29 35 81 82 121 108 38 26 82 63 97 82 32
42 83 74 187 117 41 17 102 51 134 77 76 59 125 80 217 93 40 6 88 16 104 22
88 34 137 109 138 211 1 34 0 4572 -1 10084 -1 5513 1 10054 4 10092 4 38 4
85 0 105 -12 65 -101 142 -196 171 -14 4 -62 30 -108 57 -46 27 -120 67 -165
90 -52 25 -107 64 -148 103 -40 37 -95 76 -140 98 -62 31 -100 63 -235 195
-109 106 -176 181 -208 231 -26 40 -76 107 -111 147 -35 40 -75 95 -89 121
-13 27 -44 75 -69 108 -54 73 -73 108 -103 197 -29 86 -55 123 -104 148 -38
19 -92 20 -4906 22 -3613 2 -4877 0 -4901 -8z m5035 -4604 c159 -79 206 -122
243 -219 20 -51 21 -64 12 -154 -11 -108 -5 -162 21 -202 20 -30 88 -64 128
-65 44 0 125 -35 181 -78 69 -53 103 -69 183 -88 84 -19 127 -41 195 -99 30
-25 78 -60 106 -76 29 -17 80 -61 114 -99 34 -38 84 -84 111 -101 30 -19 65
-55 89 -91 23 -33 67 -80 99 -105 45 -34 67 -62 96 -117 20 -39 61 -104 90
-144 35 -49 61 -99 79 -155 15 -45 53 -138 85 -207 35 -76 66 -162 79 -220 31
-136 43 -345 32 -547 -16 -278 -26 -321 -104 -446 -45 -71 -52 -91 -72 -188
-22 -106 -34 -129 -109 -210 -44 -46 -69 -83 -85 -125 -12 -33 -34 -78 -49
-100 -103 -152 -396 -458 -520 -542 -34 -24 -90 -68 -125 -99 -35 -31 -93 -70
-132 -88 -94 -44 -287 -202 -305 -251 -14 -37 -12 -91 5 -123 23 -45 70 -61
175 -61 167 0 182 -21 188 -269 5 -190 -6 -286 -39 -340 -25 -41 -86 -69 -177
-80 -80 -10 -119 -28 -155 -71 -40 -47 -46 -96 -33 -275 6 -85 4 -139 -9 -235
-14 -98 -17 -187 -16 -410 1 -210 -2 -315 -14 -400 -13 -101 -15 -372 -15
-2215 0 -1155 -3 -2146 -6 -2202 -6 -84 -4 -111 10 -148 36 -92 111 -121 286
-110 63 3 363 7 665 7 475 1 555 -1 581 -15 39 -20 59 -44 84 -99 23 -54 25
-82 19 -398 -4 -241 -11 -264 -79 -305 -33 -19 -52 -20 -285 -20 -285 0 -335
-9 -377 -68 -21 -29 -23 -42 -21 -131 2 -63 -3 -120 -12 -156 -30 -116 -12
-204 49 -241 29 -18 51 -19 296 -17 303 3 330 -3 372 -71 23 -35 23 -42 23
-331 0 -316 -3 -343 -52 -400 -51 -61 -60 -61 -768 -59 -472 2 -648 -1 -669
-10 -50 -20 -86 -51 -107 -94 -19 -35 -21 -52 -16 -131 3 -50 10 -113 16 -141
20 -105 -20 -188 -107 -222 -43 -16 -84 -18 -444 -18 -387 0 -397 1 -425 21
-62 46 -58 -104 -60 1994 -2 1261 -6 1943 -13 1996 -7 52 -10 403 -10 960 1
520 -3 910 -9 954 -5 41 -10 287 -10 545 -1 259 -6 542 -12 630 -5 88 -9 214
-8 280 2 66 -1 170 -6 230 -4 61 -9 166 -9 235 -1 69 -7 177 -14 240 -29 268
-41 514 -29 618 21 190 -32 258 -218 282 -107 14 -158 40 -185 94 -42 87 -53
444 -17 529 22 51 63 67 174 67 102 0 158 21 188 72 27 46 25 115 -4 162 -31
49 -140 126 -272 190 -59 29 -135 75 -170 103 -35 27 -96 71 -135 96 -85 56
-316 267 -362 331 -18 25 -58 76 -89 113 -51 62 -72 100 -136 248 -12 27 -42
72 -66 99 -54 61 -78 113 -97 214 -8 42 -32 136 -53 207 -72 240 -86 333 -85
565 1 260 12 327 70 445 35 72 49 116 65 204 21 121 31 148 87 226 20 28 57
96 84 153 37 80 63 120 116 175 37 40 81 94 99 119 17 26 60 69 95 97 35 27
83 73 107 101 24 29 69 68 100 88 31 19 80 57 110 84 64 58 111 83 188 102 65
15 126 43 169 79 77 62 121 81 246 102 43 7 95 47 110 84 6 14 14 87 17 161 8
158 19 188 97 267 40 40 84 68 184 118 181 89 192 89 378 -5z"/>
<path d="M10300 19703 c-108 -12 -278 -46 -316 -63 -25 -10 -79 -46 -122 -79
-42 -33 -103 -69 -134 -81 -44 -16 -68 -33 -100 -72 -24 -28 -79 -88 -123
-132 -70 -70 -83 -89 -98 -141 -10 -33 -36 -114 -58 -180 -67 -200 -80 -255
-86 -366 -7 -135 9 -245 53 -368 19 -53 46 -130 60 -171 14 -41 37 -93 51
-115 47 -71 200 -239 288 -315 96 -84 139 -112 205 -137 25 -9 91 -36 147 -59
157 -66 199 -75 383 -81 203 -6 263 5 411 76 58 28 137 61 177 75 97 32 176
92 312 233 147 153 179 201 236 353 109 290 106 278 105 434 -1 206 -15 293
-62 388 -16 32 -43 106 -60 165 -38 134 -54 159 -128 211 -35 25 -70 60 -85
86 -32 54 -98 113 -137 121 -16 4 -62 31 -102 62 -90 68 -166 107 -237 122
-150 30 -456 48 -580 34z"/>
<path d="M16965 26550 c-275 -4 -336 -8 -365 -21 -55 -26 -82 -62 -87 -116 -5
-49 1 -65 70 -184 16 -26 35 -85 46 -141 23 -113 32 -134 109 -230 32 -40 78
-102 102 -137 56 -84 109 -136 201 -198 41 -28 103 -76 138 -106 75 -66 127
-92 201 -102 92 -11 127 -26 187 -76 67 -58 108 -73 175 -67 58 6 97 31 120
79 15 30 17 93 19 599 3 623 4 609 -59 662 -61 51 -70 51 -857 38z"/>
<path d="M3204 26535 c-17 -7 -42 -28 -55 -46 -21 -30 -24 -44 -22 -119 1 -47
3 -305 5 -575 3 -456 5 -493 23 -529 51 -106 189 -110 395 -13 52 25 138 57
190 72 121 33 131 41 334 242 192 190 212 215 258 313 25 52 63 123 85 157 60
93 98 218 98 325 0 100 -14 127 -81 162 -38 20 -54 21 -619 23 -461 1 -586 -1
-611 -12z"/>
<path d="M3190 2688 c-56 -38 -72 -79 -65 -173 14 -203 17 -637 5 -785 -19
-239 3 -315 107 -366 l52 -26 439 10 c423 9 443 9 509 -10 79 -22 167 -19 214
9 36 21 69 86 69 134 0 78 -60 252 -151 434 -80 161 -98 190 -177 280 -139
158 -283 282 -372 322 -41 18 -100 47 -130 64 -151 83 -249 115 -387 125 -71
6 -81 4 -113 -18z"/>
<path d="M17649 2691 c-19 -4 -71 -23 -115 -43 -138 -63 -287 -128 -354 -155
-49 -20 -80 -42 -125 -88 -33 -34 -86 -79 -117 -100 -56 -36 -75 -59 -136
-161 -17 -29 -47 -74 -68 -100 -52 -68 -89 -154 -120 -281 -15 -59 -43 -141
-62 -181 -29 -62 -34 -81 -30 -123 6 -57 40 -102 93 -119 85 -28 509 -39 720
-18 138 14 197 14 315 4 78 -7 89 -6 130 16 33 17 51 35 67 68 21 45 21 46 13
500 -4 250 -5 500 -2 556 4 86 2 107 -16 146 -11 26 -32 54 -46 63 -30 20 -95
27 -147 16z"/>
</g>
</svg>
