<?xml version="1.0" standalone="no"?>
<!DOCTYPE svg PUBLIC "-//W3C//DTD SVG 20010904//EN"
 "http://www.w3.org/TR/2001/REC-SVG-20010904/DTD/svg10.dtd">
<svg version="1.0" xmlns="http://www.w3.org/2000/svg"
 width="262" height="348" viewBox="0 0 262 348"
 preserveAspectRatio="xMidYMid meet">
<metadata>
Created by potrace 1.16, written by Peter Selinger 2001-2019
</metadata>
<g transform="translate(0,348) scale(0.012500,-0.012500)"
fill="#000000" stroke="none">
<path d="M2625 27809 c-12 -55 -62 -97 -179 -153 -104 -49 -117 -59 -207 -153
-82 -86 -104 -116 -153 -214 -63 -125 -92 -161 -148 -190 l-38 -19 0 -13129 0
-13129 33 -11 c48 -16 90 -65 131 -151 66 -140 263 -354 415 -452 25 -15 81
-39 126 -53 103 -31 145 -59 170 -112 l20 -42 7700 -1 7700 0 23 40 c28 49 77
83 167 115 96 35 138 61 265 160 129 102 165 142 216 237 47 92 94 143 150
164 l44 17 -2 13215 -3 13215 -30 10 c-62 20 -90 52 -129 146 -36 86 -45 98
-156 210 -98 100 -125 121 -161 131 -121 30 -169 64 -194 136 l-13 39 -7870 3
-7870 2 -7 -31z m15286 -907 c100 -46 141 -79 185 -147 18 -28 53 -76 78 -105
66 -77 71 -104 56 -292 -7 -86 -9 -174 -5 -195 4 -21 7 -166 6 -323 -1 -157
-3 -5737 -4 -12400 l-2 -12115 -22 -40 c-23 -43 -166 -231 -192 -253 -9 -7
-36 -22 -60 -34 l-44 -20 -7377 0 c-5541 0 -7388 3 -7420 12 -58 16 -106 47
-162 107 -55 60 -77 101 -112 211 l-26 84 0 12578 c0 12463 0 12579 20 12642
22 71 80 174 113 201 63 51 219 113 315 125 31 4 3322 6 7313 5 l7257 -3 83
-38z"/>
<path d="M5198 26553 l-167 -3 -35 -33 c-42 -40 -53 -79 -66 -238 -15 -184
-67 -345 -177 -548 -30 -55 -66 -103 -99 -135 -29 -26 -74 -79 -99 -116 -30
-45 -64 -80 -100 -104 -30 -20 -77 -65 -105 -100 -29 -37 -73 -78 -103 -97
-29 -17 -83 -55 -122 -84 -65 -50 -168 -95 -212 -95 -10 0 -76 -29 -148 -65
-137 -70 -146 -72 -363 -93 -108 -11 -157 -37 -188 -99 -19 -37 -19 -235 -19
-10808 0 -10750 0 -10770 20 -10809 30 -60 75 -78 214 -87 162 -11 337 -38
395 -61 27 -10 81 -39 120 -65 39 -25 102 -60 141 -78 38 -17 93 -50 120 -72
28 -21 77 -58 110 -80 69 -47 216 -195 265 -267 18 -26 55 -78 83 -115 28 -36
64 -95 81 -131 16 -36 51 -97 77 -137 66 -102 89 -196 118 -485 9 -96 32 -151
74 -182 24 -18 50 -22 175 -28 81 -4 170 -12 197 -17 32 -6 1863 -10 5106 -10
4632 -1 5063 0 5135 15 65 14 90 14 140 5 152 -28 236 -5 275 75 16 34 22 75
29 181 9 150 26 213 94 353 19 41 50 113 68 160 23 63 43 98 78 135 26 27 65
75 87 106 61 89 252 283 318 324 33 21 87 63 121 94 45 42 102 77 225 139 190
96 263 118 444 133 72 7 146 15 165 20 52 13 97 44 117 81 17 32 18 373 22
8523 4 7364 10 12623 15 12960 1 89 -1 103 -22 132 -32 45 -94 71 -223 93
-234 40 -253 45 -391 115 -48 25 -111 54 -139 65 -44 18 -210 118 -304 183
-55 38 -279 257 -313 305 -18 26 -60 84 -92 130 -32 45 -77 126 -100 180 -23
53 -59 129 -80 167 -49 90 -77 185 -90 310 -6 55 -15 117 -21 137 -12 48 -52
95 -96 113 -30 13 -729 14 -5311 13 -2902 -1 -5352 -4 -5444 -5z m10390 -273
c56 -17 116 -70 136 -120 8 -22 30 -108 47 -192 37 -181 41 -192 111 -295 30
-43 71 -122 92 -176 34 -87 47 -108 124 -194 109 -121 287 -299 424 -424 94
-85 112 -98 169 -113 81 -23 117 -42 204 -106 39 -28 85 -58 102 -65 35 -15
200 -47 320 -63 96 -13 135 -38 170 -110 l28 -57 5 -9565 c3 -5261 8 -9572 13
-9580 11 -23 16 -1546 4 -1605 -20 -105 -78 -170 -172 -194 -25 -6 -97 -31
-159 -56 -63 -24 -158 -56 -213 -70 -204 -55 -195 -51 -284 -130 -46 -41 -113
-91 -149 -112 -36 -21 -100 -68 -144 -106 -43 -37 -98 -82 -123 -99 -27 -20
-62 -61 -91 -108 -26 -41 -69 -101 -95 -133 -26 -31 -66 -90 -87 -130 -21 -39
-57 -106 -80 -147 -89 -161 -138 -277 -165 -385 -29 -116 -91 -264 -128 -303
-12 -13 -34 -30 -50 -38 -23 -13 -715 -14 -5074 -14 l-5047 0 -42 21 c-24 11
-52 35 -63 52 -25 42 -115 267 -134 337 -100 358 -106 373 -185 480 -31 43
-73 104 -92 136 -40 66 -377 412 -427 437 -17 9 -57 26 -89 38 -32 12 -95 46
-140 76 -46 30 -105 62 -131 73 -89 34 -349 109 -557 159 -64 15 -101 43 -129
94 l-22 42 -3 10399 c-2 9270 -1 10406 13 10460 23 91 92 146 185 146 14 0 91
11 170 25 141 24 150 27 305 104 88 43 194 93 236 111 45 19 107 56 150 91 41
32 90 64 109 70 60 19 108 56 149 117 22 32 67 82 100 111 51 45 64 63 96 139
22 53 57 113 89 154 84 105 96 137 201 553 42 165 44 171 66 199 11 15 40 37
62 49 l42 22 4975 6 c2736 3 5011 4 5055 3 44 -1 99 -7 123 -14z"/>
<path d="M5766 25976 c-71 -20 -106 -77 -89 -144 15 -64 55 -94 164 -126 34
-9 80 -34 115 -61 33 -25 95 -69 139 -99 44 -30 105 -80 135 -111 30 -31 85
-77 121 -101 37 -25 79 -60 94 -79 44 -59 77 -86 140 -115 33 -15 89 -51 124
-79 35 -28 95 -69 135 -91 89 -50 107 -65 194 -168 85 -99 93 -119 62 -144
-27 -22 -84 -23 -193 -3 -61 10 -94 24 -151 59 -123 77 -168 92 -316 111 -175
21 -297 49 -382 85 -37 17 -100 44 -139 61 -59 25 -92 32 -183 39 -104 7 -117
10 -205 54 -141 69 -231 61 -231 -20 0 -51 61 -175 118 -242 27 -31 67 -84 87
-117 21 -33 66 -89 100 -125 34 -36 72 -85 85 -110 12 -25 46 -77 76 -116 29
-39 65 -97 79 -130 15 -32 36 -80 47 -107 13 -28 47 -71 82 -105 37 -35 77
-87 103 -135 24 -43 68 -107 97 -143 38 -46 62 -88 81 -142 15 -42 38 -98 51
-124 27 -53 30 -78 12 -96 -45 -45 -217 53 -378 217 -43 44 -101 90 -135 108
-33 18 -89 58 -125 89 -36 30 -101 74 -144 96 -44 22 -105 64 -135 92 -31 29
-78 68 -106 86 -27 18 -84 66 -126 107 -51 48 -97 82 -135 99 -31 14 -79 45
-105 68 -88 79 -183 138 -232 143 -40 5 -49 2 -72 -21 -25 -25 -27 -32 -23
-101 3 -68 6 -78 50 -141 59 -85 65 -104 78 -231 14 -148 43 -267 100 -420 36
-97 56 -168 70 -261 27 -164 40 -209 113 -372 72 -165 83 -230 45 -275 -20
-23 -29 -27 -53 -21 -36 9 -155 124 -202 195 -20 31 -67 97 -104 148 -39 54
-80 126 -100 174 -26 66 -46 97 -99 154 -37 38 -84 97 -105 130 -20 33 -63 87
-95 120 -32 34 -79 95 -106 135 -26 41 -65 97 -85 124 -21 27 -54 90 -75 140
-48 117 -85 156 -147 156 -30 0 -53 -7 -70 -21 -43 -33 -50 -83 -43 -279 3
-96 5 -4578 4 -9960 -1 -5382 -1 -9816 -1 -9855 3 -139 43 -205 125 -205 54 0
98 45 122 126 40 132 48 154 74 191 15 22 55 80 89 130 34 50 88 112 119 139
48 41 65 65 101 143 24 52 72 133 107 180 34 47 75 108 91 135 16 26 58 81 94
120 36 39 81 94 99 121 45 66 75 87 133 93 45 4 49 2 61 -22 14 -32 5 -81 -35
-191 -14 -38 -35 -131 -46 -205 -22 -146 -70 -328 -121 -455 -46 -115 -50
-129 -60 -245 -11 -119 -63 -302 -104 -360 -57 -84 -55 -174 4 -205 40 -21 82
-5 144 53 28 26 83 65 123 86 49 26 87 56 122 95 36 43 72 70 131 100 44 23
109 67 145 97 35 30 95 68 132 85 49 22 89 50 143 103 41 40 102 89 135 109
33 20 78 54 100 77 22 23 81 67 130 97 50 31 110 74 135 96 56 49 97 67 153
67 119 0 97 -107 -59 -296 -34 -40 -81 -104 -104 -141 -24 -38 -66 -99 -96
-138 -29 -38 -65 -101 -81 -140 -20 -50 -46 -89 -96 -143 -52 -55 -79 -96
-113 -170 -25 -53 -62 -117 -83 -142 -21 -25 -57 -82 -80 -127 -37 -71 -52
-89 -106 -128 -79 -56 -110 -112 -102 -183 4 -34 12 -53 33 -70 25 -22 35 -24
103 -20 71 3 81 6 150 51 41 26 98 54 125 62 163 48 211 57 354 71 182 17 192
20 328 89 76 39 132 59 220 80 66 15 162 40 215 56 116 35 171 37 199 9 47
-47 12 -122 -82 -172 -34 -18 -92 -61 -128 -95 -36 -33 -103 -84 -149 -112
-45 -28 -109 -71 -140 -96 -32 -24 -73 -50 -92 -58 -19 -8 -54 -23 -78 -33
-28 -12 -63 -40 -100 -82 -31 -36 -92 -89 -136 -118 -44 -30 -105 -74 -135
-99 -30 -25 -75 -52 -100 -61 -122 -44 -146 -61 -229 -165 -67 -83 -81 -106
-81 -135 0 -93 77 -122 245 -94 41 7 1517 11 4575 10 4024 -1 4525 1 4603 15
98 17 117 15 200 -27 108 -54 209 -46 254 21 46 68 24 130 -70 192 -34 23 -86
64 -114 91 -48 44 -140 98 -170 98 -6 0 -51 29 -99 65 -48 36 -115 80 -148 98
-35 19 -87 60 -126 100 -36 38 -92 84 -124 103 -33 20 -85 59 -117 88 -32 29
-96 71 -142 94 -72 37 -262 170 -336 236 -48 43 -77 146 -49 174 20 20 56 14
137 -22 55 -25 107 -39 189 -51 132 -19 293 -63 482 -133 130 -48 331 -91 431
-92 53 -1 101 -22 167 -74 69 -54 130 -76 214 -76 92 0 127 26 128 96 0 59
-39 128 -121 214 -57 59 -81 94 -116 168 -30 65 -59 111 -98 151 -29 31 -75
95 -101 141 -25 47 -68 114 -94 150 -26 36 -67 103 -90 149 -29 59 -64 107
-114 160 -40 42 -87 103 -106 136 -18 33 -52 85 -75 115 -58 76 -65 92 -65
144 0 35 5 48 22 60 47 33 98 18 202 -63 34 -26 86 -62 116 -80 30 -18 89 -66
130 -106 49 -49 99 -86 145 -109 39 -19 97 -58 130 -86 33 -28 100 -72 148
-96 55 -28 113 -68 152 -104 35 -32 87 -71 116 -86 29 -14 78 -50 108 -79 70
-67 264 -185 303 -185 99 0 101 167 3 310 -58 85 -65 107 -65 196 0 81 -36
267 -70 361 -12 32 -33 90 -47 128 -45 127 -124 599 -110 657 14 54 69 60 125
13 40 -33 159 -210 210 -310 22 -44 70 -115 106 -159 40 -47 84 -115 110 -170
25 -50 65 -113 89 -141 24 -27 63 -81 87 -120 23 -38 69 -99 102 -135 51 -57
62 -76 84 -150 52 -175 80 -210 168 -210 42 0 57 5 74 23 41 43 46 73 41 252
-2 94 -3 231 -3 305 0 74 0 4399 -1 9610 0 5211 1 9585 3 9720 5 363 -10 420
-111 420 -82 0 -109 -30 -177 -193 -18 -43 -52 -104 -75 -135 -23 -31 -62 -95
-85 -142 -30 -59 -63 -106 -111 -155 -48 -50 -78 -91 -100 -140 -17 -39 -59
-113 -94 -165 -34 -52 -77 -123 -95 -158 -19 -35 -62 -95 -96 -134 -37 -41
-77 -100 -98 -142 -52 -110 -116 -151 -173 -111 -42 29 -40 66 11 240 18 61
32 142 42 250 16 179 28 256 49 316 8 22 22 82 30 132 9 50 28 123 42 162 39
110 51 162 62 278 8 79 18 125 40 175 45 107 47 127 16 157 -21 22 -31 25 -58
20 -81 -18 -173 -75 -338 -212 -59 -48 -131 -98 -167 -114 -45 -20 -82 -48
-130 -98 -44 -46 -91 -81 -137 -105 -38 -20 -97 -59 -130 -88 -33 -28 -97 -69
-143 -90 -64 -31 -93 -52 -130 -95 -52 -61 -270 -230 -310 -240 -14 -3 -37 -2
-51 3 -23 9 -26 15 -25 54 1 60 67 196 138 286 37 46 65 94 83 144 22 62 39
87 94 145 65 68 87 102 127 195 11 25 43 77 72 115 28 39 70 102 92 140 23 39
62 93 89 121 26 28 64 76 83 107 21 32 66 80 105 111 59 47 73 64 91 112 25
67 35 133 26 168 -14 57 -116 55 -259 -6 -55 -24 -95 -32 -175 -39 -122 -9
-117 -8 -262 -70 -127 -54 -284 -93 -436 -109 -126 -14 -175 -29 -303 -98
-116 -62 -175 -77 -232 -62 -82 22 -88 72 -22 169 42 60 86 96 185 148 37 19
92 57 123 84 30 26 83 64 118 83 34 19 85 58 112 87 28 28 86 75 130 103 44
29 107 76 140 105 33 29 74 59 90 66 17 7 50 21 75 31 25 11 75 46 111 80 44
40 100 77 165 110 82 40 103 56 119 86 18 34 19 40 5 80 -21 59 -65 81 -168
80 -1005 -6 -9259 5 -9322 12 -25 3 -67 -1 -94 -8z m4779 -7338 c55 -25 83
-113 101 -318 18 -205 34 -288 90 -462 51 -157 68 -243 89 -453 20 -194 26
-222 79 -363 33 -88 51 -158 70 -277 14 -88 31 -176 36 -196 5 -19 14 -103 19
-185 13 -213 45 -284 125 -284 52 0 99 42 214 193 61 80 141 177 179 218 38
41 85 101 105 135 21 33 60 79 88 103 28 23 66 66 85 94 19 29 65 77 101 107
52 42 75 71 103 125 20 38 63 99 97 135 33 36 80 94 104 130 24 36 69 94 100
130 31 36 72 88 90 115 19 28 60 78 91 112 32 35 76 89 98 120 38 57 184 198
228 221 32 18 60 15 84 -9 19 -19 21 -29 16 -83 -7 -77 -51 -192 -111 -293
-47 -79 -67 -135 -105 -298 -12 -50 -44 -139 -75 -205 -59 -125 -73 -165 -111
-314 -16 -65 -42 -130 -76 -194 -43 -79 -59 -125 -95 -268 -43 -174 -62 -223
-117 -303 -44 -64 -65 -128 -81 -242 -13 -94 -18 -106 -62 -171 -66 -96 -66
-156 1 -184 45 -19 87 -8 205 51 47 23 146 64 220 89 74 26 189 73 255 106 86
43 144 64 205 76 107 21 137 33 216 90 77 55 112 70 207 89 102 22 220 62 307
105 96 48 117 54 286 89 145 29 168 39 339 132 96 52 103 54 176 54 62 0 81
-4 98 -19 25 -23 27 -65 5 -111 -27 -57 -133 -149 -217 -189 -62 -30 -84 -47
-122 -95 -26 -33 -70 -75 -100 -94 -29 -20 -76 -62 -105 -95 -28 -32 -75 -76
-103 -97 -29 -20 -70 -59 -92 -86 -22 -27 -71 -71 -110 -98 -38 -27 -90 -70
-115 -96 -25 -26 -72 -65 -105 -88 -33 -22 -89 -67 -125 -100 -36 -33 -101
-84 -145 -113 -44 -29 -98 -71 -120 -94 -22 -23 -69 -59 -105 -80 -36 -21 -89
-64 -119 -95 -30 -30 -85 -74 -123 -96 -113 -66 -140 -141 -73 -204 39 -37 87
-51 215 -60 190 -14 356 -45 502 -94 160 -54 205 -63 468 -91 235 -24 305 -38
482 -94 163 -52 273 -72 438 -81 310 -16 440 -60 440 -147 0 -38 -35 -79 -83
-97 -15 -6 -99 -20 -185 -31 -86 -12 -164 -23 -172 -25 -8 -2 -109 -9 -225
-15 -260 -13 -312 -20 -550 -76 -241 -57 -565 -110 -720 -119 -66 -4 -151 -14
-190 -22 -53 -12 -98 -14 -192 -9 -145 8 -193 -2 -240 -49 -35 -35 -42 -70
-23 -120 15 -39 95 -120 195 -197 50 -38 115 -93 145 -122 30 -29 89 -79 130
-110 41 -32 95 -80 118 -107 24 -27 65 -64 90 -81 26 -18 84 -68 129 -112 208
-205 244 -239 287 -270 25 -17 67 -61 93 -96 34 -45 64 -72 103 -93 30 -16 84
-57 120 -91 36 -35 90 -80 120 -101 118 -84 318 -246 344 -280 40 -53 69 -123
62 -152 -9 -34 -66 -57 -122 -48 -24 3 -98 33 -164 66 -93 46 -144 65 -218 80
-153 31 -169 36 -317 110 -119 59 -154 72 -232 84 -118 19 -173 38 -248 84
-78 49 -166 84 -292 115 -115 28 -146 42 -218 96 -74 55 -105 68 -187 80 -111
17 -138 28 -198 85 -30 29 -68 59 -85 68 -52 26 -176 59 -224 59 -38 0 -50 -5
-73 -31 -51 -57 -33 -147 47 -246 43 -53 60 -88 74 -155 18 -82 41 -139 79
-198 47 -75 60 -109 83 -225 18 -85 33 -125 93 -242 62 -120 76 -156 95 -250
35 -169 39 -180 86 -249 69 -101 81 -132 105 -266 27 -157 46 -211 113 -324
68 -115 77 -141 84 -248 8 -125 -21 -163 -96 -124 -52 27 -204 198 -244 273
-21 40 -59 96 -86 125 -26 29 -66 81 -89 115 -23 34 -65 81 -93 105 -28 24
-69 68 -90 99 -20 31 -65 80 -99 109 -34 29 -80 81 -103 114 -23 34 -65 84
-93 113 -29 28 -75 84 -102 125 -27 40 -74 100 -104 133 -30 33 -73 87 -95
120 -23 33 -62 80 -88 105 -25 25 -66 77 -90 115 -24 39 -66 89 -93 112 -27
23 -63 66 -80 95 -45 80 -74 103 -132 103 -96 0 -121 -51 -126 -255 -2 -89
-11 -189 -24 -260 -11 -63 -28 -164 -36 -225 -8 -60 -27 -141 -41 -180 -55
-152 -72 -227 -92 -406 -32 -283 -49 -381 -95 -554 -65 -242 -75 -289 -85
-430 -10 -142 -28 -203 -69 -235 -38 -31 -70 -25 -112 19 -43 45 -53 78 -74
242 -9 64 -22 158 -30 210 -9 52 -24 189 -35 304 -24 246 -29 275 -81 460 -52
187 -110 523 -120 706 -7 125 -12 156 -35 210 -22 52 -28 87 -34 189 -8 141
-22 180 -71 200 -81 34 -191 -18 -255 -118 -103 -163 -171 -249 -326 -416 -41
-44 -87 -99 -102 -122 -14 -23 -51 -63 -82 -90 -32 -26 -75 -75 -97 -109 -23
-33 -67 -84 -99 -113 -33 -30 -77 -84 -98 -121 -22 -36 -64 -94 -94 -128 -30
-34 -70 -83 -88 -110 -18 -26 -61 -79 -94 -118 -34 -38 -93 -113 -132 -165
-38 -52 -80 -104 -93 -115 -13 -11 -47 -52 -76 -92 -51 -68 -143 -149 -197
-174 -36 -16 -76 -4 -88 29 -17 44 -2 100 62 218 52 98 64 132 94 264 36 156
53 200 110 278 38 55 56 105 86 257 19 94 32 130 91 243 53 102 74 157 94 238
28 120 41 150 94 214 52 63 64 91 90 205 32 141 60 211 123 303 63 91 88 158
90 237 2 76 -22 101 -97 99 -81 -2 -147 -29 -211 -85 -72 -63 -92 -73 -195
-97 -107 -26 -218 -72 -295 -122 -85 -55 -122 -69 -237 -86 -111 -16 -129 -24
-239 -99 -47 -32 -95 -56 -125 -63 -27 -6 -94 -20 -149 -32 -96 -21 -129 -34
-277 -113 -42 -22 -92 -39 -140 -47 -151 -24 -231 -50 -364 -120 -163 -86
-233 -100 -278 -54 -21 21 -20 73 2 105 45 66 111 133 165 166 32 19 84 60
114 90 31 30 82 74 113 98 32 24 77 66 101 93 24 27 71 69 104 94 33 26 80 67
105 93 25 26 72 67 105 93 33 25 89 73 125 107 36 33 101 88 145 122 44 33 94
75 110 93 17 18 63 59 103 90 39 32 93 81 118 109 25 28 73 65 106 83 41 22
75 50 103 86 24 30 74 74 113 100 83 55 105 81 138 162 50 124 30 154 -112
165 -43 4 -142 24 -219 45 -181 50 -164 47 -420 65 -265 18 -394 40 -591 99
-172 52 -268 69 -524 91 -102 9 -216 21 -255 26 -38 5 -119 14 -179 20 -144
13 -191 25 -232 64 -42 40 -45 80 -9 123 32 38 102 58 280 76 77 9 203 22 280
30 98 11 181 27 277 55 211 61 438 99 713 121 169 13 224 24 373 71 134 42
226 60 423 83 142 16 199 38 224 86 20 38 19 70 -2 100 -23 34 -36 43 -122 91
-40 23 -94 64 -120 91 -25 27 -75 71 -111 98 -36 27 -80 69 -98 94 -18 25 -62
66 -97 91 -35 26 -80 68 -100 95 -20 28 -62 66 -98 88 -34 22 -84 65 -111 97
-28 32 -79 76 -115 100 -36 23 -86 62 -111 86 -25 25 -79 70 -120 100 -41 31
-109 87 -150 125 -99 91 -216 187 -299 247 -78 56 -267 252 -276 286 -8 30 18
69 51 77 32 8 256 -40 307 -67 21 -11 62 -37 90 -58 65 -49 110 -68 184 -76
32 -4 100 -15 152 -26 81 -16 106 -26 181 -74 109 -69 140 -82 242 -101 97
-18 142 -35 228 -85 36 -21 142 -63 235 -94 115 -38 193 -71 242 -101 109 -68
170 -91 253 -99 93 -9 117 -21 187 -96 44 -46 67 -62 106 -74 145 -43 251 10
232 115 -9 49 -129 304 -174 370 -42 60 -57 98 -96 240 -14 52 -53 151 -85
220 -35 73 -72 173 -90 240 -30 111 -42 135 -123 252 -30 44 -41 73 -57 154
-28 143 -53 216 -115 338 -34 66 -65 144 -80 203 -14 52 -48 141 -76 198 -28
56 -53 120 -56 143 -5 35 -2 44 22 67 22 23 32 26 62 22 55 -9 107 -50 149
-118 36 -57 89 -119 285 -331 43 -46 97 -110 121 -143 24 -33 61 -73 81 -88
20 -15 71 -70 112 -122 41 -52 79 -95 84 -95 14 0 279 -303 485 -555 41 -49
90 -106 111 -125 20 -19 50 -62 67 -95 51 -101 73 -123 171 -171 159 -77 181
-63 196 128 6 65 22 161 40 227 22 82 34 164 46 300 22 257 28 294 90 561 72
316 92 429 105 595 35 484 46 556 93 626 22 32 59 59 84 59 7 0 24 -5 38 -12z"/>
<path d="M10355 15251 c-90 -15 -178 -42 -275 -83 -52 -22 -137 -51 -187 -64
-121 -31 -145 -44 -195 -110 -23 -31 -68 -76 -100 -101 -32 -24 -76 -68 -98
-97 -21 -28 -60 -67 -86 -86 -59 -45 -85 -90 -128 -225 -19 -60 -59 -182 -90
-270 -105 -300 -100 -391 38 -701 20 -44 47 -127 61 -184 15 -57 31 -113 36
-124 6 -12 41 -51 77 -87 37 -36 92 -93 124 -125 114 -120 214 -212 243 -227
17 -8 56 -22 87 -31 31 -9 109 -39 173 -66 207 -89 261 -100 470 -100 245 1
352 22 513 104 29 15 85 38 125 53 83 30 159 76 225 137 26 23 74 63 107 88
82 62 123 109 172 198 22 41 65 102 94 135 70 80 84 117 115 291 44 259 43
326 -7 734 -13 106 -42 171 -107 243 -27 30 -62 77 -77 103 -79 141 -90 152
-338 353 -42 34 -171 101 -194 101 -6 0 -68 25 -137 55 -68 31 -155 62 -193
71 -79 17 -373 27 -448 15z"/>
<path d="M17050 26549 c-206 -4 -412 -6 -457 -2 -71 5 -88 2 -127 -16 -98 -48
-103 -180 -12 -282 44 -48 62 -83 71 -139 22 -133 43 -172 199 -371 93 -119
107 -133 196 -202 30 -23 90 -70 133 -104 98 -79 138 -100 235 -119 91 -19
117 -31 188 -89 74 -61 137 -77 215 -55 77 21 117 104 103 214 -4 34 -8 282
-8 551 -1 474 -2 491 -22 530 -14 29 -34 47 -70 65 -60 30 -98 31 -644 19z"/>
<path d="M3304 26536 c-39 -17 -71 -58 -85 -109 -7 -27 -11 -213 -11 -546 0
-278 0 -531 -1 -561 -2 -106 51 -160 158 -160 51 0 75 7 143 39 75 37 266 104
372 131 24 7 54 18 65 26 31 22 173 156 312 294 119 118 128 131 179 235 30
61 69 137 89 170 36 61 87 207 100 281 14 90 -39 180 -120 203 -63 17 -1160
14 -1201 -3z"/>
<path d="M3290 2712 c-44 -22 -76 -69 -88 -130 -5 -28 -7 -266 -3 -582 6 -514
7 -537 27 -575 13 -27 35 -48 65 -63 41 -22 52 -23 149 -17 128 7 832 11 950
5 72 -4 90 -2 119 15 52 30 76 86 75 170 -1 89 -24 158 -85 260 -26 44 -58
114 -69 155 -12 41 -29 88 -37 103 -18 36 -114 139 -283 305 -119 118 -145
138 -225 178 -49 24 -121 62 -160 84 -80 46 -162 73 -289 95 -109 19 -104 19
-146 -3z"/>
<path d="M17550 2699 c-93 -16 -201 -57 -290 -109 -47 -28 -105 -57 -130 -66
-102 -37 -146 -64 -180 -110 -19 -25 -66 -72 -104 -103 -54 -44 -79 -75 -120
-146 -29 -49 -68 -111 -88 -137 -53 -69 -87 -147 -117 -272 -15 -61 -38 -133
-50 -161 -48 -108 -35 -192 38 -237 33 -21 47 -23 156 -21 66 1 246 3 400 6
154 2 288 7 297 11 10 5 61 -2 119 -14 161 -35 250 -17 288 59 19 36 20 61 20
507 0 258 3 515 7 570 6 93 5 106 -15 147 -34 71 -113 97 -231 76z"/>
</g>
</svg>
