<?xml version="1.0" standalone="no"?>
<!DOCTYPE svg PUBLIC "-//W3C//DTD SVG 20010904//EN"
 "http://www.w3.org/TR/2001/REC-SVG-20010904/DTD/svg10.dtd">
<svg version="1.0" xmlns="http://www.w3.org/2000/svg"
 width="262" height="348" viewBox="0 0 262 348"
 preserveAspectRatio="xMidYMid meet">
<metadata>
Created by potrace 1.16, written by Peter Selinger 2001-2019
</metadata>
<g transform="translate(0,348) scale(0.012500,-0.012500)"
fill="#000000" stroke="none">
<path d="M2710 27825 c0 -22 -68 -94 -110 -115 -21 -11 -59 -24 -86 -31 -27
-7 -62 -19 -79 -27 -77 -39 -380 -341 -433 -432 -11 -19 -31 -76 -45 -126 -14
-50 -32 -104 -40 -120 -17 -33 -90 -104 -107 -104 -7 0 -10 -4359 -10 -12983
l0 -12982 36 -20 c47 -25 85 -83 114 -170 32 -99 53 -137 130 -240 112 -147
190 -220 324 -297 91 -52 122 -81 142 -135 l17 -43 7957 0 7957 0 12 39 c15
52 59 95 118 116 113 40 129 51 241 162 90 90 119 127 147 185 43 88 58 106
113 130 l42 19 0 13250 c0 12610 -1 13250 -17 13255 -86 28 -118 58 -175 166
-33 62 -62 99 -128 160 -113 106 -149 130 -288 189 -120 52 -171 89 -193 140
l-11 29 -7814 0 c-6932 0 -7814 -2 -7814 -15z m15200 -958 c73 -8 141 -21 163
-32 28 -13 61 -49 121 -129 46 -61 91 -126 101 -145 16 -33 17 -630 20 -12595
1 -6909 5 -12584 10 -12613 11 -79 1 -114 -56 -179 -28 -32 -67 -82 -87 -111
-35 -53 -83 -85 -277 -187 l-40 -21 -7300 0 c-5773 0 -7317 3 -7380 12 -94 15
-195 62 -281 132 -70 55 -99 97 -119 165 -13 45 -15 1600 -12 12741 l2 12690
23 49 c13 29 52 78 96 122 118 115 55 107 906 114 399 3 3709 4 7355 3 5573
-2 6650 -4 6755 -16z"/>
<path d="M4217 26514 c-4 -4 -208 -7 -454 -8 -401 -1 -452 -3 -484 -18 -54
-25 -97 -65 -122 -112 -21 -39 -22 -54 -25 -341 -2 -165 1 -349 6 -410 8 -85
7 -127 -3 -185 -29 -156 -14 -232 54 -277 31 -21 42 -22 120 -17 121 8 203 34
291 94 52 36 101 59 164 78 89 26 91 28 208 137 128 120 300 301 318 335 6 12
24 59 39 105 16 45 42 104 60 130 100 148 141 340 91 423 -34 55 -73 72 -171
72 -47 0 -89 -3 -92 -6z"/>
<path d="M4960 26503 c-49 -17 -96 -72 -114 -135 -9 -29 -20 -114 -26 -188
-11 -159 -16 -177 -71 -278 -23 -42 -66 -120 -94 -173 -38 -72 -67 -112 -113
-153 -33 -32 -77 -85 -96 -119 -43 -77 -193 -218 -288 -270 -41 -23 -84 -58
-110 -88 -52 -62 -98 -89 -207 -123 -46 -15 -121 -47 -165 -71 -99 -53 -172
-71 -334 -80 -101 -6 -128 -11 -155 -29 -66 -44 -83 -131 -52 -276 13 -63 15
-1300 15 -10633 0 -9300 -2 -10569 -15 -10617 -35 -129 -7 -232 75 -275 14 -7
73 -22 131 -33 111 -21 396 -115 489 -161 174 -87 317 -179 404 -261 136 -129
184 -177 268 -277 91 -107 106 -131 148 -236 17 -43 46 -103 65 -133 43 -68
80 -141 89 -177 4 -15 10 -90 15 -166 11 -165 27 -208 94 -243 l42 -22 5525 0
c5213 -1 5528 0 5581 16 108 34 135 73 148 211 8 80 15 106 50 176 27 53 48
115 61 177 23 113 27 120 94 193 28 31 71 90 94 131 49 87 185 243 257 296 28
20 73 58 100 84 28 27 82 64 120 83 39 19 99 58 133 86 81 66 103 77 193 97
41 9 110 31 155 50 44 18 122 42 172 53 145 32 193 64 226 154 14 38 16 1143
24 10812 6 8151 5 10777 -4 10800 -23 60 -111 115 -185 115 -16 0 -75 9 -131
20 -85 16 -127 31 -243 89 -77 38 -163 77 -192 86 -28 9 -80 37 -115 64 -35
26 -97 70 -138 99 -42 28 -134 111 -205 184 -111 114 -138 148 -184 233 -30
55 -71 125 -91 155 -56 83 -77 130 -106 232 -14 51 -36 127 -50 168 -13 41
-28 102 -33 136 -16 103 -31 143 -65 177 -57 57 -167 73 -289 41 -54 -14 -93
-14 -337 -4 -410 17 -10511 20 -10560 3z m10746 -428 c92 -35 141 -116 180
-300 31 -147 42 -173 109 -255 30 -36 72 -102 94 -146 21 -44 61 -107 89 -140
27 -32 65 -90 85 -129 39 -77 62 -102 155 -164 34 -23 62 -45 62 -49 0 -23 91
-98 155 -127 39 -18 104 -60 145 -92 90 -72 111 -83 220 -116 47 -15 124 -44
170 -65 47 -22 123 -52 170 -67 99 -33 141 -69 158 -138 9 -33 12 -2686 12
-10062 0 -6119 4 -10062 9 -10133 6 -65 13 -217 16 -338 6 -190 5 -230 -9
-278 -20 -68 -71 -128 -136 -161 -46 -23 -176 -55 -225 -55 -48 0 -135 -38
-217 -96 -50 -35 -111 -67 -162 -84 -73 -26 -87 -35 -146 -98 -36 -38 -92 -89
-125 -113 -72 -52 -170 -149 -247 -244 -31 -38 -77 -90 -103 -115 -50 -48 -82
-102 -110 -188 -9 -30 -40 -83 -67 -119 -68 -89 -94 -151 -113 -268 -29 -180
-78 -249 -195 -276 -57 -14 -10263 -12 -10312 2 -66 17 -101 61 -133 164 -15
50 -49 131 -75 180 -27 50 -60 119 -73 155 -38 103 -70 159 -132 235 -32 39
-71 99 -87 135 -19 43 -50 87 -92 130 -35 36 -76 85 -91 109 -37 60 -71 90
-135 118 -30 14 -81 49 -112 79 -40 38 -85 67 -154 99 -54 25 -122 64 -152 86
-77 59 -145 86 -277 114 -195 40 -236 61 -278 138 l-22 42 -5 10395 c-4 7645
-2 10408 6 10443 13 55 49 98 102 120 72 31 368 145 462 178 67 24 109 46 145
76 27 23 88 70 135 103 134 95 368 333 492 500 30 41 68 86 83 100 35 32 48
59 91 181 19 55 61 157 93 227 32 70 68 154 80 187 30 82 46 104 90 123 34 16
399 17 5186 15 4603 -2 5154 -4 5191 -18z"/>
<path d="M5680 25763 c-55 -9 -91 -26 -115 -54 -54 -65 -16 -133 107 -189 40
-18 96 -49 123 -70 28 -20 84 -58 125 -84 41 -26 109 -80 150 -120 41 -40 110
-103 152 -140 81 -71 118 -129 118 -185 0 -52 -24 -87 -74 -106 -42 -16 -58
-16 -258 -1 -350 27 -437 48 -520 122 -61 54 -115 77 -186 78 -58 1 -66 -2
-88 -27 -30 -35 -31 -85 -4 -144 14 -33 35 -53 89 -87 60 -39 79 -59 124 -129
30 -46 65 -92 79 -103 39 -31 57 -66 84 -165 26 -98 46 -137 108 -204 94 -104
62 -246 -62 -273 -66 -15 -107 1 -182 73 -74 71 -106 89 -170 100 -71 11 -110
32 -170 89 -31 30 -78 65 -106 79 -56 29 -90 62 -127 129 -45 79 -126 118
-200 97 -45 -12 -57 -33 -57 -97 0 -72 25 -134 82 -198 28 -32 57 -72 64 -89
21 -50 42 -155 49 -241 4 -43 20 -146 36 -228 19 -93 27 -161 23 -180 -17 -81
-59 -116 -141 -116 -63 0 -93 20 -184 120 -41 46 -104 116 -141 157 -36 41
-83 106 -103 146 -21 40 -61 96 -89 125 -33 34 -67 85 -96 145 -37 76 -51 95
-81 110 -32 15 -41 16 -75 5 -58 -19 -84 -77 -84 -183 1 -44 6 -107 13 -140 9
-47 10 -523 4 -2150 -13 -3251 -6 -17166 9 -17435 4 -92 1 -141 -15 -240 -23
-139 -26 -207 -11 -262 23 -80 89 -123 150 -98 37 15 54 42 86 132 15 40 35
91 47 113 27 54 191 257 263 326 33 30 82 83 111 116 108 125 252 141 308 33
20 -39 19 -79 -6 -180 -13 -55 -22 -134 -25 -225 -7 -190 -8 -194 -64 -267
-102 -133 -103 -288 0 -288 40 0 88 30 234 146 61 49 106 75 179 104 68 26
116 54 160 89 74 62 132 81 239 81 95 0 140 -17 168 -62 40 -66 21 -144 -55
-231 -26 -30 -58 -84 -76 -127 -58 -140 -74 -163 -177 -258 -109 -100 -142
-152 -142 -219 0 -51 20 -73 66 -73 70 0 265 49 352 88 75 35 103 42 202 51
180 18 320 17 357 -2 61 -32 94 -102 78 -164 -3 -16 -27 -46 -52 -68 -25 -22
-80 -72 -122 -110 -42 -39 -92 -82 -111 -95 -19 -13 -67 -52 -106 -86 -73 -63
-119 -85 -216 -104 -92 -18 -153 -70 -165 -143 -9 -56 11 -93 61 -111 112 -39
311 -41 4696 -41 4462 0 4970 4 5050 43 41 20 56 54 46 106 -10 55 -54 96
-157 148 -76 39 -111 65 -184 137 -165 163 -263 266 -275 291 -8 14 -13 51
-13 83 0 68 20 102 78 131 35 18 47 18 193 7 215 -17 291 -33 397 -85 91 -45
258 -91 306 -84 21 3 24 8 22 46 -1 24 -11 72 -23 106 -21 64 -52 101 -135
161 -48 35 -56 44 -100 119 -20 32 -53 79 -75 105 -30 35 -51 80 -89 190 -28
79 -51 155 -51 168 0 63 51 93 159 93 93 0 169 -25 277 -92 49 -30 121 -67
160 -82 81 -30 96 -43 153 -124 46 -65 89 -93 169 -112 102 -24 119 -2 101
125 -12 86 -29 141 -63 200 -34 59 -42 90 -81 318 -28 166 -33 217 -25 250 10
47 57 96 93 98 88 6 145 -16 185 -70 15 -20 68 -77 117 -128 209 -213 249
-260 285 -334 19 -41 44 -86 54 -101 38 -57 117 -84 167 -58 10 6 27 25 36 43
16 28 18 66 21 277 5 394 7 8900 4 14701 -3 4749 -5 5348 -18 5367 -11 17 -25
22 -57 22 -117 0 -180 -51 -216 -176 -36 -122 -56 -153 -201 -306 -74 -79
-159 -169 -189 -201 -82 -87 -166 -101 -230 -37 -82 83 -62 277 75 700 118
365 125 387 118 403 -9 24 -35 25 -78 4 -22 -11 -69 -30 -105 -44 -90 -33
-104 -44 -150 -112 -23 -33 -59 -72 -82 -88 -23 -15 -74 -58 -113 -94 -44 -41
-97 -78 -141 -98 -38 -18 -101 -56 -139 -84 -63 -47 -75 -52 -132 -55 -62 -4
-65 -3 -99 31 -31 31 -35 41 -35 85 0 71 27 218 51 271 11 25 46 87 79 136 32
50 76 123 97 164 31 61 52 86 113 136 84 69 120 127 128 204 4 43 2 50 -24 70
-25 20 -36 22 -84 17 -113 -13 -164 -40 -225 -120 -36 -47 -98 -76 -163 -76
-28 0 -117 -12 -199 -26 -292 -51 -453 -11 -453 112 0 59 41 117 183 256 110
108 153 144 203 168 35 16 92 56 127 88 70 63 103 80 217 113 96 27 146 72
136 122 -7 40 -53 82 -103 96 -55 16 -199 13 -284 -4 -66 -14 -488 -15 -3784
-10 -2041 3 -4005 8 -4365 13 -386 4 -711 3 -791 -2 -95 -7 -171 -6 -250 2
-149 15 -228 20 -259 15z m4847 -3185 c59 -63 161 -228 184 -296 40 -121 73
-169 226 -327 69 -72 156 -73 263 -4 73 47 323 134 415 144 180 20 243 -72
159 -232 -20 -37 -45 -93 -56 -123 -17 -49 -60 -264 -75 -377 -16 -120 51
-198 195 -224 70 -13 121 -39 191 -96 74 -60 99 -72 191 -88 90 -16 129 -33
158 -70 66 -83 12 -205 -103 -236 -148 -40 -177 -52 -252 -103 -86 -59 -131
-82 -229 -116 -82 -29 -134 -82 -141 -142 -6 -51 47 -323 75 -389 11 -24 37
-73 58 -109 55 -90 64 -114 64 -165 0 -98 -42 -135 -157 -135 -92 0 -159 15
-242 52 -329 150 -441 163 -499 60 -11 -21 -32 -82 -46 -137 -15 -55 -54 -158
-88 -229 -41 -88 -72 -172 -96 -265 l-36 -136 1 -305 c0 -518 21 -1599 33
-1710 8 -78 8 -216 0 -545 -14 -525 -6 -637 49 -725 30 -48 47 -51 91 -13 71
59 93 116 120 309 27 196 75 410 105 464 65 117 78 154 96 274 23 148 35 186
95 284 28 46 61 123 85 195 29 91 50 135 86 186 27 36 68 102 92 146 23 44 59
98 80 120 60 64 87 105 122 189 21 53 51 101 89 145 31 36 76 96 99 133 26 41
62 82 92 104 27 20 70 65 95 100 25 36 65 78 89 94 24 16 71 61 105 100 35 38
83 82 108 96 25 15 74 54 109 86 47 44 93 73 176 112 62 30 137 75 167 100 55
47 76 55 280 112 30 9 88 34 129 56 114 62 171 78 341 94 85 8 209 24 276 34
158 26 216 15 248 -49 42 -81 26 -191 -40 -284 -53 -75 -83 -135 -125 -246
-27 -71 -41 -94 -91 -143 -44 -43 -70 -81 -98 -141 -21 -45 -49 -96 -62 -113
-127 -169 -175 -228 -229 -280 -167 -159 -230 -214 -299 -261 -41 -28 -99 -72
-128 -97 -29 -25 -90 -63 -135 -85 -47 -23 -105 -61 -137 -90 -66 -61 -98 -78
-193 -97 -44 -9 -113 -35 -177 -67 l-105 -52 -155 -6 c-85 -4 -171 -12 -190
-19 -89 -33 -210 -151 -260 -255 -16 -33 -41 -109 -55 -168 -13 -59 -41 -143
-61 -185 -63 -135 -93 -219 -123 -340 -16 -66 -46 -157 -66 -203 -46 -102
-101 -263 -119 -344 -41 -184 -92 -356 -126 -428 -44 -92 -75 -228 -67 -290 7
-54 35 -80 85 -79 78 1 122 32 250 179 50 57 79 81 143 114 58 30 94 57 127
96 27 31 76 72 114 94 36 21 89 64 116 94 27 31 69 70 93 87 24 18 76 62 114
98 39 37 95 83 125 102 30 19 84 62 120 95 36 33 93 78 128 102 34 23 91 69
126 102 35 34 92 75 127 92 44 22 75 48 104 83 22 28 65 69 95 90 29 21 86 68
125 104 38 36 97 81 130 100 33 18 98 59 145 90 47 32 119 70 160 85 41 15
121 54 178 87 127 75 158 86 297 105 60 8 166 26 235 40 189 38 469 44 640 13
69 -12 166 -27 216 -35 104 -15 148 -34 169 -75 31 -60 13 -116 -67 -212 -25
-29 -60 -75 -78 -103 -18 -27 -59 -77 -90 -110 -32 -33 -74 -86 -94 -118 -22
-34 -63 -78 -101 -108 -35 -27 -81 -72 -101 -100 -20 -27 -57 -64 -83 -81 -25
-17 -80 -63 -121 -102 -50 -47 -104 -86 -160 -115 -47 -24 -110 -61 -140 -81
-84 -57 -108 -67 -239 -100 -87 -22 -154 -47 -229 -85 -125 -63 -179 -75 -362
-75 -69 -1 -183 -5 -255 -10 -87 -6 -170 -6 -251 1 -182 17 -289 -15 -404
-118 -30 -28 -85 -64 -122 -82 -42 -20 -96 -58 -141 -100 -41 -37 -101 -83
-134 -100 -33 -18 -98 -64 -143 -102 -45 -38 -108 -87 -139 -108 -31 -22 -72
-56 -91 -76 -19 -21 -65 -57 -101 -80 -36 -23 -87 -68 -114 -100 -27 -31 -73
-72 -102 -91 -84 -54 -112 -118 -79 -182 34 -67 135 -75 254 -22 l74 34 101
-12 c139 -16 1278 -19 1327 -3 19 6 65 32 102 57 37 25 101 59 144 75 81 31
120 54 169 100 56 52 110 68 287 83 150 14 173 18 254 52 87 36 93 37 269 46
299 15 665 -5 775 -43 36 -12 72 -25 81 -30 21 -11 118 -26 258 -39 133 -14
170 -25 248 -78 81 -55 108 -67 193 -87 96 -23 124 -37 185 -94 28 -26 80 -64
118 -85 82 -46 97 -66 97 -129 0 -103 -67 -162 -247 -216 -52 -15 -90 -36
-135 -71 -100 -79 -140 -99 -224 -115 -99 -19 -152 -36 -278 -92 -161 -71
-255 -91 -488 -104 -243 -14 -732 -6 -929 15 -151 16 -188 28 -289 97 -68 47
-98 57 -239 83 -85 15 -103 24 -205 106 -84 66 -134 74 -424 67 -429 -10 -734
-35 -987 -82 -111 -20 -192 -19 -267 5 -80 25 -109 25 -142 -1 -44 -35 -37
-81 30 -180 74 -110 93 -129 167 -173 35 -20 86 -60 115 -90 28 -29 79 -68
113 -86 34 -18 91 -59 127 -92 36 -33 98 -76 136 -95 45 -23 97 -61 141 -104
52 -50 91 -77 149 -104 43 -19 103 -56 134 -81 75 -61 140 -93 209 -102 32 -4
184 -4 338 -1 341 8 665 -5 792 -31 68 -13 121 -33 200 -73 60 -30 151 -69
203 -87 70 -23 113 -45 165 -85 39 -29 104 -74 145 -100 41 -26 104 -75 140
-109 36 -34 88 -79 117 -100 29 -22 67 -60 85 -85 18 -25 66 -82 108 -126 43
-46 92 -111 115 -154 22 -41 64 -100 92 -133 69 -76 85 -109 91 -185 8 -106
-24 -149 -133 -177 -85 -23 -514 -38 -711 -26 -229 14 -338 37 -464 100 -30
15 -107 44 -170 65 -63 20 -135 43 -159 51 -24 7 -78 36 -120 62 -42 27 -113
68 -159 91 -47 24 -109 66 -143 97 -39 36 -90 69 -142 93 -46 21 -111 62 -147
93 -36 30 -96 75 -135 100 -38 25 -93 70 -121 100 -28 30 -77 73 -110 96 -32
22 -83 68 -113 102 -53 60 -71 73 -161 104 -25 9 -77 42 -117 75 -39 32 -105
77 -146 99 -50 28 -91 60 -121 96 -34 39 -69 66 -125 95 -43 22 -105 65 -139
95 -34 30 -97 73 -141 96 -66 34 -90 54 -136 111 -71 88 -120 121 -188 127
-46 3 -55 1 -76 -22 -22 -23 -23 -31 -19 -108 5 -93 22 -134 87 -213 51 -62
66 -106 91 -278 22 -146 38 -202 69 -245 61 -88 96 -193 121 -367 16 -113 33
-160 90 -244 31 -46 58 -100 71 -145 39 -136 50 -162 96 -241 26 -44 65 -116
88 -160 82 -162 103 -175 274 -175 122 0 325 -30 401 -59 25 -10 73 -36 108
-59 61 -39 86 -50 219 -87 41 -12 85 -35 130 -69 37 -28 100 -70 138 -93 41
-24 90 -64 118 -97 26 -31 69 -70 95 -88 68 -45 237 -219 279 -286 19 -31 68
-88 107 -127 44 -44 85 -96 109 -140 20 -38 57 -98 81 -131 24 -34 51 -81 59
-105 9 -24 26 -70 38 -103 12 -32 45 -93 75 -137 125 -182 143 -458 33 -515
-41 -21 -112 -15 -229 19 -47 14 -136 32 -199 42 -128 18 -148 25 -241 82 -36
22 -113 58 -172 80 -108 41 -154 65 -240 127 -26 19 -89 51 -139 72 -74 31
-107 51 -163 104 -39 36 -93 78 -121 94 -27 16 -84 62 -125 102 -41 40 -128
124 -194 186 -65 62 -138 143 -162 179 -25 37 -69 88 -100 114 -30 26 -71 72
-90 102 -19 30 -60 80 -92 111 -35 35 -75 91 -105 145 -26 48 -65 111 -86 140
-38 50 -101 166 -101 186 0 5 -29 53 -65 107 -51 76 -72 120 -97 198 -36 118
-55 159 -113 241 -58 82 -59 84 -100 226 -19 68 -58 169 -85 224 -55 109 -78
201 -104 409 -11 85 -23 135 -41 172 -38 78 -161 182 -185 158 -6 -6 -19 -57
-30 -114 -20 -100 -21 -140 -19 -1266 0 -640 -1 -1167 -4 -1171 -3 -5 -8 -214
-11 -465 -5 -493 -5 -494 50 -661 21 -62 37 -90 78 -135 29 -31 71 -84 94
-118 74 -110 109 -119 297 -74 137 33 207 60 277 108 107 73 246 79 312 13 27
-28 31 -38 31 -89 0 -51 -5 -66 -46 -132 -66 -106 -79 -142 -89 -251 -5 -53
-18 -123 -29 -156 -30 -91 -34 -118 -18 -156 18 -42 46 -69 113 -107 28 -16
77 -51 108 -79 70 -60 107 -78 259 -121 151 -44 235 -84 265 -129 57 -86 8
-156 -147 -211 -51 -19 -120 -51 -152 -71 -83 -54 -101 -63 -219 -103 -120
-41 -165 -77 -201 -160 -31 -73 -28 -151 16 -331 30 -124 45 -165 85 -235 84
-149 94 -248 29 -309 -40 -37 -93 -29 -228 38 -66 32 -139 62 -163 66 -130 19
-146 26 -213 80 -70 58 -110 72 -172 60 -54 -10 -86 -49 -117 -143 -19 -57
-44 -104 -76 -146 -66 -86 -83 -124 -115 -253 -51 -211 -141 -302 -245 -248
-31 16 -56 57 -91 151 -14 38 -41 78 -79 119 -62 66 -72 88 -94 207 -26 134
-73 211 -165 270 -36 22 -56 28 -102 28 -70 0 -101 -11 -154 -54 -61 -50 -97
-65 -182 -76 -76 -11 -116 -26 -239 -95 -45 -26 -56 -28 -89 -20 -46 12 -75
48 -82 102 -4 31 4 68 36 158 25 73 41 137 41 166 0 79 18 148 55 208 72 116
58 170 -74 287 -61 54 -117 92 -191 129 -58 29 -141 77 -186 107 -45 29 -104
65 -131 80 -62 33 -90 82 -74 130 28 79 124 151 271 204 41 14 95 40 119 56
73 48 211 170 232 204 26 42 24 105 -5 192 -14 39 -32 109 -40 154 -12 61 -34
120 -83 222 -56 117 -67 148 -67 191 0 152 143 168 359 40 84 -49 108 -59 200
-81 39 -9 102 -30 142 -45 96 -39 151 -39 196 1 41 36 187 249 209 306 9 22
28 84 43 138 l27 98 -5 772 c-14 2150 -18 2523 -28 2567 -14 63 -44 109 -70
109 -32 0 -83 -35 -113 -79 -50 -71 -66 -132 -111 -409 -17 -103 -30 -143
-105 -315 -28 -64 -60 -159 -71 -210 -21 -97 -38 -132 -106 -219 -31 -40 -47
-73 -59 -124 -36 -148 -45 -173 -79 -220 -75 -103 -96 -141 -114 -200 -33
-103 -49 -134 -105 -195 -30 -33 -73 -94 -96 -137 -22 -42 -63 -104 -91 -136
-28 -33 -69 -87 -92 -120 -59 -89 -180 -218 -368 -395 -123 -116 -184 -166
-239 -196 -41 -22 -104 -68 -141 -102 -41 -39 -90 -73 -131 -92 -36 -16 -108
-58 -161 -94 -53 -36 -115 -71 -139 -77 -83 -21 -104 -31 -217 -94 -125 -71
-145 -77 -338 -106 -73 -11 -185 -33 -249 -50 -96 -25 -123 -28 -153 -20 -70
19 -101 73 -101 175 0 79 18 134 80 242 27 47 67 133 90 191 28 73 58 129 94
177 29 39 74 111 100 161 28 55 71 118 109 161 35 38 83 97 107 131 23 34 47
62 51 62 5 0 60 51 123 113 197 194 289 274 376 327 47 29 113 74 147 102 41
32 95 62 155 85 51 20 109 45 128 56 172 96 290 127 486 127 146 0 183 15 248
99 24 31 65 74 90 95 55 44 76 83 105 189 21 78 52 148 76 177 35 40 78 149
100 252 38 174 53 217 107 298 57 88 69 125 103 321 23 136 29 156 84 265 87
174 105 232 105 337 1 77 -2 90 -19 103 -32 24 -66 28 -125 16 -58 -12 -88
-37 -155 -134 -17 -24 -58 -61 -91 -83 -34 -22 -83 -60 -111 -85 -27 -25 -82
-63 -122 -85 -40 -22 -105 -68 -144 -102 -47 -41 -89 -69 -122 -79 -39 -13
-67 -35 -126 -94 -42 -43 -104 -94 -138 -114 -34 -19 -89 -58 -122 -86 -34
-28 -96 -69 -140 -90 -55 -28 -96 -58 -136 -101 -36 -38 -84 -74 -128 -97 -39
-21 -94 -62 -125 -92 -30 -31 -84 -73 -120 -95 -36 -21 -94 -62 -130 -90 -73
-59 -109 -79 -160 -90 -53 -11 -121 -49 -180 -99 -66 -57 -102 -74 -193 -91
-78 -15 -121 -30 -283 -101 -154 -67 -236 -83 -480 -94 -216 -10 -632 1 -706
19 -97 23 -142 80 -135 174 3 55 6 60 64 120 34 34 80 94 103 132 23 39 59 90
79 114 20 24 57 70 82 102 44 56 166 174 338 327 51 44 107 84 147 102 43 19
88 52 133 95 72 69 96 81 233 110 53 11 95 28 137 55 173 112 243 122 891 125
336 1 476 5 504 14 22 7 66 39 105 75 36 34 95 78 131 98 36 20 94 62 129 93
39 34 100 73 155 100 69 33 104 57 146 102 31 32 83 72 115 90 33 17 83 55
110 83 28 29 82 73 120 100 123 84 225 210 225 279 0 43 -9 60 -41 76 -39 21
-70 19 -176 -12 l-94 -27 -112 22 c-121 24 -231 35 -542 52 -110 6 -276 15
-370 20 -319 19 -339 16 -477 -72 -48 -30 -109 -61 -135 -68 -102 -26 -232
-69 -325 -109 -181 -78 -336 -99 -768 -108 -382 -9 -691 22 -865 83 -166 60
-305 104 -395 125 -100 25 -102 25 -205 95 -46 31 -116 67 -164 84 -198 70
-282 166 -238 272 13 30 27 42 84 68 37 18 97 54 133 80 85 62 91 65 190 89
70 17 101 32 173 82 48 33 106 67 129 75 38 13 175 35 298 48 31 3 96 19 144
36 49 17 137 37 200 45 61 9 136 19 166 24 108 19 207 22 315 11 174 -18 420
-58 545 -90 63 -15 138 -31 165 -35 87 -11 186 -45 264 -91 42 -24 144 -71
226 -105 264 -108 230 -100 405 -93 132 5 175 3 288 -16 124 -20 158 -21 450
-16 175 3 340 8 368 12 44 5 62 1 125 -27 158 -69 331 -41 355 58 12 48 -22
92 -127 163 -97 65 -168 124 -308 256 -42 39 -98 85 -124 103 -26 18 -67 57
-91 88 -41 52 -118 113 -142 113 -7 0 -45 30 -86 68 -48 43 -106 83 -162 111
-61 30 -105 62 -149 106 -94 94 -130 109 -257 110 -58 0 -177 -6 -265 -14
-148 -13 -181 -13 -440 7 l-280 21 -120 60 c-71 36 -155 69 -205 81 -112 28
-141 41 -214 96 -33 26 -103 66 -153 90 -70 32 -110 59 -165 111 -40 38 -94
83 -119 100 -25 18 -69 59 -97 91 -29 33 -77 79 -108 103 -31 23 -71 66 -89
95 -18 28 -61 82 -94 119 -34 37 -78 95 -97 129 -20 33 -56 87 -80 118 -81
103 -90 159 -36 211 69 66 273 108 523 108 146 0 250 -11 454 -51 83 -16 202
-38 265 -50 97 -17 137 -31 250 -85 79 -38 176 -75 235 -90 104 -27 119 -34
200 -98 27 -21 79 -54 115 -72 47 -24 82 -52 122 -97 45 -51 73 -72 139 -105
48 -23 111 -65 146 -96 35 -31 90 -75 124 -97 33 -23 91 -70 127 -104 37 -34
93 -81 124 -104 32 -23 68 -56 80 -73 13 -17 60 -55 104 -85 45 -29 102 -77
127 -107 29 -34 71 -67 115 -91 39 -21 94 -58 123 -82 30 -25 90 -69 134 -98
44 -29 110 -80 147 -112 36 -32 87 -76 112 -97 25 -21 64 -65 88 -98 37 -53
53 -66 129 -104 48 -24 104 -56 125 -70 47 -32 85 -30 98 6 7 20 2 39 -23 90
-21 44 -38 103 -51 180 -21 122 -47 207 -103 335 -35 77 -73 218 -96 354 -17
101 -54 224 -104 350 -25 63 -58 158 -72 211 -35 132 -64 201 -135 315 -33 54
-60 102 -60 106 0 25 -91 146 -156 208 -103 98 -150 118 -300 129 -134 11
-121 7 -270 72 -75 33 -141 54 -205 65 -112 19 -133 29 -209 99 -60 55 -106
83 -172 104 -20 7 -56 29 -80 50 -23 21 -86 70 -139 108 -114 84 -308 279
-399 403 -36 48 -83 107 -104 131 -21 23 -56 80 -78 126 -22 46 -59 106 -84
134 -66 74 -73 88 -104 208 -34 130 -35 132 -96 202 -66 78 -86 123 -92 205
-5 86 9 134 49 169 41 34 79 32 202 -9 119 -41 213 -61 354 -76 126 -13 224
-40 313 -85 71 -36 233 -102 305 -125 22 -7 71 -33 109 -57 38 -24 110 -64
160 -89 69 -34 106 -60 152 -108 33 -34 87 -77 119 -96 88 -50 417 -390 482
-497 19 -32 58 -83 88 -113 31 -34 70 -90 95 -141 23 -46 66 -118 95 -159 29
-41 67 -105 84 -142 18 -38 55 -96 82 -130 64 -79 74 -98 100 -195 25 -92 49
-143 94 -198 50 -62 71 -110 103 -241 16 -66 46 -161 67 -210 79 -190 86 -217
115 -412 32 -219 58 -291 130 -356 73 -66 118 -39 144 87 13 60 16 215 21 907
3 459 12 1058 20 1330 12 447 15 503 35 580 27 109 36 234 21 295 -6 25 -31
90 -55 143 -23 53 -55 147 -70 207 -19 76 -48 151 -92 242 -73 151 -105 182
-193 191 -60 5 -107 -9 -190 -59 -36 -22 -101 -50 -145 -65 -45 -14 -103 -34
-131 -44 -57 -22 -212 -27 -248 -9 -64 33 -73 97 -26 185 17 33 37 77 45 98
25 69 94 400 94 449 0 95 -50 154 -185 219 -44 21 -114 62 -155 91 -41 29
-118 70 -170 91 -117 46 -157 76 -182 134 -41 92 -3 146 139 193 66 22 124 50
191 95 59 39 123 72 166 86 90 28 147 71 166 126 13 38 12 52 -9 164 -13 68
-30 159 -37 203 -10 57 -30 112 -68 190 -30 61 -57 123 -60 138 -9 41 11 103
41 126 55 44 245 19 366 -48 96 -52 310 -138 368 -146 67 -10 124 9 175 58 58
55 126 178 165 296 42 127 129 309 164 344 40 39 91 38 132 -5z"/>
<path d="M16672 26508 c-18 -6 -46 -26 -62 -45 -25 -29 -30 -42 -30 -88 0 -31
9 -78 20 -107 12 -29 28 -98 36 -153 18 -120 36 -162 101 -240 27 -33 69 -97
94 -143 51 -97 90 -140 219 -242 187 -148 236 -177 360 -213 30 -9 91 -38 135
-64 86 -51 139 -64 215 -51 54 10 97 49 109 98 4 19 9 280 10 580 l2 545 -23
45 c-35 67 -73 85 -183 84 -559 -5 -758 -5 -855 0 -73 3 -127 1 -148 -6z"/>
<path d="M3219 2587 c-68 -36 -94 -96 -92 -212 1 -49 3 -207 6 -350 2 -143 7
-280 11 -305 5 -29 2 -72 -8 -120 -33 -154 -17 -243 51 -287 25 -17 66 -18
611 -19 641 -1 621 -2 666 59 17 23 21 43 21 100 -1 65 -5 81 -44 157 -24 47
-52 108 -61 135 -54 156 -113 275 -164 331 -29 33 -71 85 -94 116 -54 74 -86
103 -141 129 -24 11 -85 50 -135 86 -108 78 -145 95 -280 129 -55 14 -133 36
-173 50 -89 30 -118 30 -174 1z"/>
<path d="M17595 2555 c-52 -22 -113 -38 -170 -45 -118 -16 -145 -28 -207 -95
-29 -31 -78 -74 -108 -95 -75 -51 -231 -212 -282 -291 -24 -35 -65 -91 -92
-124 -57 -70 -71 -100 -91 -194 -8 -37 -26 -99 -41 -137 -34 -90 -38 -180 -9
-220 44 -58 50 -59 625 -59 514 0 526 0 565 21 72 38 79 60 87 304 10 298 -8
863 -30 909 -32 69 -123 79 -247 26z"/>
</g>
</svg>
