<?xml version="1.0" standalone="no"?>
<!DOCTYPE svg PUBLIC "-//W3C//DTD SVG 20010904//EN"
 "http://www.w3.org/TR/2001/REC-SVG-20010904/DTD/svg10.dtd">
<svg version="1.0" xmlns="http://www.w3.org/2000/svg"
 width="262" height="348" viewBox="0 0 262 348"
 preserveAspectRatio="xMidYMid meet">
<metadata>
Created by potrace 1.16, written by Peter Selinger 2001-2019
</metadata>
<g transform="translate(0,348) scale(0.012500,-0.012500)"
fill="#000000" stroke="none">
<path d="M2732 27816 c-25 -56 -72 -94 -154 -126 -97 -36 -175 -82 -280 -163
-95 -72 -131 -115 -198 -237 -62 -113 -99 -155 -154 -173 l-41 -14 -3 -13216
c-2 -11896 0 -13217 13 -13217 9 0 34 -9 56 -21 41 -21 50 -35 114 -186 21
-49 204 -242 255 -268 18 -9 56 -24 84 -32 28 -8 63 -24 79 -35 28 -20 67 -85
67 -113 0 -13 793 -15 7889 -15 l7889 0 17 50 c21 63 53 90 157 132 72 29 95
45 175 122 108 103 138 147 188 273 40 100 94 172 145 193 l30 12 0 13108 0
13108 -30 7 c-47 10 -83 55 -123 152 -26 63 -55 111 -102 167 -36 43 -75 92
-86 108 -22 31 -197 176 -251 207 -18 11 -66 31 -106 45 -86 29 -134 63 -164
116 l-23 40 -7716 0 -7716 0 -11 -24z m15090 -951 c79 -21 112 -41 175 -107
38 -40 58 -74 82 -138 18 -47 46 -119 63 -160 29 -71 30 -79 22 -155 -10 -98
-9 1578 -8 -12565 1 -6641 0 -12154 -1 -12250 -1 -133 -5 -188 -18 -230 -27
-87 -79 -182 -123 -226 -54 -54 -181 -129 -264 -155 l-65 -20 -7250 1 -7249 0
-46 25 c-25 13 -85 46 -134 71 -81 43 -92 53 -131 114 -24 37 -64 91 -90 120
-25 29 -51 63 -56 77 -7 18 -10 19834 -4 24953 0 289 6 320 74 402 21 26 61
78 89 115 53 72 98 104 172 124 78 21 1213 24 8092 22 6078 -2 6611 -3 6670
-18z"/>
<path d="M5105 26521 c-166 -12 -194 -44 -241 -279 -14 -70 -41 -165 -60 -212
-19 -47 -55 -138 -79 -204 -25 -65 -56 -137 -70 -160 -114 -183 -154 -238
-206 -279 -30 -25 -73 -71 -95 -102 -24 -36 -62 -73 -99 -98 -33 -22 -89 -68
-125 -102 -66 -63 -113 -92 -185 -115 -22 -7 -83 -34 -135 -60 -117 -59 -187
-76 -364 -90 -184 -14 -214 -28 -253 -115 -17 -38 -17 -545 -17 -10795 0
-10164 1 -10757 17 -10795 38 -86 66 -100 262 -130 159 -25 219 -44 320 -100
33 -18 92 -46 130 -61 127 -50 296 -167 442 -305 156 -148 155 -147 231 -275
33 -55 75 -125 95 -157 20 -32 55 -118 78 -190 23 -73 53 -157 66 -187 14 -30
35 -110 49 -179 19 -102 29 -131 52 -160 57 -71 72 -75 317 -82 121 -4 2571
-6 5445 -5 l5225 1 42 22 c74 40 92 79 123 275 23 144 41 200 98 296 22 37 53
110 71 162 22 68 47 118 89 177 31 45 71 106 87 135 20 34 52 70 96 103 36 27
83 72 105 98 21 26 70 69 109 94 38 26 97 67 130 91 78 57 116 76 195 96 35 9
96 36 135 60 99 61 144 76 259 86 207 18 250 34 294 110 l27 45 0 10780 0
10780 -20 35 c-36 60 -70 72 -244 86 -224 19 -272 32 -468 129 -146 72 -179
92 -234 147 -35 35 -93 78 -129 97 -92 49 -194 155 -248 258 -24 46 -67 109
-96 140 -64 70 -67 76 -112 204 -19 56 -48 124 -64 153 -42 76 -76 197 -89
316 -19 171 -39 216 -110 249 -33 15 -466 16 -5396 17 -2948 0 -5400 -2 -5450
-5z m10275 -263 c194 -3 219 -5 261 -24 80 -37 86 -52 129 -324 19 -121 59
-259 95 -330 10 -19 39 -71 66 -115 26 -44 60 -111 75 -148 17 -43 44 -88 74
-120 26 -29 63 -77 83 -108 39 -61 89 -109 140 -135 17 -9 66 -51 107 -93 65
-67 85 -80 150 -104 54 -19 93 -43 140 -83 64 -55 129 -93 161 -94 9 0 87 -20
175 -45 87 -24 205 -51 262 -60 61 -9 113 -22 127 -33 27 -20 59 -74 69 -116
12 -51 9 -20848 -3 -20893 -24 -87 -73 -121 -188 -129 -231 -15 -375 -55 -519
-142 -44 -26 -117 -66 -164 -89 -48 -23 -116 -67 -156 -101 -39 -33 -97 -77
-129 -97 -65 -42 -96 -72 -132 -128 -13 -21 -54 -71 -91 -111 -37 -40 -85
-105 -105 -144 -21 -39 -63 -104 -93 -144 -76 -100 -81 -110 -125 -282 -21
-83 -45 -176 -54 -206 -8 -30 -15 -83 -15 -118 0 -34 -6 -78 -14 -96 -29 -71
-125 -105 -296 -106 -543 -5 -10044 9 -10070 15 -51 10 -105 48 -122 87 -9 18
-19 76 -23 128 -14 204 -45 324 -110 426 -19 30 -62 108 -95 173 -40 81 -77
138 -115 179 -30 33 -85 99 -122 148 -41 53 -100 114 -147 152 -44 34 -112 94
-153 132 -60 56 -88 74 -153 99 -44 17 -119 56 -167 88 -48 31 -112 67 -143
79 -79 32 -220 54 -330 51 -74 -1 -102 2 -127 15 -39 22 -69 69 -83 133 -8 36
-11 2885 -11 10440 0 9588 1 10394 17 10445 19 65 45 110 73 128 12 6 69 18
128 26 60 8 121 20 137 26 17 6 92 26 168 45 173 43 209 59 279 123 30 28 97
73 149 102 59 32 121 76 165 118 40 37 91 82 114 101 24 18 62 63 85 100 24
36 68 95 98 131 33 39 86 124 133 215 196 377 173 307 205 599 17 159 52 200
183 214 57 6 9527 6 10007 0z"/>
<path d="M13350 25929 c-164 -62 -154 -61 -248 -48 -60 8 -177 10 -377 5 -159
-4 -534 -11 -833 -16 l-543 -9 -80 30 c-154 56 -269 26 -269 -71 0 -39 27 -71
105 -123 22 -14 67 -54 99 -87 64 -65 57 -62 249 -108 49 -12 155 -51 235 -86
89 -39 173 -69 212 -76 108 -17 489 -24 645 -11 162 14 169 16 337 87 69 29
173 65 230 79 56 15 121 31 143 37 26 7 60 30 105 72 36 35 95 79 132 99 76
43 108 77 108 119 0 100 -127 155 -250 107z"/>
<path d="M7304 25901 c-43 -19 -54 -36 -54 -77 0 -42 17 -61 91 -105 39 -23
95 -63 124 -89 66 -60 152 -102 278 -134 103 -27 136 -41 206 -89 81 -56 128
-67 329 -79 252 -15 486 -13 667 6 l150 15 125 65 c88 45 164 75 254 100 70
20 144 45 165 55 55 28 228 189 240 223 22 62 -31 111 -124 112 -27 1 -102 -7
-165 -17 -105 -16 -197 -17 -1075 -13 -937 4 -962 4 -1035 25 -92 25 -123 26
-176 2z"/>
<path d="M5795 25805 c-16 -9 -33 -22 -37 -28 -13 -20 -9 -86 6 -115 39 -75
118 -115 279 -143 99 -17 129 -27 256 -90 176 -86 274 -114 379 -106 125 9
192 57 192 137 0 45 -13 63 -82 121 -34 28 -83 79 -108 112 -25 34 -59 69 -76
79 -45 26 -154 38 -336 36 -90 0 -226 2 -303 6 -119 6 -144 5 -170 -9z"/>
<path d="M14978 25814 c-3 -3 -145 -5 -316 -5 -364 0 -355 2 -402 -103 -19
-41 -55 -92 -100 -140 -77 -84 -87 -114 -48 -155 45 -49 104 -66 223 -66 120
0 118 -1 305 100 62 33 157 59 309 84 92 15 149 53 183 121 42 84 45 113 15
144 -23 23 -34 26 -95 26 -38 0 -71 -3 -74 -6z"/>
<path d="M10392 25791 c-44 -12 -87 -53 -124 -123 -21 -40 -49 -71 -93 -105
-34 -26 -81 -72 -104 -101 -23 -29 -68 -69 -99 -89 -31 -20 -82 -60 -113 -90
-57 -54 -89 -71 -193 -104 -34 -10 -90 -37 -126 -59 -103 -64 -142 -79 -252
-96 -57 -8 -150 -26 -208 -40 -181 -43 -279 -55 -475 -61 -258 -7 -476 9 -579
42 -44 14 -114 30 -155 35 -194 24 -421 40 -581 43 -194 2 -213 -2 -264 -63
-31 -37 -35 -103 -10 -152 17 -32 209 -230 343 -352 45 -41 105 -83 153 -107
43 -22 107 -60 141 -86 34 -25 99 -63 145 -84 59 -27 102 -57 146 -99 45 -43
87 -71 149 -100 47 -22 115 -62 149 -90 35 -28 98 -70 141 -92 46 -24 98 -61
125 -90 26 -27 77 -67 114 -90 65 -38 89 -61 150 -141 16 -20 52 -47 85 -63
33 -15 88 -55 128 -94 39 -37 97 -87 130 -112 93 -71 293 -257 364 -339 36
-41 92 -103 127 -139 34 -36 79 -90 101 -120 22 -30 61 -80 87 -110 26 -30 62
-82 81 -115 18 -34 63 -89 99 -123 49 -46 76 -83 107 -144 23 -46 58 -108 79
-138 57 -85 84 -145 121 -270 37 -128 74 -182 136 -199 52 -15 91 6 150 76 69
83 88 116 124 218 34 100 52 132 108 200 21 26 56 79 77 118 23 42 64 95 100
129 37 35 77 88 100 130 21 40 62 97 90 127 28 31 77 92 109 136 32 44 85 110
119 146 207 225 337 359 376 389 25 19 81 69 125 111 44 41 116 99 160 129 44
30 103 75 130 101 28 25 75 59 105 74 32 16 84 57 125 99 42 42 96 85 133 104
34 18 83 52 109 74 69 60 112 85 173 102 73 21 120 51 170 108 23 27 71 64
108 84 37 20 110 65 162 100 52 35 120 72 152 83 79 27 93 36 162 100 34 31
88 77 121 101 33 24 85 67 116 94 31 28 82 73 114 100 68 58 95 99 95 144 0
55 -34 79 -156 107 -79 18 -109 33 -168 85 -89 76 -147 76 -348 -3 -141 -56
-173 -63 -383 -87 -93 -11 -201 -29 -240 -41 -88 -26 -355 -38 -630 -28 -165
6 -200 10 -266 32 -41 14 -121 31 -177 37 -166 18 -220 36 -357 120 -34 21
-97 54 -139 73 -42 20 -95 51 -119 70 -23 19 -71 53 -107 77 -92 61 -219 188
-307 305 -41 55 -87 108 -102 117 -33 21 -95 29 -139 19z"/>
<path d="M5484 25190 c-54 -22 -70 -99 -33 -159 26 -42 47 -60 131 -111 36
-22 84 -60 105 -85 21 -24 63 -64 94 -87 31 -24 103 -93 160 -153 165 -174
176 -184 213 -191 59 -10 95 5 156 65 32 31 83 79 114 106 54 49 56 52 56 101
0 80 -32 110 -145 134 -78 17 -122 40 -165 85 -63 65 -121 95 -214 110 -112
18 -144 35 -206 105 -41 48 -61 62 -102 75 -56 16 -131 19 -164 5z"/>
<path d="M15315 25185 c-39 -10 -61 -25 -105 -73 -69 -73 -99 -89 -190 -102
-79 -11 -133 -35 -188 -84 -72 -63 -108 -84 -182 -106 -41 -13 -88 -29 -103
-37 -67 -33 -90 -144 -43 -200 14 -16 58 -45 98 -64 58 -27 85 -34 134 -34 57
0 65 3 160 64 54 36 124 88 154 116 30 29 78 67 105 85 28 18 79 61 115 95 36
34 94 78 130 98 89 48 121 84 127 141 7 58 -13 91 -64 105 -49 14 -86 13 -148
-4z"/>
<path d="M4992 24645 c-43 -19 -66 -73 -58 -132 8 -58 25 -81 94 -127 36 -24
74 -61 98 -95 21 -31 71 -87 111 -126 39 -38 86 -95 104 -125 57 -95 199 -274
232 -292 41 -23 54 -23 129 6 35 12 97 26 138 30 108 10 110 11 110 55 0 97
-47 174 -141 229 -19 12 -60 49 -89 83 -30 34 -79 77 -109 97 -31 19 -83 61
-116 92 -34 32 -95 79 -135 106 -41 27 -102 76 -135 110 -91 92 -164 120 -233
89z"/>
<path d="M15835 24621 c-17 -10 -57 -46 -89 -80 -33 -33 -86 -77 -120 -96 -34
-19 -95 -64 -136 -100 -41 -36 -101 -80 -133 -97 -36 -19 -79 -55 -110 -91
-29 -33 -77 -76 -107 -97 -30 -21 -65 -49 -77 -62 -48 -51 -71 -178 -35 -196
9 -5 52 -12 94 -15 49 -4 101 -16 140 -33 95 -40 130 -25 214 91 15 22 44 58
64 80 20 22 56 72 81 111 26 38 73 94 107 123 33 29 78 81 101 115 31 48 56
73 105 104 65 41 92 75 96 122 5 59 -1 83 -29 111 -25 25 -37 29 -83 29 -34 0
-64 -7 -83 -19z"/>
<path d="M4391 24229 c-67 -63 -51 -184 35 -254 57 -47 70 -74 94 -192 16 -79
34 -127 94 -248 41 -82 86 -186 101 -231 42 -131 95 -163 220 -130 34 8 94 19
134 22 45 4 81 13 94 24 20 17 20 20 8 85 -16 90 -39 132 -103 191 -30 27 -74
76 -98 109 -24 33 -65 86 -90 117 -31 39 -56 84 -75 140 -36 105 -46 120 -115
173 -43 33 -65 60 -91 111 -21 41 -46 74 -64 85 -42 26 -115 25 -144 -2z"/>
<path d="M16433 24224 c-17 -8 -47 -40 -67 -70 -20 -29 -65 -76 -100 -104 -51
-40 -72 -65 -104 -128 -22 -42 -62 -104 -87 -137 -26 -33 -67 -98 -90 -145
-27 -52 -61 -102 -90 -130 -26 -25 -54 -58 -62 -75 -24 -45 -43 -124 -43 -178
0 -42 3 -49 26 -57 37 -14 95 -12 206 9 158 29 184 55 234 228 14 48 37 105
52 126 15 21 41 57 58 81 30 42 48 100 74 230 11 52 18 64 75 120 67 66 84
104 70 164 -14 64 -90 98 -152 66z"/>
<path d="M6654 24121 c-148 -51 -187 -90 -187 -186 0 -63 18 -97 83 -160 29
-27 76 -86 105 -130 29 -44 67 -93 85 -110 31 -29 202 -223 321 -364 31 -37
68 -75 84 -85 15 -10 74 -62 130 -115 157 -147 268 -247 332 -298 32 -25 81
-67 108 -93 28 -26 84 -71 125 -100 41 -29 98 -78 126 -109 29 -31 76 -69 105
-85 30 -16 81 -55 114 -86 40 -38 93 -74 155 -105 52 -26 122 -71 155 -100 33
-28 90 -71 126 -93 36 -23 89 -68 117 -101 53 -60 61 -65 194 -106 31 -10 78
-35 105 -56 131 -105 121 -100 283 -143 30 -8 84 -33 120 -56 102 -64 160 -89
260 -111 51 -11 121 -29 154 -41 117 -39 166 -25 166 48 0 34 -78 272 -110
334 -11 21 -43 68 -73 104 -29 37 -73 105 -97 151 -24 46 -67 113 -95 147 -27
35 -66 94 -85 131 -22 44 -56 89 -95 125 -33 31 -72 75 -87 97 -30 45 -138
161 -340 363 -179 180 -285 276 -347 315 -28 18 -72 59 -98 91 -36 45 -65 68
-119 95 -39 20 -100 61 -137 92 -36 31 -100 73 -143 93 -52 25 -98 58 -143
100 -70 67 -99 86 -178 112 -26 9 -91 47 -143 84 -52 38 -131 85 -175 105 -44
20 -120 60 -170 90 -111 67 -192 98 -343 130 -64 14 -139 32 -166 40 -73 22
-131 18 -222 -14z"/>
<path d="M14015 24116 c-44 -13 -140 -38 -213 -55 -153 -37 -215 -62 -291
-120 -30 -22 -93 -57 -141 -77 -48 -20 -118 -59 -156 -88 -76 -58 -102 -73
-185 -109 -33 -14 -86 -52 -126 -89 -45 -41 -101 -79 -154 -106 -46 -22 -111
-64 -144 -92 -33 -28 -91 -67 -128 -87 -45 -24 -84 -54 -115 -91 -26 -30 -79
-78 -118 -107 -39 -29 -81 -67 -94 -84 -12 -18 -52 -56 -88 -85 -37 -29 -85
-75 -106 -102 -22 -27 -63 -69 -90 -93 -28 -25 -70 -69 -93 -98 -23 -30 -65
-75 -93 -100 -28 -25 -69 -72 -90 -103 -21 -31 -49 -64 -62 -72 -50 -33 -96
-88 -128 -154 -19 -37 -56 -95 -83 -129 -27 -33 -71 -103 -97 -156 -26 -53
-73 -130 -103 -170 -66 -90 -98 -151 -137 -268 -34 -100 -37 -137 -14 -169 21
-31 72 -29 219 8 87 22 160 49 265 100 83 40 181 78 229 90 104 26 121 35 196
101 39 34 97 70 165 101 74 35 120 64 160 102 30 29 88 70 128 91 41 21 102
64 137 96 35 31 99 76 144 99 44 23 108 68 143 99 35 32 87 71 117 86 32 16
80 54 115 92 34 36 86 82 116 103 30 21 75 59 100 85 25 26 72 65 105 88 110
75 722 673 841 822 26 33 69 83 95 112 25 28 59 73 74 100 16 26 50 76 76 111
58 75 73 121 58 177 -14 53 -51 90 -124 128 -83 42 -194 47 -310 13z"/>
<path d="M3859 23875 c-79 -43 -98 -303 -39 -511 27 -95 34 -193 20 -309 -22
-186 -24 -249 -6 -284 32 -62 91 -63 173 -5 85 61 104 62 222 19 39 -14 46
-14 67 0 32 21 32 69 -1 166 -14 41 -48 148 -74 239 -29 98 -67 202 -94 256
-25 50 -64 150 -86 223 -42 139 -70 193 -109 210 -30 14 -41 13 -73 -4z"/>
<path d="M16997 23862 c-15 -16 -43 -66 -63 -112 -19 -46 -55 -112 -80 -147
-60 -84 -87 -147 -114 -268 -12 -55 -40 -138 -60 -185 -49 -110 -60 -151 -60
-228 0 -75 22 -130 55 -138 14 -3 50 6 94 26 48 21 100 34 159 41 132 15 162
56 146 198 -16 132 -7 442 15 529 27 110 32 164 21 224 -16 86 -64 111 -113
60z"/>
<path d="M14799 23291 c-99 -22 -133 -37 -209 -96 -67 -52 -122 -80 -185 -96
-49 -12 -93 -49 -148 -122 -15 -20 -54 -55 -87 -77 -32 -22 -78 -62 -101 -90
-23 -27 -65 -64 -93 -82 -28 -18 -89 -68 -136 -110 -47 -43 -121 -111 -165
-152 -44 -40 -118 -100 -165 -134 -47 -33 -101 -77 -120 -97 -19 -20 -74 -64
-122 -96 -48 -32 -100 -75 -115 -95 -15 -20 -64 -60 -108 -89 -46 -30 -95 -73
-115 -100 -19 -26 -63 -64 -100 -87 -36 -22 -92 -68 -125 -102 -42 -44 -86
-76 -145 -106 -46 -25 -114 -68 -150 -97 -36 -29 -94 -64 -130 -78 -36 -14
-90 -45 -120 -70 -92 -76 -140 -104 -199 -115 -96 -19 -122 -33 -197 -101 -77
-70 -121 -89 -202 -89 -51 0 -179 -33 -231 -59 -22 -12 -47 -34 -56 -51 -39
-76 -4 -124 133 -176 53 -20 129 -57 167 -82 39 -25 102 -60 140 -77 39 -18
99 -56 135 -85 36 -29 101 -73 145 -98 44 -26 105 -72 136 -103 31 -31 83 -75
116 -98 32 -22 76 -64 97 -92 22 -27 66 -71 98 -96 33 -25 82 -73 109 -108 27
-34 69 -79 94 -100 25 -20 64 -64 87 -98 23 -34 63 -84 88 -112 53 -57 97
-120 130 -185 12 -25 49 -77 81 -117 32 -40 81 -117 107 -171 72 -146 201
-324 250 -343 59 -23 93 27 116 168 8 50 19 108 25 130 6 21 24 119 40 218 33
204 46 247 107 360 35 66 48 106 74 229 34 168 53 216 112 295 45 60 72 122
83 191 11 78 36 142 90 231 30 51 69 136 93 206 22 65 65 162 95 214 30 53 76
147 102 209 27 62 64 138 83 169 49 80 81 146 109 221 13 36 50 106 82 155 32
50 75 133 95 185 23 59 58 122 91 165 64 86 75 107 110 214 21 64 38 95 74
135 94 104 105 131 141 342 11 66 34 161 51 210 51 147 30 218 -81 272 -70 34
-161 38 -281 13z"/>
<path d="M5905 23277 c-111 -53 -168 -164 -147 -287 6 -36 25 -97 43 -135 17
-38 42 -120 54 -181 29 -138 41 -165 110 -265 39 -54 69 -113 95 -186 22 -59
49 -121 62 -137 66 -89 91 -137 119 -227 17 -56 46 -121 65 -149 19 -28 49
-72 68 -100 19 -27 48 -92 66 -144 23 -70 46 -116 86 -170 43 -59 62 -98 90
-185 28 -86 50 -132 100 -207 50 -75 71 -118 95 -197 17 -56 62 -165 100 -243
55 -112 75 -164 95 -255 32 -147 38 -162 92 -233 57 -76 76 -120 97 -226 26
-135 62 -243 115 -345 56 -109 73 -182 88 -362 16 -181 58 -263 137 -263 49 0
89 44 140 154 24 53 62 122 83 154 21 31 57 96 81 143 24 49 65 112 95 145 29
33 72 89 95 126 23 37 65 86 92 109 28 23 68 67 89 99 21 31 63 75 93 98 30
23 74 68 96 100 24 33 67 76 100 100 32 23 76 63 97 91 22 27 66 68 100 91 33
22 85 66 115 96 34 35 88 74 144 104 50 27 115 67 145 90 29 22 72 48 94 58
21 9 78 37 125 61 47 24 131 66 186 93 152 75 196 129 160 197 -32 63 -129
107 -258 117 -103 8 -148 27 -217 94 -63 60 -90 74 -188 94 -90 19 -114 32
-193 104 -48 42 -87 67 -145 90 -46 19 -106 53 -140 81 -32 26 -101 69 -152
95 -70 37 -103 61 -138 102 -26 30 -74 70 -108 90 -33 20 -90 65 -126 99 -36
34 -96 80 -134 100 -37 21 -94 60 -125 88 -31 27 -83 70 -116 95 -33 25 -87
71 -120 102 -33 32 -92 78 -131 104 -40 26 -84 64 -100 87 -15 22 -55 60 -89
84 -34 24 -84 70 -112 103 -28 32 -80 77 -115 100 -35 23 -76 61 -93 83 -16
23 -62 63 -100 89 -39 26 -92 73 -118 104 -34 39 -74 70 -131 102 -45 25 -111
70 -146 100 -91 77 -147 96 -295 101 -111 4 -124 2 -170 -20z"/>
<path d="M4980 22698 c-34 -17 -64 -49 -122 -125 -93 -125 -107 -171 -89 -298
6 -44 11 -116 11 -160 1 -99 10 -139 66 -288 32 -86 51 -160 69 -268 25 -153
40 -193 99 -277 47 -66 51 -76 80 -186 32 -118 62 -191 126 -305 28 -50 63
-135 84 -203 36 -115 44 -130 137 -248 15 -19 43 -74 62 -122 19 -48 55 -113
79 -145 25 -32 66 -98 92 -148 25 -49 67 -112 92 -140 25 -27 74 -93 109 -145
34 -52 85 -121 113 -152 28 -32 65 -84 82 -117 21 -40 56 -82 102 -122 38 -34
80 -79 93 -100 34 -52 71 -85 130 -113 28 -13 80 -51 117 -84 36 -33 98 -79
136 -101 46 -26 93 -66 132 -111 90 -100 169 -132 238 -96 41 21 57 60 56 135
-1 67 -9 89 -68 192 -15 26 -33 82 -41 125 -9 44 -22 102 -30 130 -8 27 -28
119 -45 204 -23 115 -38 168 -62 209 -17 31 -43 79 -58 106 -16 28 -42 104
-59 170 -23 86 -53 164 -106 275 -50 104 -81 184 -95 243 -27 118 -39 143 -99
212 -37 42 -56 74 -67 114 -47 171 -53 186 -103 246 -67 80 -86 116 -111 216
-23 91 -42 127 -102 196 -49 57 -61 81 -87 176 -27 101 -37 118 -109 199 -56
62 -61 72 -81 157 -26 112 -46 153 -106 211 -53 52 -65 72 -101 172 -35 99
-62 131 -163 195 -47 31 -107 75 -132 98 -95 88 -190 114 -269 73z"/>
<path d="M15815 22701 c-22 -10 -69 -43 -105 -75 -36 -31 -101 -76 -145 -101
-100 -54 -115 -70 -164 -175 -21 -47 -65 -119 -97 -160 -31 -41 -79 -120 -105
-175 -27 -55 -68 -131 -92 -170 -24 -38 -58 -106 -76 -150 -36 -87 -47 -105
-103 -181 -21 -28 -55 -94 -76 -146 -40 -99 -67 -147 -132 -237 -24 -33 -51
-89 -71 -150 -17 -53 -57 -143 -87 -201 -74 -137 -87 -166 -128 -285 -19 -55
-59 -141 -89 -191 -60 -99 -75 -138 -101 -261 -13 -62 -29 -104 -66 -165 -52
-89 -76 -159 -133 -388 -20 -80 -52 -180 -71 -222 -37 -82 -111 -357 -120
-448 -12 -114 33 -173 130 -171 78 1 115 21 192 108 54 60 82 82 140 109 40
19 100 59 133 89 34 30 85 70 115 89 29 18 73 58 97 87 24 29 76 87 115 128
39 42 91 108 116 146 25 39 68 96 95 128 28 31 67 88 89 125 21 37 69 99 105
137 54 58 72 86 98 155 18 47 55 115 82 152 56 77 85 133 123 235 15 40 45 99
67 133 58 90 75 127 105 231 32 112 45 139 94 199 61 74 80 124 106 274 20
113 32 154 59 206 96 179 105 202 120 315 31 224 47 323 77 455 39 179 39 243
-2 346 -70 178 -112 224 -204 224 -28 0 -69 -9 -91 -19z"/>
<path d="M16884 22341 c-69 -17 -94 -42 -141 -141 -25 -52 -65 -121 -90 -152
-63 -82 -89 -146 -114 -283 -12 -66 -39 -166 -60 -221 -57 -152 -61 -191 -50
-484 8 -227 12 -270 39 -390 17 -74 42 -220 57 -325 45 -323 67 -410 134 -544
18 -35 46 -115 62 -178 35 -137 49 -171 93 -232 46 -63 68 -109 106 -226 50
-151 109 -202 189 -160 70 36 88 189 53 440 -18 130 -19 167 -10 515 5 206 7
710 4 1120 -5 613 -8 759 -21 825 -8 44 -22 133 -30 197 -18 152 -40 202 -97
228 -45 20 -73 23 -124 11z"/>
<path d="M3919 22330 c-70 -9 -103 -30 -125 -83 -17 -40 -18 -117 -20 -1409
-1 -751 -5 -1422 -8 -1490 -11 -194 13 -273 88 -292 69 -18 132 34 156 129 27
107 63 201 103 267 66 108 73 124 110 249 19 63 58 166 87 229 62 135 88 250
116 505 29 259 27 901 -4 1183 -25 236 -33 259 -124 364 -35 40 -85 109 -112
153 -110 179 -152 210 -267 195z"/>
<path d="M4806 20571 c-44 -46 -56 -113 -67 -363 -11 -275 -25 -350 -85 -482
-53 -115 -80 -188 -123 -332 -22 -71 -46 -124 -81 -178 -28 -42 -69 -114 -91
-159 -25 -50 -63 -105 -98 -142 -32 -33 -77 -94 -101 -135 -28 -48 -80 -112
-143 -177 -118 -120 -137 -147 -137 -193 0 -45 14 -64 135 -198 60 -65 117
-140 140 -183 22 -40 70 -104 106 -143 42 -45 78 -95 96 -136 16 -36 57 -106
90 -156 36 -56 72 -127 93 -185 18 -52 59 -150 91 -219 68 -146 82 -198 104
-380 9 -74 30 -193 45 -265 16 -71 34 -170 41 -220 17 -131 0 -438 -36 -640
-15 -83 -41 -240 -79 -481 -24 -147 -43 -199 -111 -305 -27 -42 -40 -77 -51
-140 -24 -129 -38 -161 -95 -208 -73 -63 -119 -166 -119 -273 0 -37 5 -50 22
-62 37 -26 118 -20 232 18 56 19 131 37 166 41 106 11 162 31 236 86 90 66
129 86 211 105 85 19 119 40 163 98 18 26 63 65 99 88 122 79 403 350 478 463
23 34 67 84 97 110 42 36 66 68 99 134 24 47 69 122 99 166 30 45 69 119 87
165 18 47 52 119 76 160 62 105 98 191 125 290 12 47 38 114 58 150 76 139 91
179 121 318 35 158 50 202 109 312 45 83 63 145 87 299 17 110 62 263 125 421
40 102 70 226 70 294 0 101 -45 167 -136 200 -85 30 -107 43 -178 100 -39 31
-101 72 -138 91 -45 24 -85 55 -119 95 -34 37 -77 72 -121 96 -43 24 -85 57
-111 87 -22 27 -66 67 -96 90 -70 51 -222 204 -290 290 -28 35 -63 72 -77 81
-14 10 -46 50 -71 89 -25 40 -78 104 -117 142 -39 39 -93 104 -119 145 -26 41
-63 94 -81 117 -21 26 -46 79 -66 138 -23 68 -44 110 -73 146 -23 27 -56 68
-73 89 -18 22 -45 78 -63 131 -17 50 -55 133 -85 183 -30 50 -65 123 -77 161
-57 182 -123 239 -193 166z"/>
<path d="M16000 20483 c-119 -135 -177 -234 -211 -360 -26 -95 -48 -140 -106
-218 -25 -33 -64 -100 -88 -150 -23 -49 -64 -119 -90 -155 -27 -35 -66 -98
-88 -140 -22 -42 -67 -103 -102 -140 -34 -36 -80 -92 -102 -125 -22 -33 -64
-80 -92 -103 -28 -24 -69 -68 -91 -97 -22 -29 -66 -74 -99 -99 -32 -25 -75
-68 -94 -95 -20 -27 -62 -68 -95 -90 -33 -22 -78 -63 -102 -91 -24 -28 -75
-73 -114 -100 -39 -26 -87 -65 -106 -85 -46 -49 -88 -75 -185 -113 -53 -22
-101 -51 -143 -86 -35 -30 -99 -73 -144 -97 -138 -74 -156 -118 -110 -261 17
-51 36 -130 42 -175 11 -87 30 -149 75 -248 45 -98 73 -190 100 -323 30 -149
40 -179 111 -333 31 -65 63 -154 75 -205 37 -164 53 -206 107 -293 57 -89 72
-126 118 -274 16 -55 49 -124 82 -180 31 -51 75 -138 98 -195 27 -65 62 -129
97 -175 30 -39 70 -101 87 -137 19 -37 61 -95 99 -135 37 -38 84 -97 105 -130
59 -92 324 -351 429 -420 48 -31 103 -76 123 -100 38 -46 104 -83 197 -110 38
-11 78 -33 120 -66 96 -77 148 -98 268 -109 90 -8 115 -15 186 -50 148 -72
233 -50 233 62 0 93 -21 139 -119 262 -26 33 -47 76 -66 135 -14 47 -51 138
-81 201 -33 71 -64 156 -79 220 -14 58 -48 182 -75 275 -65 225 -76 292 -90
532 -9 149 -9 258 -1 415 12 222 27 314 74 439 13 35 36 118 51 184 15 66 36
158 46 205 13 54 42 129 79 205 33 66 70 154 83 195 20 66 32 84 99 155 71 75
78 88 108 176 24 74 42 108 81 154 28 33 67 89 88 125 27 47 53 75 97 106 71
50 95 85 95 139 0 54 -26 93 -94 139 -33 24 -69 60 -89 90 -17 28 -55 79 -84
112 -28 34 -75 109 -104 165 -28 57 -73 134 -100 170 -55 75 -70 111 -94 230
-19 91 -33 122 -99 216 -49 68 -56 93 -82 293 -9 73 -27 152 -41 190 -52 135
-63 185 -72 321 -13 206 -42 241 -121 152z"/>
<path d="M10921 20427 c-64 -22 -93 -94 -72 -175 8 -27 32 -65 66 -103 55 -62
75 -106 75 -169 0 -78 41 -303 78 -430 117 -398 131 -490 152 -985 6 -126 14
-250 20 -275 18 -80 43 -361 45 -500 1 -74 5 -174 10 -222 7 -87 7 -87 -31
-170 -34 -71 -39 -91 -39 -152 0 -83 16 -122 62 -149 65 -37 137 1 214 114 21
32 65 79 96 106 32 26 85 75 118 107 33 32 98 83 145 114 47 30 104 72 126 92
23 21 76 54 118 74 58 26 93 51 144 104 51 52 81 74 125 90 75 29 138 63 213
116 34 24 94 56 135 71 174 66 261 128 299 216 27 64 22 107 -26 234 -41 105
-67 153 -123 220 -27 32 -52 81 -73 139 -32 88 -45 110 -123 196 -22 25 -58
75 -79 112 -21 36 -61 88 -88 114 -27 26 -67 73 -88 103 -63 91 -343 366 -454
444 -22 16 -71 59 -108 94 -47 45 -89 74 -145 99 -43 20 -98 52 -123 73 -70
59 -128 88 -256 131 -95 32 -131 50 -189 95 -95 73 -160 93 -224 72z"/>
<path d="M9780 20378 c-19 -5 -66 -34 -105 -63 -62 -47 -141 -85 -178 -85 -28
0 -122 -53 -167 -93 -26 -23 -83 -62 -127 -86 -45 -23 -114 -70 -154 -103 -41
-33 -100 -78 -133 -100 -32 -22 -93 -73 -135 -113 -42 -39 -98 -92 -125 -116
-27 -24 -69 -71 -94 -104 -25 -33 -68 -85 -96 -115 -27 -30 -74 -93 -104 -140
-30 -47 -80 -112 -110 -145 -30 -33 -66 -85 -79 -115 -13 -30 -34 -77 -46
-104 -12 -27 -41 -76 -64 -108 -23 -33 -56 -96 -74 -141 -18 -45 -47 -109 -65
-142 -40 -75 -49 -115 -34 -160 23 -68 172 -174 367 -258 55 -24 128 -64 164
-89 35 -26 103 -65 151 -87 66 -32 101 -57 150 -107 44 -45 84 -76 133 -99 39
-19 98 -58 132 -88 34 -30 88 -70 120 -88 32 -18 87 -63 123 -103 182 -196
265 -263 338 -273 34 -5 42 -2 60 22 28 35 29 91 3 176 -11 35 -22 78 -25 94
-9 44 11 669 28 900 19 252 30 332 67 475 20 80 32 160 39 265 13 184 25 284
50 395 11 47 24 110 30 141 6 31 27 90 47 130 54 112 62 143 73 259 5 67 17
127 31 161 46 115 43 176 -11 204 -33 17 -126 19 -180 3z"/>
<path d="M10378 20054 c-57 -31 -87 -124 -123 -388 -30 -221 -47 -295 -109
-482 -75 -228 -91 -372 -107 -939 -16 -535 4 -1218 41 -1420 13 -67 74 -283
119 -420 36 -110 58 -228 66 -360 12 -197 39 -282 110 -343 40 -35 69 -40 103
-16 31 22 46 55 108 237 82 245 92 280 119 437 14 79 52 249 85 377 85 329 88
356 101 778 10 310 9 429 -4 735 -15 352 -17 369 -46 470 -16 58 -39 156 -51
218 -12 62 -25 125 -31 139 -5 14 -23 101 -39 193 -20 112 -43 206 -71 282
-22 62 -61 180 -85 262 -51 172 -67 209 -102 236 -29 24 -47 24 -84 4z"/>
<path d="M7895 17761 c-35 -16 -66 -58 -72 -98 -7 -54 10 -108 56 -179 49 -76
57 -104 76 -287 16 -152 39 -241 96 -378 48 -115 76 -197 99 -287 29 -114 45
-155 102 -243 26 -41 66 -115 88 -163 28 -59 58 -106 99 -149 32 -35 86 -106
121 -157 63 -94 277 -318 400 -420 30 -25 87 -76 125 -115 63 -63 82 -75 193
-123 99 -42 126 -50 142 -42 27 14 25 43 -4 88 -14 20 -39 76 -56 125 -30 81
-37 92 -100 148 -53 46 -76 76 -103 133 -19 40 -55 102 -79 137 -42 61 -73
129 -118 251 -12 31 -46 94 -76 139 -87 131 -120 277 -74 327 31 33 66 26 120
-23 14 -13 50 -39 80 -59 30 -20 118 -103 195 -185 77 -82 165 -169 196 -194
31 -25 71 -68 88 -96 18 -28 59 -74 92 -102 40 -34 70 -73 94 -118 41 -77 85
-123 134 -140 52 -17 79 -13 106 14 21 20 25 34 25 86 0 99 -25 172 -80 232
-55 61 -71 90 -95 172 -24 85 -79 201 -119 249 -37 46 -67 102 -86 161 -24 75
-50 115 -101 152 -28 21 -70 67 -94 103 -72 106 -386 412 -495 483 -30 19 -76
57 -102 84 -42 44 -74 63 -198 115 -19 9 -66 41 -104 72 -38 31 -104 75 -145
96 -42 22 -103 63 -136 92 -33 28 -84 62 -112 75 -57 26 -146 38 -178 24z"/>
<path d="M16986 17749 c-15 -12 -47 -62 -72 -111 -25 -50 -65 -120 -89 -157
-31 -46 -58 -109 -90 -206 -34 -102 -60 -160 -95 -215 -62 -95 -78 -140 -91
-259 -5 -53 -19 -145 -30 -206 -41 -236 -60 -555 -40 -690 5 -33 21 -134 34
-225 14 -91 31 -205 37 -255 14 -109 35 -170 87 -255 22 -36 55 -106 73 -155
43 -117 62 -154 125 -245 29 -41 65 -100 80 -130 60 -120 112 -157 179 -125
72 34 84 144 39 364 -26 131 -26 136 -13 255 9 79 13 214 12 386 -1 146 3 309
8 364 17 166 23 848 10 1112 -10 228 -10 249 9 368 12 70 21 167 21 217 0 141
-31 189 -121 189 -32 0 -55 -7 -73 -21z"/>
<path d="M3808 17749 c-43 -25 -61 -122 -46 -249 6 -51 10 -661 11 -1505 2
-1043 5 -1425 14 -1440 31 -55 90 -75 147 -51 45 19 69 58 106 176 25 83 37
104 90 165 61 71 67 85 115 250 9 33 43 121 76 196 94 219 105 281 115 694 6
263 -3 476 -27 655 -13 99 -20 119 -96 294 -35 82 -76 195 -90 250 -30 119
-30 119 -103 217 -48 65 -60 89 -79 165 -27 109 -54 159 -97 179 -36 17 -110
19 -136 4z"/>
<path d="M12938 17735 c-20 -7 -71 -37 -113 -65 -43 -29 -121 -71 -175 -95
-58 -25 -131 -67 -178 -102 -44 -33 -102 -68 -129 -78 -26 -9 -61 -22 -76 -28
-16 -5 -58 -43 -94 -84 -37 -40 -85 -84 -107 -98 -60 -36 -423 -399 -471 -470
-14 -22 -59 -71 -99 -110 -64 -61 -77 -80 -101 -145 -16 -41 -52 -111 -81
-155 -48 -72 -87 -154 -138 -296 -9 -26 -40 -73 -68 -105 -66 -76 -80 -110
-86 -220 -5 -106 4 -124 69 -124 84 0 127 34 184 148 31 60 48 80 96 114 38
27 74 65 102 107 58 86 120 161 241 290 116 124 125 131 188 147 49 13 110 4
124 -18 15 -24 4 -96 -24 -163 -17 -38 -38 -99 -48 -134 -11 -40 -34 -86 -62
-124 -57 -77 -87 -146 -113 -256 -23 -99 -33 -117 -104 -186 -41 -39 -58 -66
-80 -125 -16 -44 -46 -97 -71 -129 -52 -63 -58 -102 -19 -127 32 -21 62 -13
116 32 24 19 74 51 113 70 87 43 89 45 137 116 22 32 67 78 102 104 34 26 75
63 90 83 15 20 95 104 176 186 81 83 160 169 175 191 15 23 60 71 100 107 67
60 75 73 105 151 18 48 54 114 82 153 60 83 92 147 114 233 9 36 43 119 75
186 35 71 66 150 74 190 39 185 68 343 77 421 8 71 17 99 54 170 48 91 55 130
31 188 -25 60 -104 81 -188 50z"/>
<path d="M7440 17356 c-30 -17 -59 -65 -93 -156 -13 -36 -46 -111 -71 -168
-39 -84 -51 -125 -67 -225 -11 -67 -34 -171 -51 -232 -42 -145 -42 -216 1
-345 17 -53 40 -139 50 -192 26 -122 39 -155 101 -238 27 -37 70 -110 94 -163
28 -60 63 -115 94 -150 28 -30 62 -77 77 -103 55 -97 71 -116 135 -158 36 -24
82 -64 103 -89 36 -44 78 -69 207 -123 24 -11 72 -43 105 -72 72 -62 117 -85
207 -100 82 -15 143 -40 225 -94 80 -51 166 -78 253 -78 86 0 120 22 120 79 0
50 -19 74 -103 123 -45 27 -129 98 -228 191 -127 120 -164 162 -195 219 -21
38 -62 97 -92 131 -30 34 -72 98 -94 142 -21 44 -64 107 -94 140 -47 53 -58
72 -85 160 -39 124 -48 142 -105 206 -54 61 -60 75 -85 203 -16 83 -28 115
-73 195 -74 130 -120 290 -146 511 -25 213 -64 334 -124 382 -25 21 -33 21
-66 4z"/>
<path d="M13462 17248 c-50 -63 -127 -281 -146 -415 -22 -148 -55 -246 -123
-367 -36 -62 -67 -134 -84 -192 -27 -93 -45 -129 -118 -234 -20 -30 -53 -91
-72 -135 -18 -44 -55 -108 -81 -142 -25 -34 -65 -98 -87 -141 -29 -54 -62 -99
-107 -142 -39 -38 -78 -88 -95 -122 -35 -70 -146 -195 -233 -263 -35 -27 -85
-76 -111 -108 -34 -43 -64 -66 -115 -92 -87 -44 -110 -72 -110 -137 0 -40 5
-53 25 -72 51 -47 147 -44 224 9 25 17 63 43 84 57 21 15 75 39 120 54 161 53
261 95 316 133 31 20 93 57 138 80 45 23 115 70 155 104 40 33 104 80 143 104
83 52 123 88 177 161 22 30 62 78 88 107 54 59 87 114 121 195 12 30 47 93 77
139 63 96 80 137 127 310 39 139 42 194 20 290 -9 36 -24 117 -35 180 -10 64
-34 170 -53 236 -19 66 -40 147 -47 180 -27 131 -95 235 -155 235 -18 0 -37
-6 -43 -12z"/>
<path d="M14008 15684 c-39 -21 -75 -87 -99 -184 -27 -110 -46 -145 -113 -207
-31 -29 -72 -77 -91 -108 -20 -31 -63 -76 -95 -102 -32 -25 -76 -71 -98 -102
-25 -35 -62 -70 -100 -95 -32 -21 -76 -60 -96 -88 -24 -31 -68 -69 -119 -103
-45 -29 -98 -69 -117 -90 -36 -38 -92 -71 -179 -104 -28 -10 -86 -42 -129 -69
-86 -55 -148 -77 -263 -92 -146 -18 -259 -81 -259 -144 0 -36 41 -73 104 -92
62 -18 238 -33 401 -34 73 0 146 -6 185 -16 36 -8 108 -24 161 -34 53 -10 138
-37 191 -59 60 -26 123 -45 173 -52 140 -19 195 -59 180 -129 -27 -123 -321
-192 -814 -189 -312 1 -421 -22 -421 -88 0 -78 109 -151 295 -198 77 -19 113
-34 155 -65 30 -22 90 -65 132 -96 42 -30 95 -77 117 -103 23 -27 70 -68 106
-91 37 -24 81 -64 101 -91 20 -27 64 -69 98 -94 38 -26 77 -66 99 -99 20 -30
61 -73 92 -97 38 -30 71 -68 102 -119 25 -41 67 -98 93 -125 28 -31 70 -96
105 -165 85 -166 140 -220 224 -220 113 0 168 64 201 235 16 77 32 107 90 169
26 28 69 92 94 141 25 50 68 116 96 148 28 33 69 91 92 130 37 61 290 347 308
347 3 0 53 41 110 91 72 63 131 104 191 135 49 24 110 63 137 87 26 24 84 63
128 87 43 23 97 55 119 70 66 45 100 59 202 86 122 32 184 58 218 94 78 81
-25 171 -219 191 -140 13 -170 25 -255 96 -42 35 -92 68 -111 74 -83 27 -159
70 -216 121 -34 30 -88 71 -121 91 -37 23 -77 58 -102 91 -22 30 -67 75 -101
101 -33 25 -73 65 -89 88 -16 23 -57 69 -91 102 -34 33 -78 83 -98 110 -20 28
-63 80 -97 116 -35 38 -80 105 -109 158 -26 51 -73 121 -103 157 -34 40 -73
105 -107 176 -106 224 -196 303 -288 252z"/>
<path d="M6820 15673 c-62 -24 -121 -107 -170 -241 -17 -47 -41 -83 -95 -143
-58 -64 -80 -98 -109 -167 -27 -65 -54 -109 -105 -169 -37 -45 -79 -96 -91
-115 -24 -34 -164 -188 -242 -266 -108 -108 -230 -213 -308 -265 -47 -31 -113
-77 -146 -101 -34 -24 -92 -54 -129 -66 -50 -17 -84 -37 -129 -77 -80 -71
-128 -92 -233 -104 -95 -10 -217 -40 -264 -64 -58 -30 -67 -98 -19 -138 31
-27 66 -41 200 -81 53 -16 115 -44 164 -75 44 -28 96 -56 115 -62 91 -30 160
-69 220 -127 35 -33 92 -75 125 -93 34 -18 88 -55 121 -84 33 -28 80 -66 105
-85 116 -87 394 -374 440 -456 19 -32 59 -86 90 -119 31 -33 74 -94 97 -135
22 -41 59 -96 82 -122 48 -54 74 -109 91 -191 16 -81 33 -117 70 -152 25 -24
40 -30 73 -30 58 1 89 25 130 103 20 37 60 95 90 130 30 34 69 90 87 123 17
33 53 86 79 117 26 31 73 93 105 137 74 100 298 325 391 390 39 27 96 73 128
102 33 30 91 70 130 89 38 20 93 58 122 85 61 58 119 85 200 94 129 14 209 62
235 140 17 50 6 79 -37 107 -37 22 -48 23 -303 29 -187 5 -283 11 -325 22 -33
8 -96 21 -140 27 -91 14 -352 92 -406 122 -65 36 -79 92 -37 150 32 46 107 75
238 92 63 9 131 20 150 26 106 31 220 42 510 50 168 5 334 14 370 20 72 12
190 42 233 59 33 13 36 45 5 65 -48 30 -186 78 -307 106 -158 36 -196 50 -285
103 -39 23 -105 58 -148 76 -61 26 -89 46 -140 100 -35 37 -90 82 -121 100
-32 18 -76 55 -100 82 -23 27 -68 68 -100 91 -32 23 -70 58 -84 77 -15 20 -57
68 -94 107 -37 39 -77 90 -89 114 -12 24 -55 78 -95 120 -69 73 -75 82 -104
174 -35 114 -60 158 -105 185 -32 20 -101 27 -136 14z"/>
<path d="M10335 14890 c-88 -14 -176 -46 -242 -89 -32 -20 -85 -52 -118 -70
-82 -46 -163 -110 -219 -172 -57 -63 -170 -234 -203 -305 -67 -147 -72 -467
-9 -638 30 -81 157 -275 235 -359 55 -58 184 -157 206 -157 4 0 46 -22 94 -50
161 -93 260 -114 457 -100 151 10 225 33 319 96 33 22 82 52 109 65 47 23 230
184 277 243 32 41 155 287 174 348 11 33 19 105 22 193 7 187 -4 231 -108 432
-78 150 -88 163 -183 259 -79 79 -117 110 -176 139 -41 21 -102 56 -134 78
-95 64 -179 89 -321 93 -66 1 -147 -1 -180 -6z"/>
<path d="M4303 13423 c-21 -8 -15 -66 13 -145 38 -106 55 -136 118 -205 54
-62 80 -118 100 -223 4 -19 41 -105 82 -191 65 -135 78 -171 95 -265 11 -60
38 -176 60 -258 67 -247 79 -331 86 -606 7 -315 -3 -419 -56 -571 -49 -141
-56 -169 -76 -342 -17 -152 -35 -210 -95 -307 -22 -36 -56 -114 -77 -175 -37
-114 -52 -141 -127 -237 -24 -32 -54 -83 -65 -113 -33 -89 -58 -132 -109 -188
-27 -29 -65 -81 -86 -115 -24 -40 -62 -82 -109 -119 -87 -71 -119 -128 -125
-219 -6 -86 19 -135 110 -216 43 -38 91 -94 123 -143 28 -44 72 -108 97 -142
25 -34 60 -97 78 -140 34 -82 73 -145 110 -178 33 -30 55 -79 84 -190 20 -73
41 -124 81 -190 29 -49 61 -114 69 -143 24 -84 44 -243 51 -402 4 -80 11 -179
16 -220 21 -165 99 -231 176 -148 30 32 49 80 72 187 22 101 44 155 95 239 19
32 44 91 56 132 31 101 44 125 107 193 51 56 103 141 103 169 0 28 59 136 102
186 25 29 60 80 77 112 20 38 55 80 97 116 41 36 80 83 105 126 60 102 326
386 464 496 28 22 64 54 80 72 17 17 60 47 96 65 47 24 83 52 122 97 38 43 79
76 132 106 42 24 100 61 128 83 62 50 105 71 180 93 81 23 143 85 153 151 13
89 -37 285 -129 505 -20 47 -47 141 -62 210 -33 157 -63 243 -114 328 -49 83
-56 101 -87 230 -25 107 -39 141 -106 254 -22 37 -59 122 -83 190 -56 162 -64
179 -123 276 -28 46 -63 120 -78 165 -34 104 -53 140 -103 200 -22 27 -59 84
-82 127 -23 43 -68 110 -98 148 -31 38 -74 102 -95 143 -23 45 -63 100 -102
139 -35 36 -85 96 -111 134 -40 58 -59 75 -111 102 -35 18 -88 56 -119 84 -31
28 -96 71 -145 96 -57 29 -113 67 -154 105 -72 67 -98 80 -200 104 -38 8 -138
48 -224 90 -188 90 -418 158 -467 138z"/>
<path d="M16295 13367 c-89 -24 -141 -44 -199 -79 -44 -26 -121 -61 -173 -77
-119 -39 -176 -68 -254 -132 -35 -28 -93 -65 -129 -81 -47 -21 -85 -50 -136
-101 -39 -40 -94 -91 -121 -114 -27 -23 -65 -61 -83 -85 -18 -24 -55 -61 -82
-82 -27 -22 -62 -60 -79 -85 -16 -25 -63 -80 -103 -122 -62 -64 -77 -86 -96
-145 -31 -94 -50 -130 -105 -193 -54 -63 -65 -83 -95 -176 -27 -83 -62 -156
-84 -174 -34 -29 -85 -130 -106 -211 -28 -110 -41 -140 -100 -231 -43 -65 -55
-95 -86 -215 -51 -200 -62 -230 -114 -314 -58 -93 -64 -111 -95 -287 -27 -155
-41 -196 -108 -323 -43 -82 -58 -132 -73 -249 -3 -30 -17 -86 -30 -124 -49
-144 -25 -190 136 -272 30 -15 80 -50 110 -77 33 -30 96 -69 160 -99 72 -35
122 -67 160 -103 30 -29 83 -69 116 -89 34 -20 83 -62 109 -92 26 -31 74 -74
106 -96 32 -22 77 -64 100 -94 22 -29 65 -72 95 -95 30 -22 71 -65 91 -95 19
-30 60 -75 91 -100 30 -25 77 -78 104 -118 27 -39 71 -94 98 -122 27 -29 66
-86 90 -134 23 -46 66 -116 95 -155 29 -39 69 -103 88 -142 20 -39 59 -102 87
-139 59 -76 90 -140 114 -239 30 -122 129 -305 233 -433 33 -41 65 -54 78 -33
12 19 36 194 45 331 7 107 16 157 40 232 17 53 42 155 56 228 29 152 49 211
103 301 22 36 57 114 77 174 24 69 53 130 81 169 23 33 60 94 82 136 25 47 64
100 103 140 35 35 82 96 105 134 23 39 65 92 93 118 61 57 83 103 83 172 0 71
-26 119 -90 168 -30 22 -75 68 -100 101 -26 34 -70 84 -100 111 -35 33 -66 76
-92 126 -21 42 -57 101 -80 131 -29 39 -53 89 -81 172 -24 72 -59 149 -90 200
-66 107 -84 158 -104 286 -20 129 -39 197 -75 269 -78 155 -101 303 -108 681
-4 237 -2 325 11 445 29 255 41 313 97 441 39 90 56 147 74 243 27 148 32 163
89 255 25 40 56 110 70 159 24 77 34 95 88 155 69 75 88 113 88 172 0 29 -7
48 -28 71 -41 45 -95 47 -247 6z"/>
<path d="M17015 13126 c-37 -16 -53 -35 -95 -111 -19 -33 -64 -106 -101 -162
-47 -72 -76 -130 -99 -197 -17 -52 -54 -132 -82 -178 -65 -106 -75 -136 -98
-288 -10 -69 -33 -186 -50 -260 -17 -74 -38 -198 -47 -275 -20 -172 -9 -343
37 -565 16 -80 41 -210 55 -290 36 -198 48 -238 115 -365 32 -60 66 -139 75
-175 24 -94 39 -125 93 -193 27 -34 64 -91 83 -127 47 -90 99 -140 144 -140
50 0 79 23 104 80 31 72 28 152 -10 264 -29 82 -31 96 -23 156 11 85 11 2180
0 2285 -7 72 -6 90 19 180 31 110 38 225 17 286 -24 69 -81 100 -137 75z"/>
<path d="M12013 13119 c-83 -17 -85 -65 -7 -140 30 -30 72 -76 91 -104 53 -73
90 -111 165 -166 37 -28 84 -74 105 -102 21 -29 64 -80 96 -115 31 -35 75 -99
97 -141 22 -43 62 -102 88 -132 27 -30 65 -85 86 -124 21 -38 65 -98 97 -133
53 -56 62 -72 89 -161 31 -99 51 -135 128 -234 36 -46 47 -72 68 -158 29 -117
47 -157 100 -220 47 -56 60 -88 85 -207 24 -118 49 -207 94 -332 19 -52 48
-140 65 -195 44 -138 76 -169 132 -126 58 46 140 306 163 521 19 172 34 230
90 351 63 134 60 184 -19 314 -20 33 -48 98 -62 145 -34 111 -47 134 -109 200
-29 30 -69 82 -90 115 -20 33 -59 85 -86 116 -27 32 -75 97 -108 146 -36 54
-82 109 -117 138 -33 27 -90 79 -129 115 -38 37 -104 86 -145 110 -41 24 -103
69 -138 102 -66 61 -105 84 -199 119 -32 12 -84 40 -116 63 -116 81 -141 96
-191 112 -51 17 -133 57 -194 95 -42 27 -88 37 -129 28z"/>
<path d="M3818 13081 c-13 -11 -29 -37 -35 -58 -15 -52 -16 -3103 -1 -3153 20
-67 72 -99 127 -78 46 17 83 62 125 153 24 50 65 122 93 160 42 57 60 97 101
221 27 82 73 195 100 250 59 118 79 182 87 284 3 41 12 131 20 200 24 216 29
497 10 640 -9 69 -22 191 -30 273 -18 184 -23 202 -85 307 -27 47 -62 121 -76
165 -41 124 -84 223 -132 305 -24 41 -64 122 -88 180 -25 58 -50 112 -57 120
-40 51 -115 65 -159 31z"/>
<path d="M8800 13067 c-36 -19 -99 -45 -140 -57 -87 -27 -134 -49 -198 -95
-54 -38 -120 -72 -212 -110 -105 -44 -155 -72 -206 -116 -46 -40 -70 -53 -144
-80 -30 -11 -121 -93 -268 -242 -20 -20 -76 -77 -124 -125 -67 -68 -95 -105
-127 -170 -23 -46 -57 -104 -75 -130 -43 -60 -77 -128 -110 -222 -28 -78 -58
-136 -117 -229 -31 -50 -34 -60 -34 -135 0 -70 4 -88 28 -131 69 -124 87 -174
117 -325 56 -277 72 -334 115 -426 64 -137 134 -195 178 -146 17 18 167 579
187 696 14 88 28 120 88 210 37 55 54 94 71 162 28 111 49 159 111 254 27 41
65 117 84 169 31 83 43 103 100 160 49 50 74 87 104 151 21 47 59 110 84 140
24 30 61 84 83 120 21 36 64 92 95 125 31 33 67 76 80 95 38 58 72 90 142 136
52 33 74 55 95 95 16 28 52 84 81 123 66 90 68 119 7 131 -22 5 -47 -3 -95
-28z"/>
<path d="M9263 12620 c-70 -15 -100 -37 -150 -112 -32 -48 -67 -85 -105 -113
-32 -22 -76 -65 -98 -95 -22 -30 -60 -71 -84 -90 -24 -19 -61 -59 -82 -88 -22
-29 -49 -60 -62 -68 -68 -44 -107 -92 -149 -183 -24 -52 -58 -113 -77 -135
-50 -62 -83 -118 -125 -215 -22 -48 -58 -119 -82 -157 -54 -88 -62 -109 -99
-245 -17 -61 -47 -146 -66 -188 -20 -42 -47 -107 -60 -146 -34 -99 -84 -342
-94 -458 -7 -90 -11 -103 -50 -167 -49 -82 -63 -131 -50 -181 29 -109 128
-112 300 -8 47 28 130 73 185 100 55 26 132 74 170 105 68 55 100 73 197 108
35 13 63 35 105 83 31 35 78 79 103 95 25 17 75 61 111 97 36 36 92 91 125
122 126 120 204 207 245 274 23 39 61 91 85 118 24 27 56 80 74 125 18 42 61
134 96 204 93 185 130 282 149 383 20 108 24 114 91 187 53 58 74 111 74 188
0 112 -101 170 -181 103 -19 -16 -47 -60 -69 -108 -31 -66 -49 -90 -103 -137
-56 -50 -69 -67 -93 -130 -34 -91 -62 -136 -133 -216 -58 -66 -145 -170 -234
-281 -65 -81 -236 -211 -277 -211 -53 0 -64 23 -57 125 9 126 28 183 88 257
68 85 87 123 109 229 22 103 19 96 82 172 59 72 89 129 118 227 20 69 27 80
90 140 76 72 97 111 106 198 9 87 -25 112 -123 92z"/>
<path d="M11550 12591 c-27 -51 58 -255 170 -411 62 -86 69 -99 100 -208 12
-41 44 -116 71 -168 35 -67 56 -123 70 -187 13 -62 36 -125 71 -194 53 -106
57 -133 21 -168 -25 -26 -111 -16 -160 18 -21 14 -85 81 -143 148 -58 67 -135
154 -171 193 -37 39 -83 96 -102 127 -19 30 -59 78 -89 107 -56 54 -63 65
-126 203 -27 60 -50 93 -73 111 -46 33 -91 50 -125 46 -36 -4 -41 -25 -43
-164 -1 -141 12 -180 92 -263 63 -65 65 -68 86 -163 24 -104 61 -175 132 -256
22 -26 61 -85 84 -133 24 -47 69 -117 102 -156 32 -39 72 -93 88 -119 17 -27
58 -71 92 -99 34 -27 80 -74 102 -103 22 -29 64 -72 95 -95 31 -23 71 -64 90
-92 42 -62 58 -77 121 -109 28 -14 80 -51 117 -83 36 -32 103 -78 149 -102 46
-25 102 -61 124 -81 67 -60 107 -86 180 -117 39 -16 102 -53 140 -83 86 -65
137 -89 192 -90 85 0 123 39 123 128 0 37 -10 68 -41 130 -35 70 -42 95 -49
174 -4 51 -15 120 -23 153 -9 33 -20 110 -27 170 -14 145 -30 195 -88 287 -34
54 -58 107 -77 175 -35 122 -55 169 -105 243 -22 32 -65 110 -95 172 -33 69
-74 136 -106 173 -28 33 -78 98 -109 145 -32 47 -81 111 -108 143 -28 31 -65
76 -81 100 -16 23 -55 67 -86 97 -31 30 -75 80 -97 110 -47 63 -68 83 -120
110 -21 11 -66 49 -100 83 -65 66 -136 103 -220 114 -30 4 -38 2 -48 -16z"/>
<path d="M10369 12091 c-54 -42 -88 -158 -109 -366 -23 -244 -37 -307 -117
-524 -66 -180 -72 -207 -83 -411 -5 -102 -15 -279 -21 -395 -17 -323 0 -1113
31 -1460 13 -144 46 -322 86 -460 75 -263 84 -303 100 -469 18 -200 36 -285
69 -342 45 -76 100 -93 155 -48 42 36 54 63 85 185 15 57 44 147 65 200 39 96
63 203 75 329 10 99 24 176 50 270 13 47 31 136 40 199 8 63 22 140 29 170 8
31 19 88 25 126 29 196 55 871 41 1080 -5 77 -9 199 -10 272 0 159 -24 304
-80 493 -22 74 -60 235 -85 356 -29 148 -57 256 -84 325 -40 107 -84 248 -96
309 -12 56 -61 157 -83 169 -30 16 -56 14 -83 -8z"/>
<path d="M11280 10558 c-61 -32 -77 -157 -41 -313 24 -104 27 -426 5 -595 -8
-63 -19 -239 -24 -390 -18 -532 -47 -769 -125 -1002 -46 -138 -67 -249 -83
-420 -8 -85 -13 -104 -42 -150 -62 -97 -70 -119 -70 -184 0 -110 53 -142 178
-109 121 32 166 54 221 105 68 64 93 77 187 95 90 17 111 29 184 104 30 31 82
72 114 91 33 18 87 59 121 90 35 31 95 78 135 105 40 27 100 80 134 119 33 38
89 99 122 135 34 36 88 102 120 147 33 45 82 109 111 142 28 34 69 92 89 129
20 38 61 100 91 139 34 46 64 100 84 155 41 113 54 139 117 242 30 49 61 105
68 125 21 59 17 124 -8 162 -37 53 -68 71 -147 81 -90 11 -129 29 -183 86 -56
57 -108 88 -188 108 -83 21 -105 34 -182 98 -35 30 -94 71 -133 92 -38 22 -93
61 -122 87 -29 26 -83 63 -121 82 -37 19 -92 54 -121 78 -28 23 -89 70 -134
104 -45 33 -95 79 -112 102 -16 23 -43 61 -60 84 -16 22 -42 50 -56 60 -33 25
-97 33 -129 16z"/>
<path d="M9473 10462 c-48 -38 -136 -121 -196 -184 -87 -94 -121 -123 -180
-154 -39 -20 -99 -63 -132 -95 -33 -31 -84 -69 -114 -84 -30 -15 -89 -59 -130
-99 -42 -39 -96 -80 -121 -90 -121 -51 -153 -67 -203 -105 -30 -23 -94 -58
-143 -77 -180 -73 -278 -134 -309 -194 -21 -41 -19 -120 6 -182 11 -29 51 -98
88 -153 37 -55 86 -136 109 -180 23 -44 68 -109 100 -145 32 -36 82 -100 111
-143 29 -43 80 -108 115 -145 34 -37 78 -89 98 -117 48 -65 267 -281 339 -333
31 -22 82 -63 114 -91 32 -28 93 -71 134 -95 42 -24 95 -64 118 -89 64 -69
104 -95 174 -113 85 -22 114 -37 175 -94 64 -61 94 -75 199 -100 109 -25 140
-25 166 1 19 19 21 29 15 84 -3 34 -22 108 -41 165 -19 57 -39 141 -45 186
-11 85 -19 115 -68 249 -47 126 -89 363 -107 590 -11 149 -22 230 -44 316 -16
64 -32 141 -35 170 -3 30 -10 99 -16 154 -6 55 -15 215 -22 355 -6 140 -13
299 -15 352 -3 79 1 123 23 229 29 146 29 225 -1 259 -32 35 -66 25 -162 -48z"/>
<path d="M6894 9016 c-32 -15 -79 -52 -125 -99 -55 -57 -93 -85 -149 -113 -56
-27 -94 -56 -150 -113 -41 -42 -96 -91 -122 -108 -26 -18 -64 -55 -84 -83 -20
-27 -61 -69 -92 -93 -32 -23 -78 -73 -103 -109 -25 -37 -70 -93 -100 -125 -30
-33 -71 -91 -92 -130 -22 -38 -65 -103 -98 -142 -32 -40 -74 -102 -94 -139
-19 -37 -58 -93 -85 -126 -61 -70 -72 -90 -108 -198 -17 -51 -50 -115 -84
-165 -33 -50 -64 -109 -76 -150 -11 -38 -37 -120 -56 -183 -23 -74 -50 -138
-75 -178 -62 -95 -70 -115 -91 -219 -27 -130 -44 -179 -96 -277 -64 -120 -91
-200 -114 -338 -11 -68 -38 -175 -59 -238 -72 -213 -96 -454 -57 -567 29 -88
104 -135 189 -119 18 3 66 25 107 49 41 23 106 55 143 71 50 21 78 41 105 74
51 62 89 100 145 145 31 25 58 60 78 100 18 34 53 89 79 122 26 33 71 100 98
148 28 49 76 115 107 148 57 63 83 105 105 174 19 61 48 114 97 180 56 75 84
130 112 222 14 47 41 101 77 154 39 56 70 118 99 198 30 84 57 138 97 193 53
75 61 94 112 270 9 32 32 77 51 100 68 84 92 137 115 246 33 156 56 224 116
342 47 93 56 121 80 250 14 80 36 171 49 203 13 31 31 90 40 130 16 68 23 92
81 247 17 46 24 86 24 138 0 68 -2 76 -29 103 -38 37 -94 39 -167 5z"/>
<path d="M13845 9010 c-15 -17 -17 -31 -12 -97 3 -43 17 -121 31 -173 13 -52
32 -138 41 -190 12 -69 30 -124 65 -200 55 -121 74 -183 90 -295 24 -176 43
-234 97 -299 37 -44 61 -98 87 -193 32 -118 57 -180 121 -293 32 -56 67 -138
86 -200 36 -120 55 -160 115 -249 40 -57 84 -168 84 -210 0 -33 49 -118 102
-177 57 -64 64 -78 97 -191 21 -70 36 -94 113 -180 20 -23 53 -74 74 -115 20
-40 56 -101 80 -134 24 -34 64 -105 90 -159 40 -84 53 -102 104 -142 32 -25
74 -69 94 -98 19 -30 63 -77 97 -105 35 -29 79 -71 98 -95 20 -24 47 -52 61
-63 50 -38 242 -132 271 -132 99 0 174 95 186 238 4 50 -1 102 -21 202 -14 74
-33 194 -41 265 -19 161 -41 236 -116 397 -37 78 -71 171 -88 240 -21 83 -46
147 -94 238 -53 105 -68 143 -86 235 -32 159 -49 209 -93 271 -51 74 -70 113
-103 214 -29 93 -48 128 -102 193 -36 42 -74 117 -108 211 -12 32 -41 73 -85
120 -36 39 -81 94 -100 121 -18 28 -53 71 -78 97 -25 26 -73 83 -106 127 -155
204 -429 470 -603 586 -56 37 -99 76 -134 120 -57 73 -73 83 -173 114 -85 26
-118 26 -141 1z"/>
<path d="M7501 8904 c-22 -28 -27 -52 -35 -162 -3 -41 -16 -108 -30 -150 -14
-43 -41 -154 -60 -249 -35 -170 -52 -219 -106 -298 -34 -50 -54 -109 -70 -205
-16 -107 -35 -159 -106 -302 -48 -96 -71 -156 -90 -238 -21 -89 -33 -119 -60
-153 -88 -110 -112 -158 -129 -262 -10 -63 -39 -118 -92 -176 -52 -59 -58 -69
-98 -200 -21 -69 -37 -99 -79 -150 -59 -71 -85 -117 -111 -199 -24 -74 -45
-114 -99 -185 -25 -33 -55 -87 -67 -120 -33 -89 -56 -133 -109 -205 -27 -36
-66 -103 -89 -149 -23 -46 -60 -109 -84 -138 -64 -82 -75 -101 -103 -188 -30
-91 -56 -146 -90 -190 -73 -96 -119 -278 -112 -436 3 -69 8 -92 27 -117 35
-50 68 -62 169 -62 104 0 159 16 303 89 52 27 127 59 165 70 80 25 127 54 204
126 30 28 75 66 100 85 25 19 72 59 105 90 33 31 96 81 140 110 44 30 105 78
136 107 31 29 83 66 116 82 42 21 77 48 114 92 30 34 79 79 110 100 31 21 76
60 100 87 24 27 71 68 104 92 33 23 85 66 115 95 30 29 88 74 128 100 40 26
101 72 135 102 34 30 96 71 137 91 60 30 84 49 123 97 31 39 70 73 111 97 35
21 92 63 127 95 40 36 99 76 159 105 52 26 118 66 145 89 28 23 88 59 134 80
46 21 113 61 150 88 79 58 105 72 196 101 39 12 104 42 146 66 42 25 114 57
161 73 46 16 98 35 114 44 88 45 85 165 -5 211 -14 8 -65 23 -111 34 -127 31
-169 48 -230 96 -31 24 -100 67 -155 95 -72 36 -116 67 -155 107 -30 31 -77
69 -105 85 -64 38 -72 44 -124 107 -25 31 -68 66 -105 87 -85 48 -371 344
-448 466 -20 30 -63 80 -98 109 -37 33 -77 81 -100 120 -21 36 -59 85 -85 110
-58 56 -68 76 -95 181 -28 110 -56 156 -133 217 -114 89 -168 104 -206 56z"/>
<path d="M13239 8897 c-51 -34 -91 -101 -127 -214 -27 -85 -44 -118 -97 -189
-36 -48 -78 -110 -94 -138 -17 -28 -55 -76 -86 -106 -31 -30 -74 -80 -95 -110
-20 -30 -65 -79 -99 -108 -33 -29 -73 -74 -87 -98 -15 -26 -54 -66 -91 -94
-35 -26 -82 -71 -105 -100 -22 -28 -67 -69 -99 -90 -32 -22 -77 -63 -101 -91
-24 -27 -74 -71 -113 -97 -38 -26 -88 -63 -110 -82 -60 -55 -93 -74 -171 -104
-80 -30 -116 -54 -164 -109 -46 -53 -95 -75 -192 -86 -46 -5 -96 -15 -113 -21
-68 -26 -106 -93 -86 -153 17 -52 58 -83 177 -136 298 -132 345 -156 416 -209
43 -32 123 -77 179 -101 78 -34 116 -57 163 -101 66 -62 99 -82 184 -111 30
-10 98 -50 151 -88 53 -38 112 -76 130 -86 19 -10 69 -50 111 -90 42 -40 100
-85 130 -100 29 -15 82 -54 119 -88 36 -34 99 -80 139 -101 40 -22 103 -67
140 -100 37 -34 97 -80 133 -104 36 -23 81 -61 98 -83 18 -22 63 -62 101 -89
37 -27 88 -74 114 -104 26 -31 72 -69 104 -87 31 -17 84 -57 117 -89 33 -31
89 -77 125 -102 36 -25 94 -71 129 -103 35 -31 94 -76 130 -100 36 -23 99 -72
139 -108 51 -46 92 -73 140 -92 37 -14 90 -41 118 -60 129 -84 229 -115 375
-115 110 0 152 16 181 71 40 75 8 232 -94 449 -22 47 -53 123 -69 169 -31 90
-41 108 -100 186 -38 50 -70 114 -104 210 -12 34 -39 72 -82 116 -52 55 -72
85 -108 169 -25 56 -65 131 -90 166 -25 35 -67 110 -94 166 -26 57 -69 136
-94 177 -25 40 -60 110 -78 155 -18 44 -59 125 -90 178 -32 53 -84 161 -115
240 -31 79 -77 181 -104 228 -45 81 -61 123 -109 287 -13 45 -39 98 -68 140
-54 79 -77 134 -93 223 -17 97 -36 152 -102 290 -51 105 -65 146 -89 262 -21
104 -41 167 -80 255 -45 102 -54 132 -66 232 -14 113 -22 140 -51 174 -22 25
-91 22 -133 -6z"/>
<path d="M16992 8455 c-17 -14 -39 -44 -50 -68 -11 -23 -32 -67 -46 -97 -14
-30 -46 -82 -71 -115 -36 -49 -54 -89 -96 -215 -28 -85 -68 -188 -90 -229 -22
-41 -48 -99 -59 -130 -20 -61 -74 -398 -85 -526 -3 -44 -17 -145 -32 -225 -16
-92 -26 -182 -26 -245 0 -100 27 -313 63 -500 11 -55 24 -131 30 -170 20 -131
36 -170 98 -237 32 -35 79 -90 104 -123 94 -124 182 -185 265 -185 92 1 114
39 124 220 5 74 13 205 20 290 6 90 12 424 13 795 2 548 0 670 -16 849 -10
115 -18 276 -18 356 0 127 3 157 25 230 27 90 34 215 14 267 -30 81 -108 108
-167 58z"/>
<path d="M3843 8433 c-12 -2 -33 -17 -47 -34 -33 -39 -41 -108 -31 -278 5 -75
7 -606 6 -1181 -2 -890 0 -1074 14 -1244 17 -210 30 -263 73 -296 40 -32 109
-27 163 12 73 53 274 265 333 352 44 65 58 145 81 460 20 278 19 547 -5 825
-25 285 -37 345 -93 469 -68 148 -76 168 -109 292 -35 131 -45 154 -103 230
-57 75 -60 81 -84 195 -24 109 -49 158 -89 179 -33 17 -80 25 -109 19z"/>
<path d="M9840 6442 c-41 -15 -102 -43 -135 -61 -33 -19 -107 -51 -165 -73
-58 -21 -139 -61 -180 -88 -41 -27 -124 -69 -183 -94 -59 -25 -138 -66 -175
-92 -37 -26 -103 -64 -148 -84 -55 -26 -101 -57 -146 -99 -48 -45 -91 -73
-163 -106 -67 -32 -114 -61 -153 -99 -31 -29 -84 -69 -117 -87 -33 -18 -87
-61 -120 -95 -33 -34 -82 -76 -109 -94 -27 -19 -72 -54 -100 -79 -28 -25 -95
-79 -149 -120 -54 -40 -105 -84 -114 -98 -9 -14 -60 -60 -112 -103 -53 -43
-109 -92 -126 -110 -16 -17 -59 -53 -95 -80 -36 -27 -85 -72 -109 -100 -24
-29 -71 -72 -104 -96 -36 -26 -79 -70 -104 -107 -51 -73 -182 -225 -270 -313
-39 -40 -75 -89 -98 -135 -23 -44 -63 -100 -106 -145 -38 -40 -74 -85 -79 -99
-27 -72 6 -150 75 -174 31 -10 78 -12 199 -7 171 7 227 16 285 45 20 10 68 34
106 53 39 20 119 50 178 67 122 35 185 65 272 127 34 23 85 52 116 63 61 23
113 56 207 131 43 34 81 55 120 65 89 24 135 52 187 112 27 30 73 71 104 91
31 19 81 58 111 87 30 28 91 75 135 105 44 29 107 79 140 110 33 31 78 69 100
85 52 38 313 299 345 345 13 19 56 69 95 110 39 41 91 102 115 135 24 33 64
83 88 110 25 28 65 82 90 120 24 39 71 94 103 124 65 58 84 90 118 192 14 43
37 84 67 119 50 58 63 82 93 159 11 29 38 84 61 122 52 86 57 131 16 165 -35
31 -71 30 -166 -4z"/>
<path d="M10948 6445 c-54 -30 -50 -80 15 -176 24 -35 49 -80 57 -99 28 -73
60 -129 104 -180 30 -35 53 -76 67 -119 32 -97 44 -117 124 -201 40 -42 80
-90 89 -108 9 -18 45 -67 80 -110 34 -42 86 -111 115 -152 29 -41 79 -102 110
-135 32 -33 81 -90 110 -127 29 -38 56 -68 61 -68 5 0 50 -39 102 -88 51 -48
113 -102 138 -121 25 -19 74 -62 110 -96 36 -34 99 -84 140 -110 41 -26 100
-71 130 -99 31 -28 86 -69 123 -91 41 -23 90 -64 122 -100 52 -60 74 -73 178
-110 27 -10 81 -43 121 -75 82 -65 106 -79 198 -114 36 -13 102 -49 147 -79
92 -62 166 -95 298 -131 51 -14 132 -45 180 -69 121 -61 254 -87 441 -87 134
0 182 36 182 135 0 59 -16 87 -85 155 -39 38 -70 82 -101 142 -28 56 -67 112
-107 155 -34 38 -75 85 -91 106 -63 86 -426 447 -497 495 -25 17 -68 54 -95
82 -27 29 -79 74 -117 101 -37 27 -91 71 -120 97 -28 26 -88 75 -132 109 -44
33 -98 80 -120 103 -22 23 -67 60 -100 83 -33 22 -88 69 -122 104 -40 40 -85
74 -125 93 -35 17 -90 55 -123 85 -38 35 -94 72 -153 100 -63 30 -113 64 -158
106 -65 60 -98 79 -184 105 -25 7 -88 44 -140 81 -53 37 -116 77 -140 87 -93
39 -167 77 -228 115 -34 21 -97 52 -140 67 -42 15 -140 54 -217 87 -152 65
-205 76 -247 52z"/>
<path d="M10429 6150 c-71 -21 -117 -83 -150 -201 -27 -98 -40 -120 -114 -194
-54 -54 -68 -76 -96 -151 -24 -63 -50 -109 -95 -165 -34 -44 -76 -103 -93
-131 -16 -29 -58 -80 -91 -113 -34 -33 -79 -85 -100 -116 -22 -31 -63 -75 -91
-98 -29 -23 -71 -68 -95 -100 -23 -32 -65 -75 -93 -95 -28 -21 -70 -63 -94
-94 -23 -31 -69 -76 -100 -100 -32 -24 -76 -68 -98 -97 -22 -30 -68 -71 -102
-94 -34 -22 -82 -61 -107 -87 -25 -25 -72 -64 -105 -87 -33 -22 -88 -66 -123
-98 -36 -33 -102 -78 -153 -104 -49 -25 -115 -69 -146 -96 -32 -28 -89 -66
-128 -84 -38 -19 -99 -59 -135 -90 -78 -68 -93 -76 -189 -105 -67 -20 -80 -28
-145 -95 -52 -53 -92 -83 -151 -113 -44 -22 -108 -63 -142 -90 -34 -28 -88
-60 -120 -71 -86 -32 -103 -42 -137 -85 -33 -42 -78 -88 -168 -171 -40 -37
-60 -65 -76 -108 -43 -114 -21 -188 70 -235 92 -48 424 -54 579 -11 40 11 121
31 179 44 58 12 146 35 195 50 82 24 112 28 350 37 258 9 427 6 620 -13 117
-11 192 -31 255 -66 75 -41 138 -63 218 -74 100 -14 151 -37 219 -99 65 -59
87 -72 168 -95 73 -21 115 -45 180 -105 28 -26 79 -66 115 -89 48 -31 77 -60
110 -109 56 -82 97 -112 157 -112 66 0 102 22 180 108 75 82 85 89 178 123 45
17 78 40 137 96 43 41 99 83 125 95 26 11 88 45 139 74 105 61 167 83 308 113
54 11 135 37 180 57 171 77 197 83 418 95 223 13 658 6 778 -11 41 -6 175 -40
296 -76 354 -103 423 -111 679 -74 171 25 197 33 230 71 41 49 29 103 -35 164
-18 17 -53 59 -78 95 -41 58 -136 163 -232 257 -19 19 -62 47 -95 63 -33 16
-85 48 -115 71 -30 23 -100 63 -155 89 -75 35 -113 61 -150 100 -59 61 -85 76
-178 102 -76 21 -105 38 -183 108 -28 25 -85 63 -125 85 -41 21 -96 59 -124
85 -27 25 -90 68 -140 95 -49 27 -117 73 -151 102 -34 28 -93 72 -132 96 -38
25 -86 66 -108 92 -21 26 -67 67 -103 91 -35 23 -83 68 -107 98 -24 30 -68 73
-99 96 -30 22 -73 65 -95 94 -23 30 -66 73 -96 96 -29 22 -72 65 -94 95 -23
31 -66 75 -96 99 -30 23 -71 67 -91 97 -20 30 -64 83 -98 119 -33 36 -76 88
-95 115 -18 28 -59 80 -91 117 -40 46 -67 92 -91 150 -27 68 -46 97 -104 158
-77 82 -86 96 -133 215 -65 163 -137 224 -232 195z"/>
<path d="M16609 4964 c-20 -22 -24 -35 -24 -93 0 -72 6 -85 89 -188 28 -34 37
-58 51 -134 21 -118 64 -237 107 -297 57 -80 74 -116 106 -219 19 -59 42 -110
56 -126 40 -43 91 -33 123 26 27 49 24 252 -6 372 -33 131 -38 251 -16 385 21
127 13 178 -31 207 -23 14 -33 15 -83 5 -93 -19 -110 -16 -189 38 -89 61 -142
68 -183 24z"/>
<path d="M4208 4965 c-2 -3 -67 -11 -142 -19 -154 -15 -175 -24 -210 -92 -20
-36 -21 -53 -18 -239 3 -191 2 -204 -24 -300 -21 -77 -27 -124 -28 -205 -1
-154 27 -214 108 -227 33 -5 40 -2 75 35 31 32 45 62 76 156 22 70 51 138 72
169 65 94 91 165 113 297 12 69 32 160 46 203 37 120 30 192 -23 216 -26 12
-37 14 -45 6z"/>
<path d="M4957 4540 c-21 -12 -76 -46 -123 -76 -101 -67 -124 -102 -154 -229
-15 -67 -30 -104 -59 -145 -58 -84 -69 -110 -118 -279 -55 -190 -58 -203 -44
-230 18 -33 55 -26 144 31 119 75 141 99 184 201 29 69 53 106 100 158 68 75
78 91 123 205 17 43 45 98 61 122 76 112 92 191 48 238 -30 32 -107 33 -162 4z"/>
<path d="M15804 4546 c-58 -26 -58 -69 -1 -190 24 -50 66 -120 94 -156 27 -36
62 -85 77 -110 16 -25 56 -74 91 -110 34 -36 79 -91 99 -123 35 -56 212 -242
266 -279 14 -10 42 -18 63 -18 31 0 40 5 57 33 40 65 23 137 -53 226 -26 30
-56 79 -67 108 -26 68 -61 136 -104 194 -18 26 -50 96 -71 155 -66 188 -89
222 -178 259 -52 21 -234 29 -273 11z"/>
<path d="M5920 3930 c-81 -50 -122 -52 -205 -10 -80 39 -139 40 -182 3 -57
-49 -184 -215 -220 -286 -21 -42 -62 -99 -103 -142 -37 -40 -80 -95 -94 -123
-14 -28 -55 -79 -90 -114 -36 -35 -68 -76 -71 -91 -17 -66 24 -117 92 -117 53
0 87 17 133 65 19 21 71 61 115 90 45 28 99 72 120 97 22 25 65 63 95 83 30
21 87 69 125 106 71 68 106 91 160 103 56 13 100 51 134 117 19 35 56 87 83
116 55 60 64 101 26 127 -33 23 -46 20 -118 -24z"/>
<path d="M14932 3938 c-22 -22 -13 -58 27 -101 21 -23 55 -75 75 -115 41 -82
64 -100 168 -132 55 -17 80 -32 130 -79 35 -32 88 -75 118 -94 71 -47 77 -52
127 -113 27 -32 65 -63 105 -84 35 -18 93 -62 130 -96 56 -55 71 -64 103 -64
48 0 70 13 85 49 20 49 6 91 -51 146 -27 28 -67 82 -87 120 -22 42 -63 97
-102 136 -41 41 -83 98 -114 154 -50 91 -183 243 -238 271 -40 21 -101 17
-168 -11 -33 -14 -79 -25 -103 -25 -28 0 -61 9 -91 25 -51 27 -95 32 -114 13z"/>
<path d="M14600 3239 c-60 -27 -88 -55 -96 -94 -8 -43 14 -83 90 -167 79 -87
128 -122 201 -143 79 -23 118 -43 190 -100 85 -66 119 -82 299 -137 171 -52
206 -57 231 -32 21 21 16 41 -37 161 -48 111 -80 142 -174 172 -38 12 -94 39
-124 61 -30 22 -93 67 -140 99 -47 32 -111 86 -142 120 -32 34 -69 66 -83 71
-47 18 -165 12 -215 -11z"/>
<path d="M6172 3205 c-18 -8 -59 -34 -90 -58 -31 -25 -77 -56 -102 -70 -25
-15 -76 -53 -113 -84 -37 -32 -101 -76 -143 -97 -41 -22 -94 -54 -117 -72 -64
-51 -174 -181 -181 -214 -13 -68 42 -120 127 -120 62 0 107 20 165 71 26 23
84 59 129 80 46 22 113 59 150 83 38 25 109 62 158 82 113 47 198 126 246 228
43 92 27 145 -54 175 -40 15 -136 13 -175 -4z"/>
<path d="M8295 2424 c-90 -14 -157 -32 -379 -99 -122 -37 -169 -58 -270 -119
-32 -19 -108 -52 -170 -72 -88 -30 -119 -45 -148 -74 -60 -59 -48 -124 29
-161 l45 -22 1168 1 c870 0 1177 3 1204 12 70 23 94 85 57 146 -26 43 -70 67
-186 103 -67 20 -133 50 -200 90 -89 53 -123 67 -309 120 -117 34 -256 67
-317 76 -135 19 -400 18 -524 -1z"/>
<path d="M12050 2415 c-426 -102 -521 -130 -660 -201 -81 -41 -150 -68 -195
-77 -127 -26 -175 -66 -175 -146 0 -49 17 -84 52 -102 15 -8 368 -11 1253 -11
1317 0 1265 -2 1304 46 17 21 18 79 1 111 -19 36 -91 78 -195 115 -49 17 -119
48 -155 68 -36 20 -86 46 -111 58 -64 31 -409 118 -546 138 -140 20 -491 21
-573 1z"/>
<path d="M6480 2355 c-36 -13 -96 -33 -135 -45 -39 -12 -107 -45 -154 -76 -59
-38 -115 -64 -183 -85 -209 -65 -265 -158 -138 -229 39 -21 57 -24 140 -24 62
0 116 6 155 18 173 52 169 51 247 37 109 -21 145 -24 183 -17 49 10 237 136
263 177 44 73 37 160 -17 198 -34 25 -205 71 -258 70 -21 0 -67 -11 -103 -24z"/>
<path d="M14290 2335 c-74 -6 -148 -18 -163 -25 -76 -36 -76 -162 -1 -232 16
-15 65 -44 109 -64 l80 -38 175 -6 c161 -7 183 -10 269 -39 221 -75 435 -39
435 72 0 64 -46 96 -201 137 -58 15 -108 38 -167 76 -218 138 -249 145 -536
119z"/>
<path d="M17480 26518 c-25 -3 -178 -7 -340 -8 -402 -1 -612 -13 -653 -38 -48
-28 -77 -77 -77 -131 0 -63 14 -110 65 -221 25 -52 51 -124 60 -160 39 -160
33 -150 120 -235 45 -44 94 -97 109 -118 15 -20 51 -55 80 -77 29 -22 74 -67
99 -100 52 -66 75 -81 164 -104 35 -8 149 -52 254 -97 184 -78 194 -81 255
-77 121 8 158 69 149 248 -3 58 -7 310 -9 561 -4 498 -4 496 -63 534 -32 21
-145 34 -213 23z"/>
<path d="M3263 26501 c-79 -37 -76 -10 -75 -667 0 -372 4 -588 10 -600 6 -11
22 -30 37 -44 24 -22 35 -25 109 -25 l82 0 77 52 c43 29 102 59 134 68 146 40
231 84 331 168 23 20 68 50 98 68 77 44 113 83 162 175 22 43 61 106 86 138
61 81 91 146 111 241 9 44 30 122 46 173 16 51 29 102 29 114 0 43 -39 104
-83 129 -37 21 -53 24 -142 23 -462 -5 -786 -5 -870 0 -87 6 -105 4 -142 -13z"/>
<path d="M3260 2612 c-70 -34 -69 -23 -71 -637 -2 -602 -3 -597 56 -643 53
-42 77 -43 650 -40 503 3 553 4 582 21 42 23 67 70 66 129 -1 49 -8 67 -66
161 -25 41 -39 79 -47 130 -16 95 -45 158 -112 237 -30 36 -76 97 -103 135
-75 106 -122 153 -213 212 -46 30 -110 79 -143 109 -73 67 -96 77 -218 98 -74
13 -112 26 -176 61 -92 51 -145 58 -205 27z"/>
<path d="M17480 2585 c-41 -18 -118 -43 -170 -55 -122 -27 -164 -47 -253 -116
-39 -31 -108 -73 -152 -94 -84 -39 -129 -79 -164 -148 -11 -21 -49 -78 -85
-127 -79 -104 -116 -179 -149 -297 -16 -57 -36 -103 -61 -136 -49 -68 -66
-112 -66 -175 0 -59 27 -113 67 -132 13 -7 222 -12 605 -13 l584 -3 35 23 c19
13 45 44 59 73 l25 50 -3 450 c-4 605 -13 674 -92 717 -50 26 -95 22 -180 -17z"/>
</g>
</svg>
