<?xml version="1.0" standalone="no"?>
<!DOCTYPE svg PUBLIC "-//W3C//DTD SVG 20010904//EN"
 "http://www.w3.org/TR/2001/REC-SVG-20010904/DTD/svg10.dtd">
<svg version="1.0" xmlns="http://www.w3.org/2000/svg"
 width="262" height="348" viewBox="0 0 262 348"
 preserveAspectRatio="xMidYMid meet">
<metadata>
Created by potrace 1.16, written by Peter Selinger 2001-2019
</metadata>
<g transform="translate(0,348) scale(0.012500,-0.012500)"
fill="#000000" stroke="none">
<path d="M2465 27809 c-12 -54 -69 -106 -141 -129 -35 -10 -76 -26 -91 -34
-50 -26 -237 -227 -278 -299 -39 -68 -97 -117 -138 -117 -16 0 -17 -904 -15
-13277 l3 -13276 30 -10 c60 -19 96 -57 136 -143 41 -89 77 -131 161 -188 29
-20 69 -50 88 -66 20 -17 96 -57 170 -91 137 -61 189 -98 211 -150 l11 -29
7767 0 7766 0 22 34 c12 19 37 45 55 59 37 28 152 69 243 87 54 11 66 19 131
84 39 39 94 90 121 113 48 40 129 143 199 253 17 26 45 99 63 162 36 126 73
201 131 272 l40 48 0 12859 0 12858 -51 48 c-64 60 -85 101 -110 215 -26 118
-38 144 -92 206 -26 29 -64 76 -87 106 -69 95 -219 219 -325 271 -97 48 -125
75 -140 138 l-7 27 -7933 0 -7933 0 -7 -31z m7985 -866 l7305 -2 85 -27 c182
-55 291 -155 319 -292 8 -38 11 -3545 11 -12698 0 -11277 -2 -12649 -15
-12681 -19 -45 -207 -230 -255 -251 -31 -14 -851 -15 -7493 -14 l-7457 1 -53
24 c-36 16 -67 41 -93 73 -21 27 -60 73 -87 103 -64 71 -76 97 -87 188 -6 49
-10 4561 -10 12635 0 11594 1 12561 16 12591 9 18 31 50 48 72 18 22 52 69 75
104 41 61 48 66 156 117 113 55 187 77 215 65 8 -3 3302 -7 7320 -8z"/>
<path d="M14890 26563 c-272 -2 -2623 -4 -5225 -5 -4519 -3 -4732 -4 -4770
-21 -85 -38 -108 -83 -129 -242 -14 -104 -24 -139 -87 -295 -38 -97 -90 -206
-113 -242 -24 -36 -65 -103 -92 -149 -72 -123 -318 -368 -429 -429 -44 -24
-105 -62 -135 -85 -69 -53 -119 -78 -305 -155 -119 -49 -171 -65 -269 -81 -66
-11 -137 -25 -156 -31 -52 -15 -108 -54 -125 -88 -14 -26 -15 -1126 -15
-10790 0 -9153 2 -10765 14 -10793 32 -75 100 -113 228 -127 264 -30 286 -36
398 -110 42 -28 107 -61 146 -74 97 -33 124 -48 202 -114 37 -31 90 -75 117
-97 28 -22 61 -53 75 -70 13 -16 63 -70 111 -120 47 -49 98 -112 114 -140 15
-27 51 -88 80 -135 78 -126 93 -159 152 -340 42 -126 57 -189 64 -265 13 -131
36 -180 104 -215 47 -24 59 -25 240 -29 104 -2 2566 -4 5470 -5 5105 -1 5282
0 5340 17 115 36 136 64 160 213 9 54 27 135 40 179 13 44 31 115 40 157 13
63 27 95 76 168 33 50 80 131 104 180 47 94 162 236 286 356 107 102 268 218
346 248 38 14 107 51 153 81 93 62 133 76 310 105 241 39 283 58 324 142 22
46 27 75 36 218 8 118 10 3130 7 10615 -3 5748 -5 10506 -5 10575 -1 111 -4
130 -24 165 -33 58 -124 101 -243 115 -122 15 -177 32 -276 84 -46 24 -124 56
-174 72 -71 22 -106 40 -170 89 -44 33 -106 76 -139 94 -149 85 -331 276 -423
445 -25 45 -64 106 -88 138 -59 76 -69 97 -99 210 -14 54 -40 126 -57 160 -28
55 -33 77 -40 175 -5 70 -14 124 -24 143 -26 49 -84 69 -248 85 -205 19 -324
22 -877 18z m697 -284 c80 -26 100 -63 122 -221 8 -60 22 -101 62 -179 28 -56
63 -137 79 -179 38 -104 83 -192 135 -265 23 -33 57 -92 74 -130 25 -56 48
-87 114 -150 45 -44 100 -102 122 -128 30 -37 56 -54 105 -74 36 -14 97 -49
135 -78 92 -69 161 -106 268 -145 48 -17 116 -48 150 -68 138 -80 160 -89 248
-96 120 -10 175 -37 235 -118 26 -35 58 -87 72 -117 22 -48 24 -61 18 -130 -4
-42 -7 -467 -7 -946 0 -1543 9 -19589 9 -19629 2 -52 -26 -102 -89 -161 -78
-73 -116 -93 -221 -116 -111 -24 -301 -83 -378 -117 -30 -13 -87 -45 -125 -71
-39 -27 -105 -64 -148 -84 -59 -27 -99 -56 -155 -110 -43 -40 -90 -83 -107
-96 -57 -42 -157 -146 -203 -211 -25 -36 -80 -101 -123 -145 -66 -69 -80 -89
-94 -140 -35 -129 -48 -162 -85 -225 -56 -94 -66 -121 -99 -284 -35 -171 -58
-221 -118 -254 l-42 -23 -5127 1 c-3761 0 -5139 3 -5172 12 -95 24 -141 107
-167 305 -19 143 -33 184 -100 290 -28 45 -68 121 -88 170 -24 56 -56 111 -87
149 -27 32 -90 109 -139 169 -50 61 -113 128 -142 150 -28 22 -96 79 -150 126
-54 47 -130 103 -170 124 -39 20 -99 57 -133 80 -64 45 -147 82 -231 104 -27
7 -84 24 -125 36 -42 13 -111 28 -153 34 -42 6 -93 17 -112 25 -49 21 -91 85
-109 166 -15 63 -16 1035 -16 10437 0 9372 2 10372 16 10427 9 34 27 76 40 94
41 53 70 62 196 62 117 0 260 25 315 54 15 8 66 42 112 75 64 46 104 67 160
84 71 20 82 28 176 115 173 162 295 285 341 343 24 32 63 74 87 96 61 53 93
104 117 183 11 37 39 96 61 131 23 35 52 87 65 114 29 62 70 232 83 344 7 51
19 96 31 116 28 45 95 76 183 84 134 12 10247 2 10284 -10z"/>
<path d="M6406 25979 c-140 -20 -184 -91 -111 -178 38 -44 120 -80 223 -97
124 -20 194 -52 220 -101 30 -55 -4 -95 -80 -94 -24 0 -117 16 -208 36 -91 20
-213 45 -271 55 -132 24 -174 39 -236 84 -63 45 -92 56 -183 66 -139 16 -204
-4 -202 -60 2 -73 82 -129 223 -157 l84 -16 71 -73 c66 -69 138 -114 182 -114
35 0 130 -54 261 -148 234 -168 296 -255 224 -312 -42 -33 -92 -23 -207 43
-54 30 -121 61 -149 67 -165 39 -310 97 -369 149 -48 41 -84 57 -184 82 -54
13 -115 37 -155 60 -70 42 -117 49 -143 23 -23 -22 -6 -48 59 -90 36 -23 63
-50 81 -82 54 -95 77 -122 131 -152 30 -17 90 -65 134 -106 44 -41 102 -85
128 -99 109 -55 283 -218 342 -320 62 -108 17 -160 -81 -95 -25 16 -79 41
-121 55 -42 14 -94 38 -116 53 -23 15 -105 70 -184 123 -79 53 -190 128 -246
167 -56 39 -127 80 -158 91 -32 12 -86 37 -122 56 -92 49 -133 46 -119 -9 3
-12 19 -40 36 -61 16 -20 46 -70 65 -110 24 -51 51 -88 91 -124 30 -28 84 -87
119 -130 36 -44 78 -89 94 -100 26 -19 80 -79 209 -235 23 -28 72 -100 108
-159 73 -120 89 -174 59 -207 -26 -29 -55 -25 -121 18 -32 21 -86 53 -119 72
-33 19 -96 68 -140 109 -44 42 -101 90 -126 107 -26 18 -61 54 -79 80 -49 73
-79 102 -145 141 -33 20 -97 71 -141 115 -66 63 -88 78 -112 78 -60 0 -55 -66
12 -180 24 -41 59 -113 77 -159 28 -73 41 -94 105 -159 65 -65 76 -83 94 -141
11 -36 36 -93 56 -126 91 -148 104 -173 115 -215 23 -86 -8 -150 -66 -136 -36
9 -171 127 -287 251 -78 82 -118 135 -144 187 -23 47 -61 98 -105 143 -48 50
-77 91 -102 145 -47 102 -102 150 -172 150 -77 0 -50 -181 45 -306 21 -28 38
-69 55 -137 14 -59 42 -132 69 -185 70 -133 126 -314 126 -406 0 -115 -22
-148 -83 -122 -57 23 -124 111 -189 245 -33 69 -81 158 -107 196 -61 89 -84
135 -106 210 -29 101 -68 160 -127 191 -66 34 -103 9 -120 -85 -16 -84 2 -191
48 -296 61 -138 73 -185 84 -352 7 -87 13 -160 15 -163 8 -13 -16 -114 -31
-131 -19 -21 -55 -25 -85 -8 -57 30 -115 179 -169 432 -35 165 -50 213 -84
272 -68 115 -147 122 -176 16 -15 -57 -15 -19488 1 -19559 13 -62 28 -76 73
-68 79 15 149 136 190 331 27 132 44 180 86 240 40 59 59 99 97 205 41 115 69
163 127 224 36 37 52 46 79 46 83 0 81 -56 -17 -385 -15 -49 -44 -178 -66
-286 -31 -157 -47 -214 -81 -290 -34 -76 -43 -106 -43 -155 -1 -48 3 -67 18
-83 43 -48 101 -12 165 102 22 39 66 99 96 132 32 34 75 98 102 150 25 50 72
122 103 160 31 39 76 104 99 146 44 81 93 139 162 189 57 41 86 40 105 -5 30
-73 13 -159 -56 -270 -53 -87 -76 -138 -85 -195 -15 -96 -26 -121 -84 -185
-77 -85 -97 -130 -123 -281 -17 -103 -19 -127 -8 -134 17 -10 146 48 210 95
27 20 78 75 114 123 36 48 85 103 110 123 25 20 74 72 110 116 35 43 74 86 87
95 13 9 69 57 123 107 144 133 206 145 206 41 0 -66 -22 -131 -68 -203 -22
-34 -55 -91 -73 -126 -19 -36 -61 -94 -94 -130 -33 -36 -71 -82 -84 -101 -13
-19 -61 -73 -107 -120 -63 -65 -91 -102 -115 -155 -17 -38 -46 -91 -65 -116
-44 -61 -57 -95 -44 -120 17 -30 60 -23 121 20 30 21 95 59 144 84 50 25 125
75 167 110 42 36 119 90 170 120 51 30 132 86 179 124 73 60 103 76 200 111
123 45 139 48 157 30 20 -20 14 -52 -25 -129 -31 -62 -59 -97 -182 -219 -80
-80 -180 -172 -221 -205 -41 -33 -105 -98 -142 -143 -38 -46 -95 -106 -127
-133 -67 -56 -90 -97 -73 -134 24 -53 111 -46 220 18 43 24 124 65 181 91 58
27 143 72 190 102 83 53 114 67 221 99 30 9 105 43 167 76 73 39 123 59 146
59 43 0 70 -28 62 -63 -8 -32 -131 -153 -211 -209 -34 -24 -92 -69 -130 -100
-37 -32 -88 -65 -113 -74 -97 -35 -148 -63 -201 -111 -30 -28 -89 -67 -130
-88 -99 -49 -136 -78 -160 -125 -24 -46 -25 -79 -6 -105 12 -16 29 -20 94 -23
103 -5 181 15 280 73 93 55 203 91 337 111 55 8 152 33 216 54 63 22 131 40
151 40 49 0 73 -28 65 -76 -9 -55 -50 -91 -132 -116 -92 -28 -127 -46 -204
-107 -81 -66 -122 -86 -212 -107 -94 -21 -168 -52 -264 -110 -42 -26 -123 -66
-179 -89 -123 -51 -154 -70 -162 -100 -10 -41 0 -59 46 -83 41 -22 54 -23 150
-19 58 3 135 12 171 21 84 20 -40 20 1969 6 1132 -7 2586 -9 4185 -4 1348 4
2518 7 2600 7 122 0 167 -5 240 -23 198 -49 375 -17 375 70 0 52 -61 92 -215
142 -55 18 -124 50 -178 84 -86 55 -177 94 -217 94 -43 0 -148 43 -221 91 -41
27 -112 63 -158 79 -45 17 -100 39 -121 50 -90 46 -94 170 -6 170 15 0 60 -11
99 -24 40 -13 119 -31 177 -40 249 -39 343 -65 457 -127 90 -49 166 -69 260
-69 61 0 76 3 94 21 28 28 21 85 -16 141 -21 31 -44 48 -102 75 -53 24 -98 56
-154 108 -64 60 -89 76 -136 90 -76 22 -118 45 -184 97 -30 24 -89 68 -131 97
-97 67 -208 190 -208 231 0 36 32 60 78 60 37 0 73 -16 141 -65 72 -51 125
-74 207 -90 81 -15 105 -27 241 -120 64 -44 104 -64 148 -74 92 -21 152 -48
214 -96 94 -74 197 -83 221 -20 16 42 -10 85 -84 144 -37 29 -82 76 -101 105
-36 57 -85 101 -150 134 -49 25 -106 74 -282 240 -118 111 -139 136 -173 205
-45 89 -50 123 -20 132 26 8 239 -59 276 -87 16 -13 60 -48 97 -80 40 -33 113
-78 174 -108 85 -42 117 -64 167 -115 51 -53 76 -70 153 -103 50 -21 109 -53
131 -71 50 -39 93 -49 115 -26 27 27 26 30 -49 136 -16 24 -43 75 -59 113 -25
61 -35 73 -97 118 -38 28 -94 82 -125 122 -31 39 -77 91 -104 116 -26 25 -76
86 -110 135 -35 50 -80 115 -102 146 -66 94 -61 179 9 179 44 0 66 -12 129
-68 28 -25 86 -68 131 -97 44 -29 102 -77 128 -108 27 -30 75 -75 108 -98 33
-24 84 -74 114 -111 62 -76 114 -115 219 -164 102 -47 115 -46 115 11 0 64
-28 191 -52 240 -11 22 -49 70 -83 106 -52 53 -66 76 -80 125 -34 121 -47 153
-92 225 -75 122 -83 143 -83 245 0 75 3 96 19 115 17 21 21 22 50 10 45 -19
145 -130 219 -246 36 -55 91 -134 122 -175 31 -41 74 -115 95 -164 29 -67 53
-103 97 -150 39 -40 72 -89 98 -142 22 -45 53 -94 71 -108 95 -80 165 -17 139
126 -13 67 -25 96 -77 174 -29 44 -37 72 -63 215 -17 90 -51 237 -76 327 -72
259 -70 344 10 350 35 3 43 -1 90 -50 41 -42 60 -74 90 -148 21 -52 66 -149
101 -215 52 -98 67 -139 85 -225 12 -58 32 -125 45 -150 35 -70 142 -160 189
-160 17 0 28 35 46 145 8 52 10 2532 8 9750 -3 8602 -5 9683 -18 9710 -35 70
-124 29 -184 -85 -51 -97 -64 -137 -91 -290 -38 -221 -76 -294 -152 -294 -27
0 -42 7 -60 29 -25 28 -25 31 -21 179 4 146 5 154 41 244 51 127 67 200 67
312 0 155 -26 209 -94 196 -75 -14 -120 -77 -163 -225 -30 -104 -51 -147 -113
-226 -29 -39 -61 -99 -85 -161 -33 -85 -46 -107 -95 -155 -95 -93 -161 -102
-176 -24 -14 78 2 175 46 275 23 52 55 125 71 162 16 37 41 115 54 174 29 121
38 140 95 208 52 62 67 98 85 204 18 104 12 117 -52 108 -94 -13 -155 -63
-203 -168 -17 -39 -54 -94 -88 -131 -31 -35 -79 -103 -106 -151 -62 -110 -324
-409 -388 -442 -62 -32 -98 -5 -98 72 0 52 12 77 75 159 51 67 70 109 89 194
21 93 35 119 100 190 29 32 70 89 91 127 21 38 58 97 82 132 68 100 103 181
103 244 0 65 -92 37 -207 -63 -37 -32 -99 -85 -138 -117 -38 -31 -106 -94
-150 -138 -44 -45 -96 -92 -115 -105 -19 -12 -73 -59 -120 -104 -63 -60 -110
-94 -184 -133 -54 -29 -106 -52 -115 -52 -23 0 -41 20 -41 44 0 36 82 184 137
249 29 34 79 96 112 137 32 41 90 104 127 140 38 36 84 86 103 112 18 26 67
70 107 99 80 56 102 85 128 164 9 28 32 72 51 99 19 27 35 56 35 63 0 26 -31
25 -72 -2 -22 -15 -84 -41 -137 -57 -94 -29 -98 -32 -166 -104 -60 -64 -79
-78 -136 -97 -43 -15 -110 -54 -193 -113 -176 -124 -364 -242 -398 -249 -18
-4 -41 0 -66 12 -32 15 -37 23 -40 56 -2 25 4 49 17 70 31 50 114 127 186 172
35 22 136 109 224 192 124 119 172 158 218 178 32 14 72 40 90 57 30 29 74
115 87 171 7 31 3 32 -109 28 -118 -3 -192 -29 -257 -87 -49 -44 -95 -66 -223
-109 -59 -20 -148 -54 -199 -77 -187 -83 -276 -105 -327 -78 -40 22 -25 57 75
174 56 64 99 93 201 131 39 14 86 38 105 54 100 80 135 101 197 121 111 37
158 66 238 145 46 47 93 84 122 97 136 59 152 128 29 128 -34 0 -65 -11 -123
-41 -98 -52 -113 -56 -242 -69 -137 -14 -267 -43 -416 -91 -151 -50 -190 -56
-238 -36 -50 22 -66 56 -44 101 23 49 71 82 162 110 44 13 132 41 196 60 133
41 191 77 209 131 10 29 9 40 -3 58 -36 55 228 52 -3992 53 -2145 1 -3961 4
-4035 7 -74 2 -162 0 -194 -4z m4094 -5728 c14 -9 45 -51 70 -93 25 -41 64
-99 87 -130 24 -30 61 -95 84 -144 22 -49 58 -112 78 -139 51 -68 63 -93 101
-215 17 -58 55 -152 82 -210 65 -137 85 -194 103 -301 19 -107 41 -182 94
-311 72 -178 116 -471 112 -748 -2 -199 2 -226 47 -272 20 -22 35 -28 68 -28
54 0 95 39 134 126 18 38 51 85 90 125 34 35 78 95 98 134 20 38 62 97 92 130
31 33 86 98 122 145 70 89 467 489 528 531 19 13 71 55 115 93 50 43 108 82
154 102 55 26 89 50 135 98 39 42 86 78 131 101 39 20 94 56 123 78 82 65 100
75 199 108 151 50 205 39 232 -50 16 -55 14 -448 -4 -679 -23 -287 -46 -419
-100 -572 -25 -70 -52 -184 -74 -311 -26 -147 -53 -233 -103 -334 -55 -109
-84 -189 -98 -266 -17 -100 -29 -127 -78 -182 -25 -28 -60 -84 -79 -124 -18
-39 -55 -109 -83 -154 -49 -81 -55 -99 -51 -149 4 -42 20 -53 71 -48 53 5 174
58 238 103 99 69 129 86 196 111 39 15 117 51 174 81 102 54 178 76 334 98 32
4 71 22 120 53 40 27 87 53 103 60 39 16 218 47 420 72 88 11 257 39 375 61
271 51 348 59 479 48 222 -19 301 -72 301 -201 0 -89 -26 -144 -112 -234 -67
-70 -84 -95 -122 -182 -26 -61 -61 -122 -88 -154 -25 -29 -66 -85 -90 -124
-25 -39 -66 -88 -91 -110 -25 -21 -67 -70 -93 -109 -26 -38 -67 -88 -91 -109
-25 -22 -63 -64 -86 -95 -49 -66 -225 -241 -282 -281 -23 -16 -67 -57 -98 -93
-32 -37 -81 -79 -112 -96 -36 -20 -72 -53 -102 -91 -28 -36 -71 -76 -108 -99
-34 -22 -83 -58 -110 -81 -26 -22 -91 -63 -145 -90 -188 -94 -201 -179 -36
-232 17 -6 155 -14 306 -18 416 -12 553 -36 814 -145 49 -20 130 -45 180 -56
125 -26 139 -32 236 -89 48 -28 122 -62 170 -76 127 -38 170 -57 251 -112 41
-27 114 -64 164 -83 74 -27 100 -44 155 -95 36 -33 91 -77 122 -97 86 -54 109
-101 88 -178 -18 -67 -79 -120 -171 -148 -105 -33 -125 -45 -204 -121 -59 -57
-83 -72 -155 -99 -120 -44 -147 -57 -215 -101 -34 -22 -117 -58 -192 -84 -72
-24 -166 -65 -208 -89 -86 -51 -141 -66 -340 -97 -98 -15 -163 -31 -220 -55
-173 -71 -355 -105 -568 -105 -154 0 -214 -11 -252 -46 -48 -44 -23 -139 48
-182 18 -11 67 -32 109 -47 66 -23 94 -42 205 -135 70 -59 133 -116 140 -127
6 -11 62 -58 125 -105 127 -95 412 -381 544 -545 43 -54 100 -122 126 -151 27
-30 69 -92 95 -138 32 -58 65 -100 103 -133 36 -31 69 -72 90 -113 18 -34 54
-94 80 -133 60 -90 190 -360 190 -395 0 -94 -154 -140 -470 -140 -104 0 -191
7 -310 25 -173 26 -305 45 -491 70 -88 11 -134 24 -223 61 -123 51 -313 114
-421 138 -53 12 -90 30 -154 73 -87 59 -164 92 -216 93 -66 1 -108 21 -179 89
-62 59 -83 72 -151 95 -46 15 -99 41 -124 61 -52 42 -84 52 -117 36 -36 -16
-32 -63 11 -132 19 -31 49 -96 66 -145 35 -100 97 -229 133 -277 39 -52 55
-91 76 -184 14 -62 41 -129 90 -228 74 -145 75 -152 118 -410 5 -33 32 -119
60 -190 40 -105 56 -166 83 -320 l34 -190 0 -370 c0 -332 -2 -373 -17 -402
-28 -50 -64 -73 -117 -73 -55 0 -99 21 -167 77 -27 23 -91 62 -142 87 -51 26
-120 67 -154 91 -33 25 -93 62 -132 83 -39 20 -100 65 -136 98 -36 34 -91 78
-122 98 -32 20 -76 61 -99 91 -25 33 -66 70 -101 92 -33 21 -73 56 -93 84 -18
26 -64 71 -100 100 -36 29 -79 75 -96 101 -18 27 -58 69 -89 94 -32 25 -74 70
-94 99 -19 30 -62 76 -94 102 -33 26 -74 70 -93 97 -19 28 -55 75 -80 105 -25
31 -63 88 -84 126 -47 86 -71 114 -112 131 -53 23 -96 -4 -129 -81 -14 -32
-19 -86 -25 -270 -10 -327 -47 -542 -115 -678 -31 -60 -70 -205 -89 -327 -19
-123 -32 -159 -93 -252 -34 -54 -56 -102 -72 -160 -32 -120 -51 -167 -97 -234
-22 -32 -65 -108 -96 -169 -33 -67 -74 -130 -102 -160 -26 -27 -62 -73 -80
-101 -19 -28 -49 -64 -66 -79 -29 -23 -40 -27 -81 -23 -86 9 -145 72 -194 208
-29 82 -68 144 -112 182 -46 39 -61 69 -82 167 -26 120 -37 145 -95 215 -56
69 -67 93 -99 223 -15 62 -44 139 -75 201 -59 118 -84 201 -111 372 -18 112
-51 252 -110 469 -11 41 -26 146 -34 232 -16 189 -25 209 -89 209 -113 0 -172
-44 -217 -163 -36 -93 -51 -116 -171 -253 -113 -129 -481 -501 -539 -544 -25
-19 -77 -64 -115 -100 -39 -36 -106 -89 -150 -119 -44 -30 -100 -72 -125 -94
-25 -21 -74 -54 -110 -72 -36 -18 -100 -62 -143 -98 -55 -45 -95 -69 -135 -82
-119 -37 -144 -48 -200 -90 -99 -72 -118 -78 -173 -49 -21 10 -39 33 -56 70
-23 50 -24 64 -20 157 8 183 27 369 52 507 14 74 32 207 40 295 9 88 27 222
40 298 20 117 30 153 74 245 41 86 56 135 80 252 37 182 50 217 107 296 60 85
80 133 94 229 14 93 20 105 99 182 65 64 87 114 98 229 8 82 -6 91 -106 70
-89 -19 -143 -47 -213 -111 -59 -55 -71 -60 -247 -115 -57 -18 -147 -55 -200
-82 -137 -70 -177 -85 -289 -107 -54 -11 -154 -42 -223 -70 -199 -81 -343
-109 -659 -131 -80 -5 -180 -16 -223 -25 -51 -10 -152 -16 -300 -17 -217 -3
-223 -2 -271 21 -89 44 -96 117 -22 241 19 30 52 91 74 136 22 44 62 107 89
140 27 32 67 88 88 124 21 36 66 97 100 137 33 39 78 104 100 143 21 39 62 96
90 128 29 31 79 89 112 129 33 39 74 84 92 99 18 15 55 57 82 92 27 36 80 91
117 122 37 31 80 75 95 98 16 22 55 61 88 87 32 25 80 71 106 100 25 30 74 74
107 97 34 24 85 64 113 90 61 55 111 82 179 99 72 17 129 53 148 93 31 66 13
140 -41 166 -18 9 -89 16 -203 20 -226 9 -290 21 -480 86 -86 29 -206 62 -266
74 -60 11 -134 25 -164 31 -30 6 -79 24 -107 40 -29 16 -78 43 -109 60 -31 17
-102 45 -157 61 -56 15 -127 41 -157 57 -30 16 -84 44 -120 62 -36 19 -101 49
-146 67 -56 22 -100 49 -145 88 -42 37 -101 74 -174 109 -125 59 -168 98 -186
166 -20 74 0 113 86 170 39 26 95 69 125 97 32 30 94 71 149 99 52 26 115 61
141 79 68 47 113 67 236 108 70 23 140 55 189 86 90 57 135 73 262 94 50 9
135 32 190 52 149 55 174 62 363 101 170 35 182 37 410 38 239 2 287 8 337 44
12 9 27 28 34 43 25 60 -12 107 -129 165 -47 23 -97 58 -133 94 -32 32 -83 69
-115 84 -57 27 -173 120 -319 255 -38 36 -110 101 -158 144 -48 43 -116 113
-150 155 -33 42 -83 100 -110 130 -27 30 -70 86 -97 125 -26 39 -67 89 -90
111 -24 22 -67 78 -98 125 -30 47 -77 108 -103 137 -30 32 -66 87 -93 145 -25
51 -74 133 -110 181 -88 120 -149 244 -149 299 0 80 58 132 183 164 83 21 164
15 336 -25 71 -16 184 -37 250 -45 65 -9 175 -23 244 -32 334 -43 397 -60 519
-140 42 -27 114 -46 261 -69 128 -21 190 -43 264 -95 88 -61 133 -81 210 -92
88 -12 149 -40 183 -85 30 -39 86 -74 160 -97 28 -10 82 -37 120 -61 37 -25
76 -45 86 -45 36 0 57 19 57 52 0 41 -116 276 -188 382 -68 101 -112 189 -147
296 -15 47 -49 121 -76 165 -58 95 -74 138 -93 251 -10 57 -34 129 -72 217
-76 177 -91 237 -114 470 -11 108 -33 282 -49 385 -24 151 -30 232 -35 419 -5
228 -5 232 17 265 33 48 70 63 157 63 90 0 117 -13 206 -96 57 -53 134 -99
167 -99 28 0 124 -54 178 -99 32 -27 84 -64 115 -82 31 -17 81 -59 112 -91 32
-33 84 -78 118 -99 38 -24 73 -57 95 -89 22 -33 58 -67 101 -95 38 -26 80 -64
98 -90 17 -25 61 -69 98 -98 37 -30 80 -72 95 -95 16 -22 55 -64 88 -92 32
-28 73 -72 90 -98 17 -26 58 -72 90 -102 33 -30 76 -84 97 -119 36 -63 136
-160 234 -228 75 -51 125 -1 114 116 -20 220 -20 218 18 348 42 146 60 240 81
433 24 220 35 255 124 396 26 41 38 79 57 180 23 116 33 144 99 279 41 83 88
184 105 226 17 42 55 114 84 161 30 46 76 131 104 189 55 113 97 162 158 185
44 15 78 11 114 -15z"/>
<path d="M10405 19571 c-37 -22 -55 -48 -90 -132 -15 -34 -49 -96 -75 -136
-58 -88 -63 -103 -89 -258 -15 -87 -35 -158 -74 -261 -30 -77 -62 -171 -70
-210 -27 -117 -57 -380 -57 -497 0 -62 -5 -143 -11 -182 -15 -99 -14 -313 5
-655 23 -424 41 -525 127 -705 29 -59 59 -142 70 -192 20 -89 67 -235 133
-415 19 -54 42 -135 51 -180 49 -263 104 -362 173 -311 54 40 83 136 107 358
22 193 37 249 101 387 47 99 61 144 85 261 15 78 44 196 64 262 20 66 54 205
76 310 l39 190 0 342 c0 412 -9 502 -85 803 -29 118 -63 278 -75 355 -30 199
-43 244 -115 390 -52 107 -68 150 -86 240 -25 132 -59 209 -103 236 -39 24
-63 24 -101 0z"/>
<path d="M13060 18884 c-17 -15 -49 -53 -71 -85 -25 -37 -59 -71 -92 -93 -29
-18 -84 -64 -123 -102 -38 -38 -118 -112 -178 -164 -113 -100 -224 -220 -341
-371 -38 -49 -86 -103 -107 -119 -20 -17 -55 -59 -77 -95 -23 -36 -67 -94 -99
-129 -57 -62 -67 -80 -113 -201 -15 -38 -43 -81 -75 -117 -63 -67 -75 -89
-104 -188 -29 -96 -43 -124 -95 -185 -60 -71 -72 -98 -106 -252 -24 -109 -43
-165 -89 -263 -71 -151 -76 -170 -91 -330 -14 -157 -64 -366 -119 -489 -54
-124 -80 -234 -80 -343 0 -76 3 -91 21 -109 18 -18 29 -21 71 -16 77 9 119 39
168 120 33 53 106 134 285 312 132 132 255 261 273 287 18 26 57 69 88 95 30
26 82 87 115 135 33 49 78 109 100 134 22 26 62 78 89 118 26 39 71 94 100
121 57 55 91 114 109 189 16 64 40 110 91 171 54 64 73 102 100 203 14 52 35
102 56 130 105 148 101 140 139 302 29 121 50 183 96 280 64 138 73 168 89
320 6 58 19 143 29 190 11 47 23 115 29 151 8 52 19 80 56 135 67 102 75 208
19 260 -38 35 -119 34 -163 -2z"/>
<path d="M7722 18875 c-62 -27 -77 -112 -43 -246 10 -41 27 -112 36 -159 9
-47 39 -156 66 -242 28 -87 61 -221 75 -297 30 -170 36 -188 112 -324 34 -60
68 -138 77 -175 40 -155 56 -200 90 -247 79 -112 96 -142 126 -232 25 -75 43
-109 89 -166 31 -40 76 -107 99 -149 23 -42 66 -109 94 -147 29 -39 69 -103
91 -143 21 -42 66 -101 101 -138 35 -36 81 -88 102 -116 21 -28 63 -72 94 -97
31 -25 73 -69 92 -96 20 -28 65 -72 99 -100 35 -27 77 -69 95 -93 17 -24 56
-63 86 -87 30 -25 71 -66 90 -91 20 -26 62 -67 94 -92 55 -42 68 -57 123 -148
52 -87 185 -107 219 -33 14 30 14 106 1 155 -6 20 -29 60 -51 88 -22 28 -46
66 -53 83 -19 46 -63 300 -80 454 -14 126 -17 139 -69 250 -42 91 -63 155 -91
275 -45 194 -55 223 -111 318 -52 90 -74 138 -116 247 -17 48 -54 115 -86 160
-30 42 -74 117 -98 167 -25 53 -66 117 -99 155 -30 35 -73 98 -95 140 -22 43
-71 116 -108 163 -37 48 -80 106 -94 131 -15 24 -53 66 -86 93 -33 27 -72 68
-88 92 -15 23 -48 59 -74 79 -25 20 -85 75 -133 122 -204 201 -255 249 -297
276 -23 16 -61 55 -82 87 -56 82 -129 113 -197 83z"/>
<path d="M5823 16825 c-40 -17 -55 -63 -42 -131 12 -63 28 -86 98 -137 32 -23
81 -69 108 -102 28 -33 65 -73 83 -90 18 -16 49 -55 70 -85 53 -78 420 -440
500 -494 19 -13 60 -53 91 -88 38 -43 78 -75 120 -98 35 -18 86 -53 114 -76
27 -24 92 -64 145 -90 70 -34 114 -64 167 -115 55 -52 84 -71 124 -83 29 -9
61 -16 70 -16 41 0 129 -43 179 -88 78 -69 105 -81 248 -103 171 -28 216 -42
303 -95 110 -68 129 -74 309 -94 213 -25 345 -62 450 -128 69 -44 127 -62 200
-62 79 0 110 24 110 87 0 74 -24 110 -111 165 -45 28 -88 65 -104 89 -16 22
-59 67 -97 101 -38 34 -82 80 -98 103 -16 23 -52 59 -79 81 -28 21 -69 64 -91
96 -23 32 -67 78 -99 102 -31 24 -73 64 -91 88 -19 24 -61 66 -94 92 -34 27
-81 74 -106 105 -35 44 -62 65 -125 96 -44 22 -109 64 -144 92 -35 29 -98 69
-140 90 -52 26 -95 57 -138 100 -58 60 -127 102 -165 103 -39 0 -126 43 -178
85 -71 59 -130 90 -205 105 -64 13 -136 46 -225 102 -73 46 -122 63 -265 93
-66 13 -188 49 -270 79 -155 56 -482 136 -552 136 -21 -1 -52 -7 -70 -15z"/>
<path d="M14905 16825 c-33 -8 -107 -17 -165 -20 -112 -8 -152 -19 -295 -83
-94 -42 -181 -68 -336 -102 -70 -15 -127 -37 -223 -86 -72 -36 -191 -87 -267
-113 -105 -37 -149 -58 -195 -93 -32 -25 -104 -69 -160 -97 -55 -28 -118 -66
-140 -84 -64 -54 -98 -75 -159 -98 -45 -17 -74 -38 -134 -99 -42 -43 -96 -91
-121 -108 -85 -58 -549 -531 -642 -654 -20 -27 -57 -65 -82 -85 -25 -19 -61
-58 -80 -87 -40 -60 -65 -84 -126 -118 -61 -35 -90 -68 -97 -111 -12 -76 39
-127 125 -127 56 0 88 14 147 64 27 24 64 50 80 58 30 15 232 51 355 63 96 9
223 41 282 71 92 47 178 75 322 105 193 39 209 45 258 84 100 81 144 105 215
120 104 22 117 28 191 98 40 37 101 81 147 105 44 23 107 65 140 93 32 28 96
69 142 91 70 33 90 48 123 93 22 30 57 67 78 82 20 15 71 62 112 104 41 42
101 95 133 118 31 23 57 46 57 52 0 6 46 57 103 114 139 141 250 262 286 311
17 22 57 59 89 82 66 46 92 89 92 151 0 53 -17 89 -51 107 -34 17 -123 17
-204 -1z"/>
<path d="M13665 14459 c-183 -8 -291 -22 -522 -68 -81 -17 -229 -39 -327 -51
-224 -27 -301 -47 -446 -114 -116 -55 -157 -65 -330 -81 -156 -15 -244 -69
-242 -148 2 -63 86 -113 241 -142 42 -8 102 -28 134 -45 31 -16 83 -43 115
-60 39 -21 92 -36 172 -50 133 -22 319 -72 505 -135 121 -41 141 -45 295 -55
91 -6 397 -15 680 -19 633 -10 698 -4 1012 100 84 28 239 72 343 99 169 42
203 54 305 109 144 77 170 103 170 173 0 101 -55 145 -200 160 -181 18 -247
38 -380 118 -81 48 -133 63 -291 85 -68 9 -176 26 -239 37 -385 66 -467 79
-579 88 -134 11 -161 11 -416 -1z"/>
<path d="M7035 14453 c-147 -6 -353 -24 -425 -38 -207 -39 -257 -46 -439 -65
-263 -28 -309 -39 -469 -110 -130 -59 -268 -99 -338 -100 -62 0 -158 -38 -194
-75 -29 -30 -35 -43 -35 -80 0 -70 24 -90 210 -172 150 -67 219 -89 460 -148
121 -30 275 -73 343 -95 189 -63 352 -75 957 -74 652 1 768 13 993 103 98 40
187 66 382 113 58 14 146 44 197 67 51 23 150 57 220 75 144 37 182 54 212 92
28 35 26 66 -4 103 -40 47 -133 72 -353 96 -167 19 -221 34 -326 90 -118 63
-182 81 -371 105 -94 11 -219 32 -280 46 -60 14 -155 32 -210 39 -110 15 -390
36 -433 33 -15 -1 -58 -3 -97 -5z"/>
<path d="M9101 13319 c-13 -5 -46 -27 -73 -49 -61 -48 -131 -75 -234 -89 -108
-15 -212 -46 -318 -93 -49 -22 -136 -51 -195 -65 -191 -44 -255 -63 -321 -97
-36 -18 -96 -49 -135 -69 -38 -20 -99 -41 -135 -48 -110 -19 -141 -35 -216
-107 -58 -57 -85 -75 -160 -106 -59 -24 -110 -54 -149 -88 -33 -28 -89 -64
-124 -80 -40 -18 -87 -51 -130 -91 -36 -35 -88 -79 -116 -97 -27 -19 -77 -60
-111 -92 -33 -31 -92 -81 -131 -110 -143 -107 -481 -452 -574 -587 -26 -37
-83 -97 -132 -139 -66 -55 -89 -83 -103 -117 -19 -51 -14 -107 12 -136 41 -45
167 -48 288 -8 33 11 108 31 167 44 59 13 133 35 165 48 76 32 146 52 267 76
76 15 128 34 234 86 74 37 195 87 267 112 108 36 144 54 202 99 41 31 114 73
174 98 56 25 129 66 162 92 32 25 90 61 129 80 42 21 97 60 137 97 37 35 96
83 132 107 78 52 479 445 594 581 169 201 256 297 305 338 28 24 74 75 101
115 27 39 74 92 104 118 61 54 83 99 66 142 -15 42 -89 59 -149 35z"/>
<path d="M11638 13308 c-36 -28 -26 -70 30 -131 27 -29 69 -79 94 -112 25 -33
95 -108 156 -167 70 -68 124 -130 147 -170 20 -35 69 -97 108 -138 40 -41 86
-96 104 -122 17 -26 56 -66 86 -90 30 -24 74 -67 96 -96 23 -29 68 -71 100
-95 32 -23 78 -67 102 -97 33 -41 64 -65 124 -97 44 -23 109 -67 145 -98 36
-31 92 -70 124 -87 33 -16 94 -63 135 -102 91 -87 98 -91 189 -110 87 -18 112
-31 185 -95 67 -58 102 -76 189 -91 76 -14 146 -45 222 -99 67 -46 139 -71
295 -102 163 -32 219 -48 304 -85 95 -43 238 -81 380 -100 173 -23 229 2 229
100 0 67 -27 111 -103 172 -37 29 -78 68 -90 86 -13 18 -53 65 -89 105 -36 39
-112 123 -170 187 -120 132 -329 332 -410 394 -31 22 -66 55 -78 71 -12 17
-55 53 -95 80 -39 27 -98 78 -130 115 -50 57 -66 68 -115 82 -78 23 -116 43
-192 104 -36 29 -96 68 -135 87 -38 19 -95 54 -125 78 -70 54 -114 76 -271
136 -71 26 -177 73 -236 103 -112 58 -121 61 -318 100 -89 18 -146 36 -220 71
-141 67 -167 75 -283 91 -101 13 -133 24 -297 98 -85 38 -157 47 -187 24z"/>
<path d="M9693 12770 c-12 -5 -40 -33 -63 -62 -23 -29 -61 -65 -84 -80 -111
-72 -112 -74 -156 -164 -45 -96 -105 -176 -240 -318 -47 -50 -115 -126 -150
-169 -35 -43 -72 -83 -81 -88 -10 -5 -49 -51 -87 -101 -39 -51 -91 -113 -117
-138 -25 -25 -62 -73 -81 -108 -19 -34 -60 -91 -90 -127 -31 -36 -73 -103 -95
-150 -25 -53 -62 -110 -96 -148 -64 -72 -83 -106 -112 -202 -23 -77 -42 -111
-113 -205 -26 -34 -52 -78 -58 -98 -5 -21 -19 -74 -31 -119 -13 -52 -37 -109
-65 -155 -49 -81 -86 -193 -134 -403 -18 -77 -56 -212 -86 -300 -67 -201 -87
-302 -82 -407 3 -73 6 -82 31 -104 35 -30 94 -32 152 -5 42 19 66 44 121 123
17 24 62 66 99 92 188 131 488 433 616 620 31 45 77 98 102 119 31 26 58 62
91 125 25 49 66 114 91 145 27 33 65 99 94 164 26 60 67 134 91 164 56 71 81
127 120 281 21 80 45 148 67 185 80 138 93 174 114 324 25 174 49 274 96 394
50 127 70 201 83 307 19 159 63 317 109 394 22 37 43 82 47 100 9 46 -13 103
-43 115 -28 11 -31 11 -60 -1z"/>
<path d="M11082 12674 c-11 -19 18 -219 52 -359 13 -55 30 -125 37 -155 6 -30
29 -98 50 -150 37 -93 54 -174 79 -377 17 -136 32 -183 93 -291 59 -104 65
-121 97 -281 27 -134 39 -160 98 -224 59 -62 73 -88 102 -187 23 -79 62 -150
106 -191 14 -13 50 -64 79 -114 30 -49 75 -115 100 -145 25 -30 64 -90 86
-134 28 -53 63 -100 109 -145 37 -36 80 -86 95 -111 24 -40 58 -76 227 -247
140 -142 268 -263 277 -263 6 0 33 -28 60 -63 33 -42 67 -73 103 -92 29 -15
76 -45 104 -66 71 -54 107 -66 140 -45 14 10 29 28 34 42 24 62 1 197 -60 349
-21 54 -36 114 -45 190 -33 262 -37 279 -120 490 -35 88 -73 198 -85 245 -28
113 -43 151 -89 219 -51 74 -83 141 -111 226 -28 85 -49 129 -106 214 -24 36
-59 105 -79 152 -23 56 -57 112 -99 165 -36 44 -84 122 -109 174 -34 71 -59
108 -99 145 -29 28 -73 78 -97 110 -24 33 -63 76 -88 95 -24 19 -62 60 -85 92
-22 31 -66 78 -99 104 -33 26 -76 69 -97 96 -20 27 -63 70 -95 96 -33 26 -68
59 -79 75 -11 15 -50 52 -88 82 -49 39 -80 75 -112 127 -47 80 -87 112 -181
147 -69 25 -93 26 -105 5z"/>
<path d="M10402 12494 c-35 -25 -62 -88 -88 -210 -13 -63 -46 -183 -73 -266
-27 -84 -68 -241 -91 -348 -25 -120 -57 -236 -82 -300 -80 -207 -96 -294 -118
-675 -19 -317 -23 -603 -11 -730 6 -66 16 -201 21 -300 13 -225 21 -268 76
-380 33 -67 57 -142 95 -295 41 -164 61 -224 99 -301 27 -53 62 -135 79 -183
53 -149 82 -186 151 -186 78 0 119 62 149 227 26 139 28 145 99 293 71 148 77
166 97 334 18 146 35 227 70 336 13 41 41 163 62 270 l37 195 -2 316 c-2 215
-8 335 -16 375 -26 117 -96 401 -121 489 -15 53 -31 154 -40 246 -16 173 -26
209 -84 307 -22 37 -47 86 -55 110 -31 87 -56 251 -56 365 0 162 -31 260 -100
314 -21 17 -71 16 -98 -3z"/>
<path d="M15335 25249 c-4 -6 -4 -13 -1 -16 8 -8 36 5 36 17 0 13 -27 13 -35
-1z"/>
<path d="M3197 26539 c-50 -15 -92 -58 -105 -111 -14 -55 -25 -283 -27 -558
-1 -118 -8 -287 -15 -376 -12 -154 -11 -163 8 -206 25 -58 66 -78 158 -78 59
0 80 6 165 45 54 26 132 53 176 62 97 19 144 43 208 102 28 26 85 72 127 104
95 70 178 153 231 232 22 33 64 87 94 119 67 75 88 119 112 237 11 54 33 123
51 159 51 101 42 189 -24 229 -17 11 -57 24 -90 30 -84 15 -1020 24 -1069 10z"/>
<path d="M16515 26541 c-52 -13 -94 -40 -110 -71 -21 -41 -19 -120 6 -182 11
-29 31 -101 44 -160 28 -123 39 -148 97 -215 22 -26 60 -77 83 -113 58 -89
181 -218 268 -281 40 -29 87 -70 106 -91 47 -54 103 -84 191 -103 41 -9 116
-37 165 -61 105 -50 155 -63 248 -64 62 0 70 2 103 33 l36 33 0 581 c1 660 5
624 -83 673 l-44 25 -540 2 c-297 1 -553 -2 -570 -6z"/>
<path d="M3170 2691 c-49 -10 -77 -30 -103 -71 -21 -34 -21 -36 -18 -590 2
-506 4 -559 20 -595 22 -49 48 -73 98 -91 54 -19 103 -17 198 8 83 22 83 22
200 3 93 -14 145 -17 256 -11 110 5 159 3 227 -10 236 -44 343 48 288 246 -9
32 -21 96 -26 141 -13 117 -33 167 -94 239 -30 35 -75 100 -100 145 -53 94
-80 125 -206 241 -116 106 -184 151 -292 194 -46 18 -135 60 -198 92 -120 61
-178 74 -250 59z"/>
<path d="M17470 2693 c-77 -15 -400 -175 -499 -248 -86 -63 -265 -256 -311
-335 -23 -41 -67 -110 -98 -154 -69 -99 -88 -144 -101 -231 -6 -39 -19 -108
-28 -155 -10 -51 -13 -100 -9 -121 21 -116 144 -154 310 -95 l79 28 81 -16
c59 -12 142 -16 311 -16 127 -1 268 -1 315 -2 108 -3 172 24 208 87 22 40 22
40 21 495 -1 326 3 468 11 503 17 65 9 160 -17 195 -42 57 -78 72 -167 71 -45
-1 -92 -4 -106 -6z"/>
</g>
</svg>
